<svg width="17" height="17" viewBox="0 0 17 17" fill="none" xmlns="http://www.w3.org/2000/svg">
<path d="M8.9165 2.5C10.0165 2.5 10.9165 3.4 10.9165 4.5C10.9165 5.6 10.0165 6.5 8.9165 6.5C7.8165 6.5 6.9165 5.6 6.9165 4.5C6.9165 3.4 7.8165 2.5 8.9165 2.5ZM8.9165 12.5C11.6165 12.5 14.7165 13.79 14.9165 14.5H2.9165C3.1465 13.78 6.2265 12.5 8.9165 12.5ZM8.9165 0.5C6.7065 0.5 4.9165 2.29 4.9165 4.5C4.9165 6.71 6.7065 8.5 8.9165 8.5C11.1265 8.5 12.9165 6.71 12.9165 4.5C12.9165 2.29 11.1265 0.5 8.9165 0.5ZM8.9165 10.5C6.2465 10.5 0.916504 11.84 0.916504 14.5V16.5H16.9165V14.5C16.9165 11.84 11.5865 10.5 8.9165 10.5Z" fill="#828282"/>
</svg>
