<svg width="21" height="23" viewBox="0 0 21 23" fill="none" xmlns="http://www.w3.org/2000/svg">
<path d="M18.9165 16.5H2.9165V4.5H13.0165C12.9365 4.11 12.8365 3.39 13.0165 2.5H2.9165C1.8165 2.5 0.916504 3.4 0.916504 4.5V22.5L4.9165 18.5H18.9165C20.0165 18.5 20.9165 17.6 20.9165 16.5V7.48C20.3365 7.92 19.6565 8.25 18.9165 8.4V16.5Z" fill="#2E3192"/>
<path d="M17.9165 6.5C19.5734 6.5 20.9165 5.15685 20.9165 3.5C20.9165 1.84315 19.5734 0.5 17.9165 0.5C16.2596 0.5 14.9165 1.84315 14.9165 3.5C14.9165 5.15685 16.2596 6.5 17.9165 6.5Z" fill="#2E3192"/>
<path d="M12.9165 12.5H4.9165V14.5H12.9165V12.5Z" fill="#2E3192"/>
<path d="M16.9165 9.5H4.9165V11.5H16.9165V9.5Z" fill="#2E3192"/>
<path d="M4.9165 8.5H16.9165V8.4C15.7065 8.15 14.6665 7.45 13.9465 6.5H4.9165V8.5Z" fill="#2E3192"/>
</svg>
