<svg width="19" height="18" viewBox="0 0 19 18" fill="none" xmlns="http://www.w3.org/2000/svg">
<path d="M10.6665 13.74C10.6665 14.43 10.1365 15 9.4165 15C8.7165 15 8.1565 14.44 8.1565 13.74C8.1565 13.03 8.7165 12.49 9.4165 12.49C10.1265 12.49 10.6665 13.04 10.6665 13.74ZM9.4065 3C7.6365 3 6.4265 4.15 5.9765 5.49L7.6165 6.18C7.8365 5.51 8.3565 4.7 9.4165 4.7C11.0365 4.7 11.3565 6.22 10.7865 7.03C10.2465 7.8 9.3165 8.32 8.8265 9.19C8.4365 9.88 8.5165 10.68 8.5165 11.17H10.3365C10.3365 10.24 10.4065 10.05 10.5565 9.76C10.9465 9.04 11.6665 8.7 12.4265 7.59C13.1065 6.59 12.8465 5.23 12.4065 4.51C11.8965 3.67 10.8865 3 9.4065 3ZM16.4165 2H2.4165V16H16.4165V2ZM16.4165 0C17.5165 0 18.4165 0.9 18.4165 2V16C18.4165 17.1 17.5165 18 16.4165 18H2.4165C1.3165 18 0.416504 17.1 0.416504 16V2C0.416504 0.9 1.3165 0 2.4165 0H16.4165Z" fill="#828282"/>
</svg>
