<svg width="60" height="28" viewBox="0 0 60 28" fill="none" xmlns="http://www.w3.org/2000/svg">
<g clip-path="url(#clip0_4_113)">
<path d="M13.8814 8.67291H19.1106V26.7359H13.872V24.599C13.3519 25.4052 12.5964 26.0352 11.706 26.4053C10.699 26.8698 9.60084 27.1083 8.49003 27.1036C6.96485 27.1133 5.47083 26.676 4.19576 25.8467C2.87992 24.9976 1.81608 23.8165 1.11366 22.425C0.359309 20.9605 -0.0259673 19.3368 -0.00924353 17.6928C-0.00924353 15.0842 0.815313 12.8698 2.46443 11.0495C4.11354 9.22923 6.12521 8.31677 8.49943 8.31212C9.60734 8.30632 10.7027 8.54485 11.706 9.01043C12.7099 9.47597 13.435 10.075 13.8814 10.8074V8.67291ZM9.65287 22.1736C10.5182 22.1776 11.37 21.9612 12.1265 21.5451C12.8446 21.1703 13.4481 20.6117 13.8743 19.9273V15.5047C13.4535 14.8096 12.8524 14.239 12.1336 13.852C11.3806 13.4254 10.5273 13.203 9.65992 13.2073C9.0563 13.1937 8.45602 13.2997 7.89434 13.5192C7.33267 13.7386 6.82091 14.0671 6.38915 14.4853C5.95738 14.9035 5.61432 15.403 5.38009 15.9544C5.14587 16.5058 5.02521 17.098 5.02521 17.6962C5.02521 18.2945 5.14587 18.8867 5.38009 19.4381C5.61432 19.9895 5.95738 20.489 6.38915 20.9072C6.82091 21.3254 7.33267 21.6539 7.89434 21.8733C8.45602 22.0928 9.0563 22.1988 9.65992 22.1852L9.65287 22.1736Z" fill="white"/>
<path d="M27.4241 7.61149V8.67292H31.8992V13.6193H27.4241V26.7452H22.1854V13.6193H20.4165V8.67292H22.1854V7.3601C22.1854 5.06188 22.8534 3.26024 24.1893 1.95517C25.5252 0.650109 27.2776 -0.0016475 29.4467 -9.57001e-05C30.372 -0.0196577 31.2897 0.170629 32.1294 0.556225L31.8569 5.11619C31.3249 4.94766 30.771 4.85671 30.2125 4.84618C29.8454 4.83794 29.4802 4.90201 29.1383 5.03467C28.7963 5.16733 28.4843 5.36593 28.2204 5.61898C27.954 5.87711 27.7454 6.18793 27.6082 6.53122C27.471 6.87452 27.4082 7.24259 27.4241 7.61149Z" fill="white"/>
<path d="M52.5506 8.31233C54.7431 8.31233 56.5308 8.97417 57.9137 10.2979C59.2966 11.6215 59.9919 13.3603 59.9998 15.5142V26.7361H54.7259V16.592C54.7259 15.515 54.4417 14.6615 53.8732 14.0315C53.5816 13.7187 53.2243 13.4732 52.8265 13.3124C52.4287 13.1515 52.0001 13.0791 51.571 13.1004C50.9096 13.1072 50.2634 13.2975 49.7057 13.6497C49.1323 13.9851 48.6526 14.4572 48.3103 15.0231V26.7477H43.0717V16.592C43.0717 15.5259 42.7851 14.6724 42.2119 14.0315C41.9402 13.7241 41.6037 13.4796 41.2262 13.3151C40.8488 13.1506 40.4395 13.0702 40.0272 13.0795C39.3168 13.0691 38.6185 13.2623 38.0163 13.6358C37.4407 13.9896 36.9812 14.5015 36.6937 15.1092V26.7268H31.4551V8.67312H36.6937V10.7378C37.2337 10.0083 37.9417 9.41696 38.7586 9.01297C39.7307 8.52979 40.8075 8.29003 41.8948 8.31466C44.2439 8.31466 45.9353 9.15884 46.969 10.8472C47.6349 10.0944 48.4486 9.48376 49.3604 9.05254C50.3503 8.56089 51.4433 8.30731 52.5506 8.31233Z" fill="white"/>
<path d="M42.7808 6.17085L42.6563 5.84497H41.8975L41.7706 6.17085H41.3267L42.1113 4.21558H42.4496L43.2365 6.17085H42.7808ZM42.0314 5.47254H42.5177L42.2828 4.84871L42.0314 5.47254Z" fill="#8F8F8F"/>
<path d="M44.1526 4.20621C44.3265 4.20248 44.495 4.26593 44.6224 4.38312C44.6846 4.4403 44.7336 4.50995 44.7665 4.58741C44.7993 4.66488 44.815 4.74838 44.8127 4.83236C44.8168 4.91897 44.8019 5.00543 44.7691 5.08579C44.7362 5.16615 44.6862 5.23851 44.6224 5.2979C44.4957 5.41658 44.3269 5.48098 44.1526 5.47713H43.8167V6.17545H43.4009V4.22018L44.1526 4.20621ZM44.1526 5.06979C44.2188 5.07145 44.2829 5.0472 44.3311 5.00229C44.3539 4.98018 44.3719 4.95372 44.384 4.9245C44.3961 4.89529 44.4021 4.86394 44.4016 4.83236C44.4025 4.80177 44.3966 4.77136 44.3844 4.74324C44.3723 4.71511 44.3541 4.68993 44.3311 4.66942C44.2826 4.62536 44.2184 4.60195 44.1526 4.60425H43.8167V5.06979H44.1526Z" fill="#8F8F8F"/>
<path d="M45.7923 4.20621C45.9661 4.20248 46.1346 4.26593 46.2621 4.38312C46.3239 4.44042 46.3726 4.51014 46.405 4.58762C46.4375 4.6651 46.4528 4.74854 46.45 4.83236C46.4546 4.91881 46.4401 5.00521 46.4077 5.08558C46.3752 5.16596 46.3255 5.2384 46.2621 5.2979C46.1354 5.41658 45.9666 5.48098 45.7923 5.47713H45.4563V6.17545H45.0405V4.22018L45.7923 4.20621ZM45.7923 5.06979C45.8247 5.07056 45.8569 5.06499 45.8871 5.05341C45.9174 5.04183 45.945 5.02446 45.9684 5.00229C45.9916 4.98038 46.0101 4.95401 46.0226 4.92478C46.0351 4.89556 46.0415 4.86411 46.0413 4.83236C46.0423 4.80152 46.0363 4.77085 46.0237 4.74264C46.0111 4.71442 45.9922 4.68939 45.9684 4.66942C45.9452 4.64712 45.9175 4.62982 45.8872 4.6186C45.8569 4.60739 45.8246 4.6025 45.7923 4.60425H45.4563V5.06979H45.7923Z" fill="#8F8F8F"/>
<path d="M46.6802 4.20605H47.096V5.76562H48.0051V6.17064H46.6849L46.6802 4.20605Z" fill="#8F8F8F"/>
<path d="M47.6694 4.20605H48.1815L48.6185 4.90437L49.0554 4.20605H49.5417L48.8229 5.33499V6.17064H48.4047V5.33499L47.6694 4.20605Z" fill="#8F8F8F"/>
<path d="M50.291 4.20605H51.5008V4.60409H50.7092V5.00678H51.4139V5.40249H50.7092V6.17064H50.291V4.20605Z" fill="#8F8F8F"/>
<path d="M52.1327 4.30847C52.289 4.21909 52.4668 4.17325 52.6472 4.17579C52.8315 4.17171 53.0135 4.21759 53.1734 4.30847C53.3255 4.39313 53.4507 4.51806 53.5352 4.66926C53.6216 4.82638 53.6668 5.00244 53.6668 5.18135C53.6668 5.36026 53.6216 5.53632 53.5352 5.69345C53.4503 5.84549 53.3252 5.97181 53.1734 6.0589C53.0163 6.1459 52.839 6.19082 52.659 6.18925C52.4789 6.19148 52.3014 6.14651 52.1445 6.0589C51.9865 5.97893 51.8545 5.85626 51.7639 5.70509C51.6776 5.54796 51.6323 5.3719 51.6323 5.19299C51.6323 5.01408 51.6776 4.83802 51.7639 4.6809C51.8485 4.52446 51.9765 4.39524 52.1327 4.30847ZM53.0583 4.75073C53.0047 4.69618 52.9406 4.65282 52.8698 4.62322C52.799 4.59362 52.7229 4.57837 52.646 4.57837C52.5692 4.57837 52.4931 4.59362 52.4223 4.62322C52.3515 4.65282 52.2874 4.69618 52.2338 4.75073C52.1266 4.86904 52.0674 5.02239 52.0674 5.18135C52.0674 5.34031 52.1266 5.49367 52.2338 5.61198C52.287 5.66711 52.351 5.71099 52.4219 5.74096C52.4928 5.77093 52.569 5.78638 52.646 5.78638C52.7231 5.78638 52.7993 5.77093 52.8702 5.74096C52.941 5.71099 53.005 5.66711 53.0583 5.61198C53.1655 5.49367 53.2247 5.34031 53.2247 5.18135C53.2247 5.02239 53.1655 4.86904 53.0583 4.75073Z" fill="#8F8F8F"/>
<path d="M55.4827 6.17085H54.9729L54.5289 5.42598H54.3151V6.17085H53.897V4.21558H54.6581C54.7661 4.21651 54.872 4.24455 54.9661 4.29706C55.0602 4.34957 55.1393 4.42484 55.1961 4.51585C55.252 4.60786 55.2813 4.71336 55.2806 4.82078C55.2831 4.93503 55.2538 5.04776 55.1961 5.14666C55.1421 5.24052 55.06 5.31538 54.9611 5.3608L55.4827 6.17085ZM54.3081 4.61594V5.06752H54.6088C54.6403 5.06862 54.6718 5.06342 54.7012 5.05222C54.7307 5.04102 54.7576 5.02406 54.7803 5.00234C54.8031 4.98174 54.8212 4.95654 54.8333 4.92843C54.8455 4.90033 54.8514 4.86997 54.8507 4.8394C54.8514 4.80952 54.8454 4.77987 54.8332 4.75253C54.821 4.72518 54.8029 4.70081 54.7803 4.68112C54.7576 4.6594 54.7307 4.64243 54.7012 4.63123C54.6718 4.62004 54.6403 4.61483 54.6088 4.61594H54.3081Z" fill="#8F8F8F"/>
<path d="M56.2529 6.17085V4.21558H56.758L57.3453 5.56332L57.9608 4.21558H58.386V6.17085H57.9678V5.007L57.4628 6.17085H57.1668L56.6687 5.007V6.17085H56.2529Z" fill="#8F8F8F"/>
<path d="M58.6846 4.20605H59.8944V4.60409H59.1027V4.95557H59.8075V5.35129H59.1027V5.76562H59.8944V6.17064H58.6846V4.20605Z" fill="#8F8F8F"/>
</g>
<defs>
<clipPath id="clip0_4_113">
<rect width="60" height="27.0968" fill="white"/>
</clipPath>
</defs>
</svg>
