<svg width="30" height="30" viewBox="0 0 30 30" fill="none" xmlns="http://www.w3.org/2000/svg">
<rect width="29.4207" height="30" rx="14.7103" fill="#7879F1"/>
<path d="M10.587 19.156C9.89365 19.156 9.25232 19.0347 8.66299 18.792C8.08232 18.5493 7.57099 18.2113 7.12899 17.778C6.68699 17.3447 6.34465 16.842 6.10199 16.27C5.85932 15.6893 5.73799 15.0653 5.73799 14.398C5.73799 13.7307 5.85932 13.111 6.10199 12.539C6.34465 11.9583 6.68265 11.4557 7.11599 11.031C7.54932 10.5977 8.05632 10.264 8.63699 10.03C9.22632 9.78733 9.86765 9.666 10.561 9.666C11.2457 9.666 11.8783 9.78733 12.459 10.03C13.0483 10.264 13.5597 10.5977 13.993 11.031C14.435 11.4557 14.7773 11.9583 15.02 12.539C15.2627 13.111 15.384 13.735 15.384 14.411C15.384 15.0783 15.2627 15.7023 15.02 16.283C14.7773 16.855 14.4393 17.3577 14.006 17.791C13.5727 18.2157 13.0613 18.5493 12.472 18.792C11.8913 19.0347 11.263 19.156 10.587 19.156ZM10.561 17.297C11.107 17.297 11.5837 17.1757 11.991 16.933C12.3983 16.6903 12.7147 16.3523 12.94 15.919C13.174 15.4857 13.291 14.9787 13.291 14.398C13.291 13.826 13.174 13.3233 12.94 12.89C12.7147 12.4567 12.394 12.123 11.978 11.889C11.5707 11.6463 11.0983 11.525 10.561 11.525C10.015 11.525 9.53399 11.6463 9.11799 11.889C8.71065 12.123 8.39432 12.4567 8.16899 12.89C7.94365 13.3233 7.83099 13.826 7.83099 14.398C7.83099 14.9787 7.94365 15.4857 8.16899 15.919C8.39432 16.3523 8.71065 16.6903 9.11799 16.933C9.53399 17.1757 10.015 17.297 10.561 17.297ZM16.8196 19V9.822H20.6546C21.2353 9.822 21.7596 9.94333 22.2276 10.186C22.6956 10.42 23.064 10.7537 23.3326 11.187C23.61 11.6203 23.7486 12.136 23.7486 12.734C23.7486 13.3407 23.61 13.8607 23.3326 14.294C23.064 14.7273 22.6956 15.0653 22.2276 15.308C21.7596 15.542 21.2353 15.659 20.6546 15.659H18.8606V19H16.8196ZM20.3556 11.408H18.8606V14.073H20.3556C20.737 14.073 21.0576 13.956 21.3176 13.722C21.5863 13.488 21.7206 13.1587 21.7206 12.734C21.7206 12.318 21.5863 11.993 21.3176 11.759C21.0576 11.525 20.737 11.408 20.3556 11.408Z" fill="white"/>
</svg>
