<svg width="104" height="54" viewBox="0 0 104 54" fill="none" xmlns="http://www.w3.org/2000/svg">
<g clip-path="url(#clip0_2461_7363)">
<path d="M24.061 17.2841H33.125V53.281H24.0447V49.0226C23.1433 50.6291 21.8338 51.8847 20.2904 52.6223C18.5449 53.5479 16.6414 54.0231 14.716 54.0139C12.0724 54.0331 9.48273 53.1616 7.27261 51.509C4.99181 49.8169 3.14783 47.4632 1.9303 44.69C0.622761 41.7715 -0.0450507 38.5358 -0.0160628 35.2593C-0.0160628 30.0608 1.41317 25.6478 4.27163 22.0203C7.13009 18.3927 10.617 16.5743 14.7323 16.5651C16.6527 16.5535 18.5513 17.0289 20.2904 17.9567C22.0305 18.8845 23.2873 20.0782 24.061 21.5378V17.2841ZM16.7316 44.189C18.2314 44.197 19.7079 43.7657 21.0193 42.9365C22.2639 42.1896 23.31 41.0763 24.0488 39.7126V30.8989C23.3193 29.5137 22.2775 28.3764 21.0315 27.6054C19.7263 26.7551 18.2474 26.3118 16.7438 26.3204C15.6975 26.2933 14.6571 26.5046 13.6835 26.942C12.7099 27.3793 11.8229 28.034 11.0745 28.8673C10.3261 29.7007 9.73144 30.6961 9.32545 31.795C8.91946 32.8938 8.71032 34.0741 8.71032 35.2663C8.71032 36.4585 8.91946 37.6388 9.32545 38.7376C9.73144 39.8365 10.3261 40.8319 11.0745 41.6653C11.8229 42.4986 12.7099 43.1533 13.6835 43.5906C14.6571 44.028 15.6975 44.2393 16.7438 44.2122L16.7316 44.189Z" fill="#2E3192"/>
<path d="M47.5352 15.1688V17.2841H55.2921V27.1415H47.5352V53.2995H38.4549V27.1415H35.3887V17.2841H38.4549V14.6678C38.4549 10.0878 39.6126 6.49738 41.9282 3.89657C44.2437 1.29576 47.2814 -0.00309533 51.0411 -2.81609e-06C52.645 -0.038987 54.2355 0.340227 55.6912 1.10866L55.2188 10.196C54.2966 9.86018 53.3365 9.67891 52.3685 9.65793C51.7321 9.64151 51.0992 9.76919 50.5065 10.0336C49.9137 10.2979 49.373 10.6937 48.9155 11.198C48.4537 11.7124 48.0921 12.3318 47.8543 13.016C47.6164 13.7001 47.5077 14.4336 47.5352 15.1688Z" fill="#2E3192"/>
<path d="M91.0881 16.5651C94.8885 16.5651 97.9872 17.884 100.384 20.522C102.781 23.1599 103.986 26.625 104 30.9174V53.281H94.8586V33.0652C94.8586 30.919 94.3659 29.2181 93.3805 27.9625C92.8752 27.3393 92.2559 26.85 91.5664 26.5294C90.8768 26.2088 90.1339 26.0646 89.3901 26.107C88.2437 26.1205 87.1237 26.4998 86.157 27.2018C85.1631 27.8701 84.3316 28.8109 83.7383 29.9387V53.3042H74.658V33.0652C74.658 30.9406 74.1612 29.2398 73.1677 27.9625C72.6967 27.35 72.1135 26.8627 71.4592 26.5348C70.8049 26.207 70.0954 26.0467 69.3808 26.0653C68.1495 26.0447 66.9392 26.4297 65.8953 27.174C64.8976 27.879 64.1011 28.8992 63.6028 30.1103V53.2624H54.5225V17.2841H63.6028V21.3987C64.5389 19.9449 65.7659 18.7664 67.182 17.9613C68.867 16.9984 70.7334 16.5206 72.618 16.5697C76.6899 16.5697 79.6216 18.252 81.4133 21.6167C82.5676 20.1164 83.978 18.8996 85.5584 18.0402C87.2743 17.0604 89.1687 16.5551 91.0881 16.5651Z" fill="#2E3192"/>
<path d="M74.1531 12.2974L73.9373 11.648H72.622L72.4021 12.2974H71.6326L72.9926 8.40082H73.5789L74.943 12.2974H74.1531ZM72.8541 10.9058H73.697L73.2898 9.66257L72.8541 10.9058Z" fill="#140F31"/>
<path d="M76.5311 8.38227C76.8324 8.37484 77.1245 8.50127 77.3455 8.73482C77.4531 8.84878 77.5382 8.98758 77.5951 9.14195C77.652 9.29633 77.6793 9.46274 77.6753 9.6301C77.6824 9.8027 77.6565 9.97499 77.5996 10.1351C77.5427 10.2953 77.456 10.4395 77.3455 10.5579C77.1259 10.7944 76.8332 10.9227 76.5311 10.915H75.9488V12.3067H75.2281V8.4101L76.5311 8.38227ZM76.5311 10.1033C76.6458 10.1066 76.757 10.0582 76.8406 9.96873C76.88 9.92468 76.9112 9.87194 76.9322 9.81373C76.9532 9.75551 76.9636 9.69303 76.9627 9.6301C76.9642 9.56914 76.954 9.50854 76.9329 9.45248C76.9118 9.39643 76.8803 9.34625 76.8406 9.30539C76.7563 9.21757 76.6452 9.17093 76.5311 9.1755H75.9488V10.1033H76.5311Z" fill="#140F31"/>
<path d="M79.3732 8.38227C79.6746 8.37484 79.9667 8.50127 80.1876 8.73482C80.2947 8.84901 80.3792 8.98796 80.4354 9.14236C80.4916 9.29676 80.5182 9.46305 80.5134 9.6301C80.5212 9.80238 80.4962 9.97456 80.4399 10.1347C80.3837 10.2949 80.2976 10.4393 80.1876 10.5579C79.968 10.7944 79.6754 10.9227 79.3732 10.915H78.791V12.3067H78.0703V8.4101L79.3732 8.38227ZM79.3732 10.1033C79.4294 10.1048 79.4853 10.0937 79.5377 10.0706C79.5901 10.0475 79.638 10.0129 79.6786 9.96873C79.7188 9.92508 79.7508 9.87252 79.7725 9.81428C79.7942 9.75605 79.8052 9.69337 79.8049 9.6301C79.8067 9.56864 79.7962 9.50751 79.7744 9.45129C79.7525 9.39506 79.7198 9.34518 79.6786 9.30539C79.6383 9.26094 79.5904 9.22646 79.5379 9.20411C79.4853 9.18176 79.4293 9.17202 79.3732 9.1755H78.791V10.1033H79.3732Z" fill="#140F31"/>
<path d="M80.9124 8.38226H81.6331V11.4902H83.209V12.2974H80.9206L80.9124 8.38226Z" fill="#140F31"/>
<path d="M82.6267 8.38226H83.5144L84.2717 9.7739L85.0291 8.38226H85.872L84.626 10.6321V12.2974H83.9012V10.6321L82.6267 8.38226Z" fill="#140F31"/>
<path d="M87.1709 8.38226H89.2679V9.17549H87.8957V9.978H89.1173V10.7666H87.8957V12.2974H87.1709V8.38226Z" fill="#140F31"/>
<path d="M90.3632 8.58638C90.6341 8.40827 90.9423 8.31691 91.255 8.32197C91.5745 8.31386 91.8899 8.40528 92.1671 8.58638C92.4306 8.75511 92.6478 9.00407 92.7942 9.30539C92.9438 9.61851 93.0223 9.96938 93.0223 10.3259C93.0223 10.6825 92.9438 11.0333 92.7942 11.3464C92.6469 11.6495 92.4302 11.9012 92.1671 12.0747C91.8947 12.2481 91.5874 12.3377 91.2753 12.3345C90.9632 12.339 90.6556 12.2493 90.3836 12.0747C90.1097 11.9154 89.881 11.6709 89.724 11.3696C89.5743 11.0565 89.4958 10.7057 89.4958 10.3491C89.4958 9.99257 89.5743 9.64171 89.724 9.32858C89.8706 9.01682 90.0924 8.75931 90.3632 8.58638ZM91.9676 9.46775C91.8746 9.35904 91.7635 9.27264 91.6408 9.21364C91.518 9.15465 91.3862 9.12426 91.253 9.12426C91.1197 9.12426 90.9879 9.15465 90.8651 9.21364C90.7424 9.27264 90.6313 9.35904 90.5383 9.46775C90.3526 9.70352 90.2499 10.0091 90.2499 10.3259C90.2499 10.6427 90.3526 10.9483 90.5383 11.1841C90.6307 11.294 90.7416 11.3814 90.8644 11.4411C90.9873 11.5009 91.1194 11.5317 91.253 11.5317C91.3865 11.5317 91.5187 11.5009 91.6415 11.4411C91.7643 11.3814 91.8752 11.294 91.9676 11.1841C92.1533 10.9483 92.256 10.6427 92.256 10.3259C92.256 10.0091 92.1533 9.70352 91.9676 9.46775Z" fill="#140F31"/>
<path d="M96.1698 12.2974H95.2862L94.5166 10.813H94.1461V12.2974H93.4213V8.40082H94.7406C94.9277 8.40269 95.1114 8.45855 95.2745 8.5632C95.4375 8.66784 95.5746 8.81785 95.673 8.99922C95.77 9.18258 95.8207 9.39284 95.8196 9.6069C95.8239 9.83458 95.7732 10.0592 95.673 10.2563C95.5796 10.4434 95.4372 10.5926 95.2658 10.6831L96.1698 12.2974ZM94.1338 9.19869V10.0986H94.655C94.7097 10.1008 94.7642 10.0904 94.8153 10.0681C94.8664 10.0458 94.9129 10.012 94.9523 9.96873C94.9918 9.92768 95.0232 9.87745 95.0443 9.82144C95.0653 9.76543 95.0756 9.70493 95.0745 9.64401C95.0755 9.58446 95.0651 9.52537 95.044 9.47088C95.0229 9.41639 94.9916 9.36782 94.9523 9.32857C94.9129 9.28529 94.8664 9.25148 94.8153 9.22916C94.7642 9.20685 94.7097 9.19648 94.655 9.19869H94.1338Z" fill="#140F31"/>
<path d="M97.5054 12.2974V8.40082H98.3808L99.3988 11.0867L100.466 8.40082H101.203V12.2974H100.478V9.978L99.6024 12.2974H99.0893L98.2261 9.978V12.2974H97.5054Z" fill="#140F31"/>
<path d="M101.72 8.38226H103.817V9.17549H102.445V9.87595H103.666V10.6645H102.445V11.4902H103.817V12.2974H101.72V8.38226Z" fill="#140F31"/>
</g>
<defs>
<clipPath id="clip0_2461_7363">
<rect width="104" height="54" fill="white"/>
</clipPath>
</defs>
</svg>
