<svg width="104" height="54" viewBox="0 0 104 54" fill="none" xmlns="http://www.w3.org/2000/svg">
<g clip-path="url(#clip0_2476_25866)">
<path d="M24.061 17.2842H33.125V53.2811H24.0447V49.0227C23.1433 50.6292 21.8338 51.8848 20.2904 52.6224C18.5449 53.548 16.6414 54.0232 14.716 54.014C12.0724 54.0332 9.48273 53.1617 7.27261 51.5091C4.99181 49.8169 3.14783 47.4633 1.9303 44.6901C0.622761 41.7716 -0.0450507 38.5359 -0.0160628 35.2594C-0.0160628 30.0609 1.41317 25.6479 4.27163 22.0203C7.13009 18.3928 10.617 16.5744 14.7323 16.5651C16.6527 16.5536 18.5513 17.029 20.2904 17.9568C22.0305 18.8845 23.2873 20.0782 24.061 21.5379V17.2842ZM16.7316 44.1891C18.2314 44.1971 19.7079 43.7658 21.0193 42.9366C22.2639 42.1897 23.31 41.0764 24.0488 39.7126V30.899C23.3193 29.5138 22.2775 28.3765 21.0315 27.6054C19.7263 26.7551 18.2474 26.3119 16.7438 26.3205C15.6975 26.2934 14.6571 26.5047 13.6835 26.942C12.7099 27.3794 11.8229 28.034 11.0745 28.8674C10.3261 29.7008 9.73144 30.6962 9.32545 31.795C8.91946 32.8939 8.71032 34.0741 8.71032 35.2664C8.71032 36.4586 8.91946 37.6388 9.32545 38.7377C9.73144 39.8366 10.3261 40.8319 11.0745 41.6653C11.8229 42.4987 12.7099 43.1533 13.6835 43.5907C14.6571 44.0281 15.6975 44.2394 16.7438 44.2123L16.7316 44.1891Z" fill="#E9EEF7"/>
<path d="M47.5352 15.1688V17.2841H55.2921V27.1415H47.5352V53.2996H38.4549V27.1415H35.3887V17.2841H38.4549V14.6679C38.4549 10.0878 39.6126 6.49742 41.9282 3.89661C44.2437 1.29581 47.2814 -0.00304956 51.0411 4.29603e-05C52.645 -0.0389412 54.2355 0.340273 55.6912 1.10871L55.2188 10.1961C54.2966 9.86022 53.3365 9.67896 52.3685 9.65797C51.7321 9.64156 51.0992 9.76923 50.5065 10.0336C49.9137 10.298 49.373 10.6938 48.9155 11.198C48.4537 11.7125 48.0921 12.3319 47.8543 13.016C47.6164 13.7002 47.5077 14.4337 47.5352 15.1688Z" fill="#E9EEF7"/>
<path d="M91.0881 16.5651C94.8885 16.5651 97.9872 17.884 100.384 20.522C102.781 23.1599 103.986 26.625 104 30.9175V53.281H94.8586V33.0652C94.8586 30.919 94.3659 29.2181 93.3805 27.9626C92.8752 27.3393 92.2559 26.85 91.5664 26.5294C90.8768 26.2088 90.1339 26.0646 89.3901 26.1071C88.2437 26.1205 87.1237 26.4998 86.157 27.2018C85.1631 27.8701 84.3316 28.8109 83.7383 29.9387V53.3042H74.658V33.0652C74.658 30.9407 74.1612 29.2398 73.1677 27.9626C72.6967 27.35 72.1135 26.8627 71.4592 26.5349C70.8049 26.207 70.0954 26.0468 69.3808 26.0653C68.1495 26.0447 66.9392 26.4297 65.8953 27.174C64.8976 27.879 64.1011 28.8992 63.6028 30.1103V53.2624H54.5225V17.2841H63.6028V21.3987C64.5389 19.9449 65.7659 18.7665 67.182 17.9614C68.867 16.9985 70.7334 16.5206 72.618 16.5697C76.6899 16.5697 79.6216 18.2521 81.4133 21.6167C82.5676 20.1165 83.978 18.8996 85.5584 18.0402C87.2743 17.0604 89.1687 16.5551 91.0881 16.5651Z" fill="#E9EEF7"/>
<path d="M74.1531 12.2975L73.9373 11.648H72.622L72.4021 12.2975H71.6326L72.9926 8.40088H73.5789L74.943 12.2975H74.1531ZM72.8541 10.9058H73.697L73.2898 9.66263L72.8541 10.9058Z" fill="#E9EEF7"/>
<path d="M76.5311 8.38215C76.8324 8.37472 77.1245 8.50115 77.3455 8.73469C77.4531 8.84866 77.5382 8.98746 77.5951 9.14183C77.652 9.29621 77.6793 9.46262 77.6753 9.62998C77.6824 9.80258 77.6565 9.97487 77.5996 10.135C77.5427 10.2952 77.456 10.4394 77.3455 10.5577C77.1259 10.7942 76.8332 10.9226 76.5311 10.9149H75.9488V12.3066H75.2281V8.40998L76.5311 8.38215ZM76.5311 10.1031C76.6458 10.1064 76.757 10.0581 76.8406 9.96861C76.88 9.92456 76.9112 9.87182 76.9322 9.8136C76.9532 9.75539 76.9636 9.69291 76.9627 9.62998C76.9642 9.56901 76.954 9.50842 76.9329 9.45236C76.9118 9.39631 76.8803 9.34612 76.8406 9.30526C76.7563 9.21745 76.6452 9.1708 76.5311 9.17538H75.9488V10.1031H76.5311Z" fill="#E9EEF7"/>
<path d="M79.3732 8.38215C79.6746 8.37472 79.9667 8.50115 80.1876 8.73469C80.2947 8.84889 80.3792 8.98784 80.4354 9.14224C80.4916 9.29664 80.5182 9.46293 80.5134 9.62998C80.5212 9.80226 80.4962 9.97443 80.4399 10.1346C80.3837 10.2948 80.2976 10.4392 80.1876 10.5577C79.968 10.7942 79.6754 10.9226 79.3732 10.9149H78.791V12.3066H78.0703V8.40998L79.3732 8.38215ZM79.3732 10.1031C79.4294 10.1047 79.4853 10.0936 79.5377 10.0705C79.5901 10.0474 79.638 10.0128 79.6786 9.96861C79.7188 9.92496 79.7508 9.87239 79.7725 9.81416C79.7942 9.75592 79.8052 9.69325 79.8049 9.62998C79.8067 9.56852 79.7962 9.50739 79.7744 9.45116C79.7525 9.39494 79.7198 9.34506 79.6786 9.30526C79.6383 9.26082 79.5904 9.22634 79.5379 9.20399C79.4853 9.18164 79.4293 9.17189 79.3732 9.17538H78.791V10.1031H79.3732Z" fill="#E9EEF7"/>
<path d="M80.9124 8.38232H81.6331V11.4903H83.209V12.2975H80.9206L80.9124 8.38232Z" fill="#E9EEF7"/>
<path d="M82.6267 8.38232H83.5144L84.2717 9.77396L85.0291 8.38232H85.872L84.626 10.6321V12.2975H83.9012V10.6321L82.6267 8.38232Z" fill="#E9EEF7"/>
<path d="M87.1709 8.38232H89.2679V9.17555H87.8957V9.97806H89.1173V10.7667H87.8957V12.2975H87.1709V8.38232Z" fill="#E9EEF7"/>
<path d="M90.3632 8.58644C90.6341 8.40833 90.9423 8.31697 91.255 8.32203C91.5745 8.31392 91.8899 8.40534 92.1671 8.58644C92.4306 8.75517 92.6478 9.00413 92.7942 9.30545C92.9438 9.61858 93.0223 9.96944 93.0223 10.326C93.0223 10.6825 92.9438 11.0334 92.7942 11.3465C92.6469 11.6495 92.4302 11.9012 92.1671 12.0748C91.8947 12.2482 91.5874 12.3377 91.2753 12.3346C90.9632 12.339 90.6556 12.2494 90.3836 12.0748C90.1097 11.9154 89.881 11.671 89.724 11.3697C89.5743 11.0566 89.4958 10.7057 89.4958 10.3492C89.4958 9.99263 89.5743 9.64177 89.724 9.32864C89.8706 9.01689 90.0924 8.75937 90.3632 8.58644ZM91.9676 9.46781C91.8746 9.3591 91.7635 9.2727 91.6408 9.2137C91.518 9.15471 91.3862 9.12432 91.253 9.12432C91.1197 9.12432 90.9879 9.15471 90.8651 9.2137C90.7424 9.2727 90.6313 9.3591 90.5383 9.46781C90.3526 9.70358 90.2499 10.0092 90.2499 10.326C90.2499 10.6428 90.3526 10.9484 90.5383 11.1842C90.6307 11.294 90.7416 11.3815 90.8644 11.4412C90.9873 11.5009 91.1194 11.5317 91.253 11.5317C91.3865 11.5317 91.5187 11.5009 91.6415 11.4412C91.7643 11.3815 91.8752 11.294 91.9676 11.1842C92.1533 10.9484 92.256 10.6428 92.256 10.326C92.256 10.0092 92.1533 9.70358 91.9676 9.46781Z" fill="#E9EEF7"/>
<path d="M96.1698 12.2975H95.2862L94.5166 10.813H94.1461V12.2975H93.4213V8.40088H94.7406C94.9277 8.40275 95.1114 8.45861 95.2745 8.56326C95.4375 8.6679 95.5746 8.81791 95.673 8.99928C95.77 9.18264 95.8207 9.3929 95.8196 9.60696C95.8239 9.83465 95.7732 10.0593 95.673 10.2564C95.5796 10.4434 95.4372 10.5926 95.2658 10.6832L96.1698 12.2975ZM94.1338 9.19875V10.0987H94.655C94.7097 10.1009 94.7642 10.0905 94.8153 10.0682C94.8664 10.0459 94.9129 10.0121 94.9523 9.96879C94.9918 9.92774 95.0232 9.87751 95.0443 9.8215C95.0653 9.76549 95.0756 9.70499 95.0745 9.64407C95.0755 9.58452 95.0651 9.52543 95.044 9.47094C95.0229 9.41645 94.9916 9.36788 94.9523 9.32863C94.9129 9.28535 94.8664 9.25154 94.8153 9.22922C94.7642 9.20691 94.7097 9.19654 94.655 9.19875H94.1338Z" fill="#E9EEF7"/>
<path d="M97.5054 12.2975V8.40088H98.3808L99.3988 11.0867L100.466 8.40088H101.203V12.2975H100.478V9.97806L99.6024 12.2975H99.0893L98.2261 9.97806V12.2975H97.5054Z" fill="#E9EEF7"/>
<path d="M101.72 8.38232H103.817V9.17555H102.445V9.87601H103.666V10.6646H102.445V11.4903H103.817V12.2975H101.72V8.38232Z" fill="#E9EEF7"/>
</g>
<defs>
<clipPath id="clip0_2476_25866">
<rect width="104" height="54" fill="white"/>
</clipPath>
</defs>
</svg>
