<svg width="20" height="18" viewBox="0 0 20 18" fill="none" xmlns="http://www.w3.org/2000/svg">
<path d="M13.8947 11H13.0631L12.7684 10.73C13.8 9.59 14.421 8.11 14.421 6.5C14.421 2.91 11.3579 0 7.57892 0C3.79997 0 0.736816 2.91 0.736816 6.5C0.736816 10.09 3.79997 13 7.57892 13C9.27366 13 10.8316 12.41 12.0316 11.43L12.3158 11.71V12.5L17.5789 17.49L19.1473 16L13.8947 11V11ZM7.57892 11C4.95787 11 2.84208 8.99 2.84208 6.5C2.84208 4.01 4.95787 2 7.57892 2C10.2 2 12.3158 4.01 12.3158 6.5C12.3158 8.99 10.2 11 7.57892 11Z" fill="#ADADAD"/>
</svg>
