<svg width="20" height="22" viewBox="0 0 20 22" fill="none" xmlns="http://www.w3.org/2000/svg">
<path d="M20 4.79L15.4 0.93L14.11 2.46L18.71 6.32L20 4.79ZM5.88 2.46L4.6 0.93L0 4.78L1.29 6.31L5.88 2.46ZM10.5 7.07H9V13.07L13.75 15.92L14.5 14.69L10.5 12.32V7.07ZM10 3.07C5.03 3.07 1 7.1 1 12.07C1 17.04 5.02 21.07 10 21.07C14.97 21.07 19 17.04 19 12.07C19 7.1 14.97 3.07 10 3.07ZM10 19.07C6.13 19.07 3 15.94 3 12.07C3 8.2 6.13 5.07 10 5.07C13.87 5.07 17 8.2 17 12.07C17 15.94 13.87 19.07 10 19.07Z" fill="black"/>
</svg>
