<svg width="93" height="48" viewBox="0 0 93 48" fill="none" xmlns="http://www.w3.org/2000/svg">
<g clip-path="url(#clip0_1593_27043)">
<path d="M21.5161 15.3636H29.6214V47.3609H21.5016V43.5756C20.6955 45.0037 19.5245 46.1198 18.1444 46.7754C16.5834 47.5982 14.8813 48.0206 13.1595 48.0124C10.7955 48.0295 8.47978 47.2548 6.50343 45.7858C4.46387 44.2817 2.81492 42.1895 1.72617 39.7244C0.556929 37.1302 -0.0402493 34.254 -0.0143275 31.3416C-0.0143275 26.7207 1.26373 22.7981 3.81986 19.5736C6.37598 16.3491 9.49407 14.7328 13.1741 14.7245C14.8914 14.7142 16.5891 15.1368 18.1444 15.9615C19.7004 16.7862 20.8243 17.8473 21.5161 19.1448V15.3636ZM14.9619 39.2791C16.3031 39.2862 17.6234 38.9029 18.7961 38.1658C19.9091 37.5019 20.8445 36.5123 21.5052 35.3001V27.4657C20.8529 26.2344 19.9212 25.2235 18.8071 24.5381C17.6399 23.7823 16.3174 23.3883 14.9729 23.3959C14.0373 23.3718 13.1068 23.5597 12.2362 23.9484C11.3656 24.3372 10.5724 24.9191 9.90318 25.6599C9.23395 26.4007 8.70219 27.2854 8.33914 28.2622C7.97609 29.239 7.78907 30.2881 7.78907 31.3478C7.78907 32.4076 7.97609 33.4567 8.33914 34.4335C8.70219 35.4102 9.23395 36.295 9.90318 37.0358C10.5724 37.7766 11.3656 38.3585 12.2362 38.7472C13.1068 39.136 14.0373 39.3239 14.9729 39.2997L14.9619 39.2791Z" fill="white"/>
<path d="M42.5075 13.4834V15.3636H49.444V24.1258H42.5075V47.3774H34.3876V24.1258H31.6458V15.3636H34.3876V13.0381C34.3876 8.96694 35.4229 5.77546 37.4935 3.46363C39.5642 1.1518 42.2805 -0.00273445 45.6425 1.44511e-05C47.0768 -0.0346382 48.4991 0.302441 49.8008 0.985497L49.3784 9.06315C48.5538 8.76462 47.6952 8.60349 46.8296 8.58484C46.2605 8.57025 45.6945 8.68374 45.1645 8.91874C44.6345 9.15373 44.1509 9.50555 43.7418 9.9538C43.3288 10.4111 43.0055 10.9617 42.7928 11.5698C42.5801 12.1779 42.4829 12.8299 42.5075 13.4834Z" fill="white"/>
<path d="M81.4538 14.7245C84.8522 14.7245 87.6232 15.8969 89.7666 18.2417C91.9101 20.5865 92.9879 23.6667 93 27.4822V47.3609H84.8255V29.3913C84.8255 27.4835 84.3849 25.9716 83.5038 24.8556C83.0519 24.3016 82.4981 23.8667 81.8815 23.5817C81.2649 23.2967 80.6005 23.1685 79.9354 23.2062C78.9103 23.2182 77.9087 23.5553 77.0443 24.1794C76.1555 24.7734 75.412 25.6097 74.8814 26.6121V47.3815H66.7615V29.3913C66.7615 27.5028 66.3173 25.9909 65.4288 24.8556C65.0077 24.3111 64.4861 23.8779 63.901 23.5865C63.3159 23.2951 62.6815 23.1526 62.0425 23.1691C60.9414 23.1508 59.8591 23.493 58.9256 24.1546C58.0334 24.7813 57.3212 25.6881 56.8756 26.7647V47.3444H48.7557V15.3636H56.8756V19.021C57.7127 17.7287 58.8099 16.6813 60.0763 15.9656C61.583 15.1097 63.252 14.685 64.9373 14.7286C68.5785 14.7286 71.2001 16.224 72.8023 19.2148C73.8345 17.8813 75.0957 16.7996 76.509 16.0357C78.0434 15.1648 79.7374 14.7156 81.4538 14.7245Z" fill="white"/>
<path d="M66.3099 10.931L66.117 10.3538H64.9408L64.7442 10.931H64.056L65.2722 7.46741H65.7965L67.0163 10.931H66.3099ZM65.1484 9.69402H65.9021L65.538 8.58896L65.1484 9.69402Z" fill="#F7F7F8"/>
<path d="M68.4364 7.4509C68.7059 7.44429 68.9671 7.55668 69.1647 7.76427C69.2609 7.86558 69.337 7.98895 69.3879 8.12617C69.4387 8.2634 69.4632 8.41132 69.4596 8.56008C69.4659 8.7135 69.4428 8.86665 69.3919 9.00901C69.341 9.15137 69.2635 9.27955 69.1647 9.38475C68.9683 9.59499 68.7066 9.70906 68.4364 9.70225H67.9157V10.9393H67.2712V7.47564L68.4364 7.4509ZM68.4364 8.98066C68.539 8.98361 68.6384 8.94065 68.7132 8.86109C68.7484 8.82193 68.7763 8.77505 68.7951 8.72331C68.8139 8.67156 68.8232 8.61602 68.8224 8.56008C68.8237 8.50589 68.8146 8.45203 68.7957 8.4022C68.7769 8.35237 68.7487 8.30777 68.7132 8.27145C68.6378 8.19339 68.5385 8.15193 68.4364 8.15599H67.9157V8.98066H68.4364Z" fill="#F7F7F8"/>
<path d="M70.978 7.4509C71.2475 7.44429 71.5087 7.55668 71.7063 7.76427C71.8021 7.86578 71.8776 7.98929 71.9279 8.12654C71.9781 8.26378 72.0019 8.41159 71.9976 8.56008C72.0046 8.71322 71.9822 8.86627 71.9319 9.00865C71.8816 9.15102 71.8046 9.27935 71.7063 9.38475C71.5099 9.59499 71.2482 9.70906 70.978 9.70225H70.4574V10.9393H69.8129V7.47564L70.978 7.4509ZM70.978 8.98066C71.0283 8.98203 71.0782 8.97217 71.1251 8.95165C71.172 8.93113 71.2148 8.90036 71.2511 8.86109C71.2871 8.82228 71.3156 8.77556 71.3351 8.7238C71.3545 8.67203 71.3643 8.61632 71.364 8.56008C71.3656 8.50545 71.3563 8.45112 71.3368 8.40114C71.3172 8.35116 71.2879 8.30682 71.2511 8.27145C71.2151 8.23194 71.1722 8.20129 71.1252 8.18142C71.0783 8.16156 71.0281 8.1529 70.978 8.15599H70.4574V8.98066H70.978Z" fill="#F7F7F8"/>
<path d="M72.3544 7.4509H72.9989V10.2135H74.408V10.931H72.3617L72.3544 7.4509Z" fill="#F7F7F8"/>
<path d="M73.8873 7.4509H74.6811L75.3584 8.6879L76.0356 7.4509H76.7894L75.6752 9.45073V10.931H75.027V9.45073L73.8873 7.4509Z" fill="#F7F7F8"/>
<path d="M77.9509 7.4509H79.8261V8.15599H78.5991V8.86933H79.6914V9.5703H78.5991V10.931H77.9509V7.4509Z" fill="#F7F7F8"/>
<path d="M80.8056 7.63232C81.0478 7.474 81.3233 7.39279 81.603 7.39729C81.8887 7.39008 82.1707 7.47135 82.4186 7.63232C82.6543 7.7823 82.8484 8.0036 82.9794 8.27144C83.1132 8.54978 83.1833 8.86165 83.1833 9.17858C83.1833 9.49551 83.1132 9.80739 82.9794 10.0857C82.8477 10.3551 82.6539 10.5788 82.4186 10.7331C82.175 10.8872 81.9002 10.9668 81.6212 10.964C81.3421 10.9679 81.067 10.8883 80.8238 10.7331C80.5788 10.5914 80.3743 10.3741 80.2339 10.1063C80.1 9.828 80.0299 9.51613 80.0299 9.1992C80.0299 8.88227 80.1 8.57039 80.2339 8.29206C80.365 8.01494 80.5634 7.78604 80.8056 7.63232ZM82.2402 8.41576C82.1571 8.31913 82.0577 8.24233 81.948 8.18989C81.8382 8.13745 81.7203 8.11044 81.6012 8.11044C81.482 8.11044 81.3641 8.13745 81.2544 8.18989C81.1446 8.24233 81.0453 8.31913 80.9621 8.41576C80.7961 8.62534 80.7042 8.897 80.7042 9.17858C80.7042 9.46017 80.7961 9.73183 80.9621 9.9414C81.0447 10.0391 81.1439 10.1168 81.2537 10.1699C81.3636 10.223 81.4818 10.2504 81.6012 10.2504C81.7206 10.2504 81.8388 10.223 81.9486 10.1699C82.0584 10.1168 82.1576 10.0391 82.2402 9.9414C82.4063 9.73183 82.4981 9.46017 82.4981 9.17858C82.4981 8.897 82.4063 8.62534 82.2402 8.41576Z" fill="#F7F7F8"/>
<path d="M85.998 10.931H85.2078L84.5196 9.61155H84.1883V10.931H83.5402V7.46741H84.7199C84.8873 7.46907 85.0515 7.51873 85.1973 7.61174C85.3432 7.70476 85.4658 7.8381 85.5537 7.99932C85.6405 8.16231 85.6858 8.3492 85.6848 8.53948C85.6887 8.74187 85.6433 8.94156 85.5537 9.11675C85.4702 9.28302 85.3429 9.41562 85.1896 9.4961L85.998 10.931ZM84.1774 8.17663V8.97656H84.6434C84.6923 8.97852 84.7411 8.9693 84.7867 8.94947C84.8324 8.92963 84.8741 8.89958 84.9093 8.8611C84.9446 8.82461 84.9726 8.77997 84.9915 8.73019C85.0103 8.6804 85.0195 8.62662 85.0185 8.57247C85.0195 8.51954 85.0102 8.46701 84.9913 8.41857C84.9724 8.37014 84.9444 8.32696 84.9093 8.29208C84.8741 8.2536 84.8324 8.22355 84.7867 8.20371C84.7411 8.18388 84.6923 8.17467 84.6434 8.17663H84.1774Z" fill="#F7F7F8"/>
<path d="M87.1923 10.931V7.46741H87.9751L88.8854 9.85483L89.8394 7.46741H90.4985V10.931H89.8503V8.86935L89.0675 10.931H88.6087L87.8368 8.86935V10.931H87.1923Z" fill="#F7F7F8"/>
<path d="M90.9609 7.4509H92.8362V8.15599H91.6091V8.77862H92.7014V9.47959H91.6091V10.2135H92.8362V10.931H90.9609V7.4509Z" fill="#F7F7F8"/>
</g>
<defs>
<clipPath id="clip0_1593_27043">
<rect width="93" height="48" fill="white"/>
</clipPath>
</defs>
</svg>
