<svg width="30" height="24" viewBox="0 0 30 24" fill="none" xmlns="http://www.w3.org/2000/svg">
<g clip-path="url(#clip0_36_225)">
<path d="M29.5457 2.84287C28.723 4.06666 27.7136 5.10989 26.5176 5.97254C26.5294 6.2039 26.5353 6.4654 26.5353 6.75703C26.5353 8.3774 26.2991 9.99973 25.8266 11.624C25.3541 13.2483 24.6324 14.8031 23.6614 16.2882C22.6905 17.7734 21.5339 19.0892 20.1916 20.2355C18.8494 21.3818 17.236 22.2958 15.3514 22.9775C13.4668 23.6592 11.447 24 9.29202 24C5.92882 24 2.83164 23.0921 0.000488281 21.2762C0.502984 21.3321 0.98492 21.3601 1.4463 21.3601C4.25598 21.3601 6.76547 20.4947 8.97478 18.7638C7.66475 18.7398 6.49152 18.3365 5.45509 17.554C4.41866 16.7715 3.70541 15.7716 3.31534 14.5543C3.7009 14.6277 4.08142 14.6645 4.45693 14.6645C4.99744 14.6645 5.5293 14.594 6.0525 14.453C4.65445 14.173 3.49465 13.4766 2.5731 12.364C1.65158 11.2514 1.19082 9.9672 1.19082 8.51146V8.43643C2.04894 8.91157 2.96427 9.1643 3.9368 9.19464C3.10861 8.64251 2.45198 7.92252 1.9669 7.03466C1.4818 6.14681 1.23925 5.18599 1.23925 4.15222C1.23925 3.06193 1.51246 2.04666 2.05887 1.10642C3.57922 2.97214 5.42145 4.46327 7.58554 5.57983C9.74967 6.69641 12.0714 7.31652 14.5506 7.44017C14.4449 6.99948 14.3919 6.5396 14.3917 6.06053C14.3917 4.38779 14.9837 2.95952 16.1676 1.77571C17.3515 0.591904 18.7798 0 20.4526 0C22.2039 0 23.679 0.637688 24.878 1.91306C26.2479 1.64172 27.5305 1.15093 28.726 0.440688C28.2654 1.89013 27.3779 3.00827 26.0636 3.79512C27.2716 3.65157 28.4323 3.33415 29.5457 2.84287H29.5457Z" fill="white"/>
</g>
<defs>
<clipPath id="clip0_36_225">
<rect width="29.5467" height="24" fill="white"/>
</clipPath>
</defs>
</svg>
