<svg width="104" height="54" viewBox="0 0 104 54" fill="none" xmlns="http://www.w3.org/2000/svg">
<g clip-path="url(#clip0_36_195)">
<path d="M24.061 17.284H33.125V53.2809H24.0447V49.0225C23.1433 50.6291 21.8338 51.8847 20.2904 52.6222C18.5449 53.5479 16.6414 54.0231 14.716 54.0139C12.0724 54.0331 9.48273 53.1616 7.27261 51.5089C4.99181 49.8168 3.14783 47.4631 1.9303 44.6899C0.622761 41.7715 -0.0450507 38.5357 -0.0160628 35.2593C-0.0160628 30.0608 1.41317 25.6478 4.27163 22.0202C7.13009 18.3927 10.617 16.5743 14.7323 16.565C16.6527 16.5535 18.5513 17.0288 20.2904 17.9567C22.0305 18.8844 23.2873 20.0781 24.061 21.5378V17.284ZM16.7316 44.1889C18.2314 44.197 19.7079 43.7657 21.0193 42.9365C22.2639 42.1895 23.31 41.0763 24.0488 39.7125V30.8988C23.3193 29.5136 22.2775 28.3764 21.0315 27.6053C19.7263 26.755 18.2474 26.3118 16.7438 26.3204C15.6975 26.2932 14.6571 26.5046 13.6835 26.9419C12.7099 27.3793 11.8229 28.0339 11.0745 28.8673C10.3261 29.7007 9.73144 30.6961 9.32545 31.7949C8.91946 32.8938 8.71032 34.074 8.71032 35.2663C8.71032 36.4585 8.91946 37.6387 9.32545 38.7376C9.73144 39.8365 10.3261 40.8318 11.0745 41.6652C11.8229 42.4986 12.7099 43.1532 13.6835 43.5906C14.6571 44.028 15.6975 44.2393 16.7438 44.2121L16.7316 44.1889Z" fill="#E9EEF7"/>
<path d="M47.5352 15.1688V17.2841H55.2922V27.1415H47.5352V53.2996H38.4549V27.1415H35.3888V17.2841H38.4549V14.6679C38.4549 10.0878 39.6127 6.49742 41.9282 3.89661C44.2438 1.29581 47.2814 -0.00304956 51.0411 4.29603e-05C52.6451 -0.0389412 54.2356 0.340273 55.6912 1.10871L55.2189 10.1961C54.2967 9.86022 53.3365 9.67896 52.3686 9.65797C51.7322 9.64156 51.0993 9.76923 50.5065 10.0336C49.9138 10.298 49.373 10.6938 48.9156 11.198C48.4538 11.7125 48.0922 12.3319 47.8543 13.016C47.6165 13.7002 47.5078 14.4337 47.5352 15.1688Z" fill="#E9EEF7"/>
<path d="M91.0881 16.5651C94.8885 16.5651 97.9872 17.884 100.384 20.522C102.781 23.1599 103.986 26.625 104 30.9175V53.281H94.8587V33.0652C94.8587 30.919 94.366 29.2181 93.3806 27.9626C92.8753 27.3393 92.256 26.85 91.5664 26.5294C90.8769 26.2088 90.134 26.0646 89.3901 26.1071C88.2438 26.1205 87.1237 26.4998 86.1571 27.2018C85.1632 27.8701 84.3317 28.8109 83.7384 29.9387V53.3042H74.6581V33.0652C74.6581 30.9407 74.1613 29.2398 73.1677 27.9626C72.6968 27.35 72.1136 26.8627 71.4593 26.5349C70.805 26.207 70.0955 26.0468 69.3809 26.0653C68.1496 26.0447 66.9392 26.4297 65.8954 27.174C64.8976 27.879 64.1012 28.8992 63.6029 30.1103V53.2624H54.5226V17.2841H63.6029V21.3987C64.5389 19.9449 65.766 18.7665 67.1821 17.9614C68.867 16.9985 70.7335 16.5206 72.618 16.5697C76.6899 16.5697 79.6217 18.2521 81.4133 21.6167C82.5677 20.1165 83.978 18.8996 85.5585 18.0402C87.2744 17.0604 89.1688 16.5551 91.0881 16.5651Z" fill="#E9EEF7"/>
<path d="M74.1531 12.2975L73.9373 11.648H72.622L72.4021 12.2975H71.6326L72.9926 8.40088H73.5789L74.943 12.2975H74.1531ZM72.8541 10.9058H73.697L73.2898 9.66263L72.8541 10.9058Z" fill="#E9EEF7"/>
<path d="M76.531 8.38227C76.8324 8.37484 77.1244 8.50127 77.3454 8.73482C77.4531 8.84878 77.5382 8.98758 77.595 9.14195C77.6519 9.29633 77.6792 9.46274 77.6752 9.6301C77.6823 9.8027 77.6565 9.97499 77.5995 10.1351C77.5426 10.2953 77.4559 10.4395 77.3454 10.5579C77.1258 10.7944 76.8332 10.9227 76.531 10.915H75.9488V12.3067H75.228V8.4101L76.531 8.38227ZM76.531 10.1033C76.6457 10.1066 76.7569 10.0582 76.8405 9.96873C76.88 9.92468 76.9111 9.87194 76.9321 9.81373C76.9531 9.75551 76.9635 9.69303 76.9627 9.6301C76.9641 9.56914 76.9539 9.50854 76.9328 9.45248C76.9117 9.39643 76.8802 9.34625 76.8405 9.30539C76.7563 9.21757 76.6451 9.17093 76.531 9.1755H75.9488V10.1033H76.531Z" fill="#E9EEF7"/>
<path d="M79.3732 8.38227C79.6745 8.37484 79.9666 8.50127 80.1876 8.73482C80.2947 8.84901 80.3792 8.98796 80.4354 9.14236C80.4915 9.29676 80.5181 9.46305 80.5133 9.6301C80.5212 9.80238 80.4961 9.97456 80.4399 10.1347C80.3836 10.2949 80.2975 10.4393 80.1876 10.5579C79.9679 10.7944 79.6753 10.9227 79.3732 10.915H78.7909V12.3067H78.0702V8.4101L79.3732 8.38227ZM79.3732 10.1033C79.4294 10.1048 79.4852 10.0937 79.5376 10.0706C79.59 10.0475 79.6379 10.0129 79.6786 9.96873C79.7188 9.92508 79.7507 9.87252 79.7724 9.81428C79.7941 9.75605 79.8052 9.69337 79.8048 9.6301C79.8066 9.56864 79.7962 9.50751 79.7743 9.45129C79.7525 9.39506 79.7197 9.34518 79.6786 9.30539C79.6383 9.26094 79.5904 9.22646 79.5378 9.20411C79.4852 9.18176 79.4292 9.17202 79.3732 9.1755H78.7909V10.1033H79.3732Z" fill="#E9EEF7"/>
<path d="M80.9124 8.38232H81.6331V11.4903H83.2089V12.2975H80.9205L80.9124 8.38232Z" fill="#E9EEF7"/>
<path d="M82.6267 8.38232H83.5144L84.2717 9.77396L85.0291 8.38232H85.872L84.626 10.6321V12.2975H83.9012V10.6321L82.6267 8.38232Z" fill="#E9EEF7"/>
<path d="M87.1709 8.38232H89.2679V9.17555H87.8957V9.97806H89.1173V10.7667H87.8957V12.2975H87.1709V8.38232Z" fill="#E9EEF7"/>
<path d="M90.3632 8.58632C90.6341 8.40821 90.9423 8.31685 91.255 8.32191C91.5745 8.31379 91.8899 8.40522 92.1671 8.58632C92.4306 8.75505 92.6478 9.00401 92.7942 9.30533C92.9438 9.61845 93.0223 9.96931 93.0223 10.3259C93.0223 10.6824 92.9438 11.0333 92.7942 11.3464C92.6469 11.6494 92.4302 11.9011 92.1671 12.0747C91.8947 12.2481 91.5874 12.3376 91.2753 12.3345C90.9632 12.3389 90.6556 12.2493 90.3836 12.0747C90.1097 11.9153 89.881 11.6709 89.724 11.3696C89.5743 11.0565 89.4958 10.7056 89.4958 10.3491C89.4958 9.99251 89.5743 9.64165 89.724 9.32852C89.8706 9.01676 90.0924 8.75925 90.3632 8.58632ZM91.9676 9.46769C91.8746 9.35898 91.7635 9.27258 91.6408 9.21358C91.518 9.15459 91.3862 9.12419 91.253 9.12419C91.1197 9.12419 90.9879 9.15459 90.8651 9.21358C90.7424 9.27258 90.6313 9.35898 90.5383 9.46769C90.3526 9.70346 90.2499 10.0091 90.2499 10.3259C90.2499 10.6426 90.3526 10.9483 90.5383 11.184C90.6307 11.2939 90.7416 11.3813 90.8644 11.4411C90.9873 11.5008 91.1194 11.5316 91.253 11.5316C91.3865 11.5316 91.5187 11.5008 91.6415 11.4411C91.7643 11.3813 91.8752 11.2939 91.9676 11.184C92.1533 10.9483 92.256 10.6426 92.256 10.3259C92.256 10.0091 92.1533 9.70346 91.9676 9.46769Z" fill="#E9EEF7"/>
<path d="M96.1698 12.2975H95.2862L94.5166 10.813H94.1461V12.2975H93.4213V8.40088H94.7406C94.9277 8.40275 95.1114 8.45861 95.2745 8.56326C95.4375 8.6679 95.5746 8.81791 95.673 8.99928C95.77 9.18264 95.8207 9.3929 95.8196 9.60696C95.8239 9.83465 95.7732 10.0593 95.673 10.2564C95.5796 10.4434 95.4372 10.5926 95.2658 10.6832L96.1698 12.2975ZM94.1338 9.19875V10.0987H94.655C94.7097 10.1009 94.7642 10.0905 94.8153 10.0682C94.8664 10.0459 94.9129 10.0121 94.9523 9.96879C94.9918 9.92774 95.0232 9.87751 95.0443 9.8215C95.0653 9.76549 95.0756 9.70499 95.0745 9.64407C95.0755 9.58452 95.0651 9.52543 95.044 9.47094C95.0229 9.41645 94.9916 9.36788 94.9523 9.32863C94.9129 9.28535 94.8664 9.25154 94.8153 9.22922C94.7642 9.20691 94.7097 9.19654 94.655 9.19875H94.1338Z" fill="#E9EEF7"/>
<path d="M97.5054 12.2975V8.40088H98.3808L99.3988 11.0867L100.466 8.40088H101.203V12.2975H100.478V9.97806L99.6024 12.2975H99.0893L98.2261 9.97806V12.2975H97.5054Z" fill="#E9EEF7"/>
<path d="M101.72 8.38232H103.817V9.17555H102.445V9.87601H103.666V10.6646H102.445V11.4903H103.817V12.2975H101.72V8.38232Z" fill="#E9EEF7"/>
</g>
<defs>
<clipPath id="clip0_36_195">
<rect width="104" height="54" fill="white"/>
</clipPath>
</defs>
</svg>
