<svg width="105" height="54" viewBox="0 0 105 54" fill="none" xmlns="http://www.w3.org/2000/svg">
<g clip-path="url(#clip0_14_119)">
<path d="M24.5609 17.284H33.6249V53.2809H24.5446V49.0225C23.6432 50.6291 22.3337 51.8847 20.7903 52.6222C19.0447 53.5479 17.1413 54.0231 15.2159 54.0139C12.5722 54.0331 9.9826 53.1616 7.77249 51.5089C5.49169 49.8168 3.64771 47.4631 2.43018 44.6899C1.12264 41.7715 0.454827 38.5357 0.483815 35.2593C0.483815 30.0608 1.91305 25.6478 4.77151 22.0202C7.62997 18.3927 11.1169 16.5743 15.2322 16.565C17.1526 16.5535 19.0511 17.0288 20.7903 17.9567C22.5304 18.8844 23.7872 20.0781 24.5609 21.5378V17.284ZM17.2315 44.1889C18.7313 44.197 20.2078 43.7657 21.5192 42.9365C22.7637 42.1895 23.8099 41.0763 24.5486 39.7125V30.8988C23.8192 29.5136 22.7773 28.3764 21.5314 27.6053C20.2262 26.755 18.7472 26.3118 17.2437 26.3204C16.1974 26.2932 15.1569 26.5046 14.1834 26.9419C13.2098 27.3793 12.3228 28.0339 11.5744 28.8673C10.826 29.7007 10.2313 30.6961 9.82533 31.7949C9.41934 32.8938 9.2102 34.074 9.2102 35.2663C9.2102 36.4585 9.41934 37.6387 9.82533 38.7376C10.2313 39.8365 10.826 40.8318 11.5744 41.6652C12.3228 42.4986 13.2098 43.1532 14.1834 43.5906C15.1569 44.028 16.1974 44.2393 17.2437 44.2121L17.2315 44.1889Z" fill="#2E3192"/>
<path d="M48.0351 15.1688V17.2841H55.792V27.1415H48.0351V53.2996H38.9548V27.1415H35.8887V17.2841H38.9548V14.6679C38.9548 10.0878 40.1126 6.49742 42.4281 3.89661C44.7437 1.29581 47.7813 -0.00304956 51.541 4.29603e-05C53.1449 -0.0389412 54.7355 0.340273 56.1911 1.10871L55.7188 10.1961C54.7966 9.86022 53.8364 9.67896 52.8684 9.65797C52.2321 9.64156 51.5991 9.76923 51.0064 10.0336C50.4137 10.298 49.8729 10.6938 49.4155 11.198C48.9536 11.7125 48.592 12.3319 48.3542 13.016C48.1164 13.7002 48.0077 14.4337 48.0351 15.1688Z" fill="#2E3192"/>
<path d="M91.588 16.5651C95.3884 16.5651 98.4871 17.884 100.884 20.522C103.281 23.1599 104.486 26.625 104.5 30.9175V53.281H95.3586V33.0652C95.3586 30.919 94.8659 29.2181 93.8805 27.9626C93.3752 27.3393 92.7558 26.85 92.0663 26.5294C91.3768 26.2088 90.6338 26.0646 89.89 26.1071C88.7437 26.1205 87.6236 26.4998 86.6569 27.2018C85.663 27.8701 84.8316 28.8109 84.2382 29.9387V53.3042H75.1579V33.0652C75.1579 30.9407 74.6612 29.2398 73.6676 27.9626C73.1966 27.35 72.6134 26.8627 71.9591 26.5349C71.3048 26.207 70.5954 26.0468 69.8808 26.0653C68.6495 26.0447 67.4391 26.4297 66.3952 27.174C65.3975 27.879 64.6011 28.8992 64.1028 30.1103V53.2624H55.0225V17.2841H64.1028V21.3987C65.0388 19.9449 66.2659 18.7665 67.682 17.9614C69.3669 16.9985 71.2333 16.5206 73.1179 16.5697C77.1898 16.5697 80.1216 18.2521 81.9132 21.6167C83.0676 20.1165 84.4779 18.8996 86.0584 18.0402C87.7743 17.0604 89.6687 16.5551 91.588 16.5651Z" fill="#2E3192"/>
<path d="M74.6531 12.2975L74.4373 11.648H73.122L72.9021 12.2975H72.1326L73.4926 8.40088H74.0789L75.443 12.2975H74.6531ZM73.3541 10.9058H74.197L73.7898 9.66263L73.3541 10.9058Z" fill="#140F31"/>
<path d="M77.031 8.38227C77.3324 8.37484 77.6244 8.50127 77.8454 8.73482C77.9531 8.84878 78.0382 8.98758 78.095 9.14195C78.1519 9.29633 78.1792 9.46274 78.1752 9.6301C78.1823 9.8027 78.1565 9.97499 78.0995 10.1351C78.0426 10.2953 77.9559 10.4395 77.8454 10.5579C77.6258 10.7944 77.3332 10.9227 77.031 10.915H76.4488V12.3067H75.728V8.4101L77.031 8.38227ZM77.031 10.1033C77.1457 10.1066 77.2569 10.0582 77.3405 9.96873C77.38 9.92468 77.4111 9.87194 77.4321 9.81373C77.4531 9.75551 77.4635 9.69303 77.4627 9.6301C77.4641 9.56914 77.4539 9.50854 77.4328 9.45248C77.4117 9.39643 77.3802 9.34625 77.3405 9.30539C77.2563 9.21757 77.1451 9.17093 77.031 9.1755H76.4488V10.1033H77.031Z" fill="#140F31"/>
<path d="M79.8733 8.38227C80.1747 8.37484 80.4667 8.50127 80.6877 8.73482C80.7948 8.84901 80.8793 8.98796 80.9355 9.14236C80.9917 9.29676 81.0182 9.46305 81.0134 9.6301C81.0213 9.80238 80.9962 9.97456 80.94 10.1347C80.8838 10.2949 80.7977 10.4393 80.6877 10.5579C80.4681 10.7944 80.1754 10.9227 79.8733 10.915H79.291V12.3067H78.5703V8.4101L79.8733 8.38227ZM79.8733 10.1033C79.9295 10.1048 79.9854 10.0937 80.0378 10.0706C80.0902 10.0475 80.1381 10.0129 80.1787 9.96873C80.2189 9.92508 80.2508 9.87252 80.2725 9.81428C80.2943 9.75605 80.3053 9.69337 80.3049 9.6301C80.3067 9.56864 80.2963 9.50751 80.2744 9.45129C80.2526 9.39506 80.2198 9.34518 80.1787 9.30539C80.1384 9.26094 80.0905 9.22646 80.0379 9.20411C79.9854 9.18176 79.9293 9.17202 79.8733 9.1755H79.291V10.1033H79.8733Z" fill="#140F31"/>
<path d="M81.4124 8.38232H82.1331V11.4903H83.7089V12.2975H81.4205L81.4124 8.38232Z" fill="#140F31"/>
<path d="M83.1267 8.38232H84.0144L84.7717 9.77396L85.5291 8.38232H86.372L85.126 10.6321V12.2975H84.4012V10.6321L83.1267 8.38232Z" fill="#140F31"/>
<path d="M87.6709 8.38232H89.7679V9.17555H88.3957V9.97806H89.6173V10.7667H88.3957V12.2975H87.6709V8.38232Z" fill="#140F31"/>
<path d="M90.8632 8.58632C91.1341 8.40821 91.4423 8.31685 91.755 8.32191C92.0745 8.31379 92.3899 8.40522 92.6671 8.58632C92.9306 8.75505 93.1478 9.00401 93.2942 9.30533C93.4438 9.61845 93.5223 9.96931 93.5223 10.3259C93.5223 10.6824 93.4438 11.0333 93.2942 11.3464C93.1469 11.6494 92.9302 11.9011 92.6671 12.0747C92.3947 12.2481 92.0874 12.3376 91.7753 12.3345C91.4632 12.3389 91.1556 12.2493 90.8836 12.0747C90.6097 11.9153 90.381 11.6709 90.224 11.3696C90.0743 11.0565 89.9958 10.7056 89.9958 10.3491C89.9958 9.99251 90.0743 9.64165 90.224 9.32852C90.3706 9.01676 90.5924 8.75925 90.8632 8.58632ZM92.4676 9.46769C92.3746 9.35898 92.2635 9.27258 92.1408 9.21358C92.018 9.15459 91.8862 9.12419 91.753 9.12419C91.6197 9.12419 91.4879 9.15459 91.3651 9.21358C91.2424 9.27258 91.1313 9.35898 91.0383 9.46769C90.8526 9.70346 90.7499 10.0091 90.7499 10.3259C90.7499 10.6426 90.8526 10.9483 91.0383 11.184C91.1307 11.2939 91.2416 11.3813 91.3644 11.4411C91.4873 11.5008 91.6194 11.5316 91.753 11.5316C91.8865 11.5316 92.0187 11.5008 92.1415 11.4411C92.2643 11.3813 92.3752 11.2939 92.4676 11.184C92.6533 10.9483 92.756 10.6426 92.756 10.3259C92.756 10.0091 92.6533 9.70346 92.4676 9.46769Z" fill="#140F31"/>
<path d="M96.6697 12.2975H95.7861L95.0165 10.813H94.6459V12.2975H93.9211V8.40088H95.2404C95.4276 8.40275 95.6113 8.45861 95.7743 8.56326C95.9374 8.6679 96.0745 8.81791 96.1729 8.99928C96.2699 9.18264 96.3206 9.3929 96.3195 9.60696C96.3238 9.83465 96.273 10.0593 96.1729 10.2564C96.0794 10.4434 95.9371 10.5926 95.7657 10.6832L96.6697 12.2975ZM94.6337 9.19875V10.0987H95.1549C95.2096 10.1009 95.2641 10.0905 95.3152 10.0682C95.3662 10.0459 95.4128 10.0121 95.4522 9.96879C95.4917 9.92774 95.5231 9.87751 95.5441 9.8215C95.5652 9.76549 95.5755 9.70499 95.5743 9.64407C95.5754 9.58452 95.565 9.52543 95.5439 9.47094C95.5228 9.41645 95.4915 9.36788 95.4522 9.32863C95.4128 9.28535 95.3662 9.25154 95.3152 9.22922C95.2641 9.20691 95.2096 9.19654 95.1549 9.19875H94.6337Z" fill="#140F31"/>
<path d="M98.0054 12.2975V8.40088H98.8808L99.8988 11.0867L100.966 8.40088H101.703V12.2975H100.978V9.97806L100.102 12.2975H99.5893L98.7261 9.97806V12.2975H98.0054Z" fill="#140F31"/>
<path d="M102.22 8.38232H104.317V9.17555H102.945V9.87601H104.166V10.6646H102.945V11.4903H104.317V12.2975H102.22V8.38232Z" fill="#140F31"/>
</g>
<defs>
<clipPath id="clip0_14_119">
<rect width="104" height="54" fill="white" transform="translate(0.5)"/>
</clipPath>
</defs>
</svg>
