<svg width="21" height="20" viewBox="0 0 21 20" fill="none" xmlns="http://www.w3.org/2000/svg">
<path d="M12.5 4.49988V2.49988H8.5V4.49988H12.5ZM2.5 6.49988V17.4999H18.5V6.49988H2.5ZM18.5 4.49988C19.61 4.49988 20.5 5.38988 20.5 6.49988V17.4999C20.5 18.6099 19.61 19.4999 18.5 19.4999H2.5C1.39 19.4999 0.5 18.6099 0.5 17.4999L0.51 6.49988C0.51 5.38988 1.39 4.49988 2.5 4.49988H6.5V2.49988C6.5 1.38988 7.39 0.499878 8.5 0.499878H12.5C13.61 0.499878 14.5 1.38988 14.5 2.49988V4.49988H18.5Z" fill="#2E3192" fill-opacity="0.35"/>
</svg>
