<svg width="16" height="17" viewBox="0 0 16 17" fill="none" xmlns="http://www.w3.org/2000/svg">
<path d="M8 2.35449C9.1 2.35449 10 3.25449 10 4.35449C10 5.45449 9.1 6.35449 8 6.35449C6.9 6.35449 6 5.45449 6 4.35449C6 3.25449 6.9 2.35449 8 2.35449ZM8 12.3545C10.7 12.3545 13.8 13.6445 14 14.3545H2C2.23 13.6345 5.31 12.3545 8 12.3545ZM8 0.354492C5.79 0.354492 4 2.14449 4 4.35449C4 6.56449 5.79 8.35449 8 8.35449C10.21 8.35449 12 6.56449 12 4.35449C12 2.14449 10.21 0.354492 8 0.354492ZM8 10.3545C5.33 10.3545 0 11.6945 0 14.3545V16.3545H16V14.3545C16 11.6945 10.67 10.3545 8 10.3545Z" fill="#BFBFBF"/>
</svg>
