<svg width="62" height="32" viewBox="0 0 62 32" fill="none" xmlns="http://www.w3.org/2000/svg">
<g clip-path="url(#clip0_1593_27141)">
<path d="M14.3439 10.2424H19.7475V31.5739H14.3342V29.0504C13.7969 30.0024 13.0162 30.7465 12.0961 31.1836C11.0554 31.7321 9.9207 32.0137 8.77287 32.0082C7.19685 32.0196 5.65303 31.5032 4.33545 30.5238C2.97575 29.5211 1.87645 28.1263 1.15062 26.483C0.371123 24.7535 -0.0269957 22.836 -0.00971441 20.8944C-0.00971441 17.8138 0.842327 15.1987 2.54641 13.0491C4.25049 10.8994 6.32922 9.82184 8.78258 9.81635C9.92743 9.8095 11.0593 10.0912 12.0961 10.641C13.1334 11.1908 13.8827 11.8982 14.3439 12.7632V10.2424ZM9.97447 26.1861C10.8686 26.1908 11.7488 25.9352 12.5306 25.4439C13.2726 25.0012 13.8962 24.3415 14.3366 23.5334V18.3105C13.9018 17.4896 13.2807 16.8157 12.5379 16.3587C11.7598 15.8549 10.8781 15.5922 9.98175 15.5973C9.35801 15.5812 8.73773 15.7064 8.15733 15.9656C7.57693 16.2248 7.04811 16.6127 6.60196 17.1066C6.1558 17.6004 5.8013 18.1903 5.55926 18.8415C5.31723 19.4927 5.19255 20.192 5.19255 20.8986C5.19255 21.6051 5.31723 22.3045 5.55926 22.9556C5.8013 23.6068 6.1558 24.1967 6.60196 24.6905C7.04811 25.1844 7.57693 25.5723 8.15733 25.8315C8.73773 26.0907 9.35801 26.2159 9.98175 26.1998L9.97447 26.1861Z" fill="#2E3192"/>
<path d="M28.3383 8.98892V10.2424H32.9626V16.0838H28.3383V31.5849H22.9251V16.0838H21.0972V10.2424H22.9251V8.69204C22.9251 5.97795 23.6153 3.8503 24.9957 2.30908C26.3761 0.76786 28.187 -0.00183314 30.4284 -5.38304e-07C31.3846 -0.0231023 32.3328 0.201617 33.2005 0.656988L32.9189 6.04209C32.3692 5.84307 31.7968 5.73565 31.2197 5.72322C30.8403 5.71349 30.463 5.78915 30.1097 5.94581C29.7563 6.10248 29.4339 6.33702 29.1612 6.63585C28.8859 6.94069 28.6703 7.30776 28.5285 7.71318C28.3868 8.11859 28.322 8.55326 28.3383 8.98892Z" fill="#2E3192"/>
<path d="M54.3025 9.81634C56.5681 9.81634 58.4154 10.5979 59.8444 12.1612C61.2733 13.7244 61.9919 15.7778 62 18.3215V31.5739H56.5503V19.5942C56.5503 18.3224 56.2566 17.3144 55.6691 16.5704C55.3679 16.2011 54.9987 15.9111 54.5876 15.7211C54.1765 15.5311 53.7336 15.4457 53.2902 15.4708C52.6068 15.4788 51.9391 15.7036 51.3628 16.1196C50.7703 16.5156 50.2746 17.0731 49.9209 17.7414V31.5877H44.5076V19.5942C44.5076 18.3352 44.2115 17.3273 43.6192 16.5704C43.3384 16.2074 42.9907 15.9186 42.6007 15.7244C42.2106 15.5301 41.7876 15.4351 41.3616 15.4461C40.6276 15.4339 39.906 15.662 39.2837 16.1031C38.6889 16.5209 38.2141 17.1254 37.917 17.8431V31.5629H32.5038V10.2424H37.917V12.6807C38.4751 11.8192 39.2066 11.1209 40.0508 10.6438C41.0553 10.0732 42.168 9.79001 43.2915 9.81909C45.7189 9.81909 47.4667 10.816 48.5348 12.8099C49.223 11.9209 50.0638 11.1997 51.006 10.6905C52.0289 10.1099 53.1582 9.81041 54.3025 9.81634Z" fill="#2E3192"/>
<path d="M44.2067 7.28735L44.0781 6.9025H43.294L43.1629 7.28735H42.7041L43.5149 4.97827H43.8644L44.6776 7.28735H44.2067ZM43.4323 6.46268H43.9348L43.6921 5.72597L43.4323 6.46268Z" fill="#140F31"/>
<path d="M45.6243 4.96726C45.804 4.96285 45.9781 5.03778 46.1098 5.17617C46.174 5.24371 46.2247 5.32596 46.2586 5.41744C46.2925 5.50892 46.3088 5.60754 46.3064 5.70671C46.3107 5.80899 46.2953 5.91109 46.2613 6.006C46.2274 6.1009 46.1757 6.18636 46.1098 6.25649C45.9789 6.39665 45.8045 6.4727 45.6243 6.46816H45.2772V7.29283H44.8475V4.98375L45.6243 4.96726ZM45.6243 5.9871C45.6927 5.98906 45.759 5.96042 45.8088 5.90738C45.8323 5.88128 45.8509 5.85003 45.8634 5.81553C45.876 5.78103 45.8822 5.744 45.8816 5.70671C45.8825 5.67058 45.8764 5.63467 45.8639 5.60146C45.8513 5.56824 45.8325 5.5385 45.8088 5.51429C45.7586 5.46225 45.6924 5.43461 45.6243 5.43732H45.2772V5.9871H45.6243Z" fill="#140F31"/>
<path d="M47.3187 4.96726C47.4983 4.96285 47.6724 5.03778 47.8041 5.17617C47.868 5.24385 47.9184 5.32619 47.9519 5.41768C47.9854 5.50918 48.0012 5.60772 47.9984 5.70671C48.003 5.8088 47.9881 5.91083 47.9546 6.00575C47.921 6.10067 47.8697 6.18622 47.8041 6.25649C47.6732 6.39665 47.4988 6.4727 47.3187 6.46816H46.9715V7.29283H46.5419V4.98375L47.3187 4.96726ZM47.3187 5.9871C47.3521 5.98801 47.3855 5.98144 47.4167 5.96776C47.4479 5.95408 47.4765 5.93356 47.5007 5.90738C47.5247 5.88151 47.5437 5.85037 47.5567 5.81586C47.5696 5.78135 47.5762 5.7442 47.576 5.70671C47.577 5.67029 47.5708 5.63407 47.5578 5.60075C47.5448 5.56743 47.5252 5.53787 47.5007 5.51429C47.4767 5.48795 47.4481 5.46752 47.4168 5.45427C47.3855 5.44103 47.352 5.43525 47.3187 5.43732H46.9715V5.9871H47.3187Z" fill="#140F31"/>
<path d="M48.2362 4.96729H48.6659V6.80905H49.6053V7.28736H48.2411L48.2362 4.96729Z" fill="#140F31"/>
<path d="M49.2582 4.96729H49.7874L50.2389 5.79196L50.6904 4.96729H51.1929L50.4501 6.30051V7.28736H50.018V6.30051L49.2582 4.96729Z" fill="#140F31"/>
<path d="M51.9673 4.96729H53.2174V5.43735H52.3994V5.91291H53.1276V6.38022H52.3994V7.28736H51.9673V4.96729Z" fill="#140F31"/>
<path d="M53.8704 5.08823C54.0319 4.98268 54.2156 4.92854 54.402 4.93154C54.5925 4.92673 54.7805 4.98091 54.9457 5.08823C55.1029 5.18821 55.2323 5.33575 55.3196 5.51431C55.4088 5.69986 55.4556 5.90778 55.4556 6.11906C55.4556 6.33035 55.4088 6.53827 55.3196 6.72382C55.2318 6.90338 55.1026 7.05256 54.9457 7.1554C54.7834 7.25815 54.6001 7.3112 54.4141 7.30934C54.228 7.31197 54.0446 7.25887 53.8825 7.1554C53.7192 7.06096 53.5829 6.9161 53.4893 6.73757C53.4 6.55201 53.3533 6.3441 53.3533 6.13281C53.3533 5.92152 53.4 5.71361 53.4893 5.52805C53.5767 5.3433 53.7089 5.1907 53.8704 5.08823ZM54.8268 5.61052C54.7714 5.5461 54.7051 5.4949 54.632 5.45994C54.5588 5.42498 54.4802 5.40697 54.4008 5.40697C54.3214 5.40697 54.2427 5.42498 54.1696 5.45994C54.0964 5.4949 54.0302 5.5461 53.9748 5.61052C53.864 5.75024 53.8028 5.93134 53.8028 6.11906C53.8028 6.30679 53.864 6.48789 53.9748 6.62761C54.0298 6.69272 54.0959 6.74454 54.1692 6.77993C54.2424 6.81533 54.3212 6.83358 54.4008 6.83358C54.4804 6.83358 54.5592 6.81533 54.6324 6.77993C54.7056 6.74454 54.7717 6.69272 54.8268 6.62761C54.9375 6.48789 54.9987 6.30679 54.9987 6.11906C54.9987 5.93134 54.9375 5.75024 54.8268 5.61052Z" fill="#140F31"/>
<path d="M57.332 7.28735H56.8053L56.3465 6.4077H56.1256V7.28735H55.6935V4.97827H56.48C56.5916 4.97938 56.7011 5.01248 56.7983 5.0745C56.8955 5.13651 56.9772 5.2254 57.0359 5.33288C57.0937 5.44154 57.1239 5.56614 57.1233 5.69299C57.1258 5.82791 57.0956 5.96104 57.0359 6.07783C56.9802 6.18868 56.8953 6.27708 56.7931 6.33073L57.332 7.28735ZM56.1183 5.45108V5.98437H56.429C56.4616 5.98568 56.4941 5.97953 56.5245 5.96631C56.555 5.95309 56.5828 5.93305 56.6062 5.9074C56.6298 5.88308 56.6485 5.85331 56.661 5.82012C56.6736 5.78693 56.6797 5.75108 56.679 5.71498C56.6797 5.67969 56.6735 5.64467 56.6609 5.61238C56.6483 5.58009 56.6297 5.55131 56.6062 5.52805C56.5828 5.5024 56.555 5.48237 56.5245 5.46914C56.4941 5.45592 56.4616 5.44978 56.429 5.45108H56.1183Z" fill="#140F31"/>
<path d="M58.1282 7.28735V4.97827H58.6501L59.257 6.56989L59.8929 4.97827H60.3323V7.28735H59.9002V5.9129L59.3783 7.28735H59.0725L58.5578 5.9129V7.28735H58.1282Z" fill="#140F31"/>
<path d="M60.6406 4.96729H61.8908V5.43735H61.0727V5.85243H61.801V6.31975H61.0727V6.80905H61.8908V7.28736H60.6406V4.96729Z" fill="#140F31"/>
</g>
<defs>
<clipPath id="clip0_1593_27141">
<rect width="62" height="32" fill="white"/>
</clipPath>
</defs>
</svg>
