<svg width="20" height="22" viewBox="0 0 20 22" fill="none" xmlns="http://www.w3.org/2000/svg">
<path d="M20 4.78999L15.4 0.929993L14.11 2.45999L18.71 6.31999L20 4.78999ZM5.88 2.45999L4.6 0.929993L0 4.77999L1.29 6.30999L5.88 2.45999ZM10.5 7.06999H9V13.07L13.75 15.92L14.5 14.69L10.5 12.32V7.06999ZM10 3.06999C5.03 3.06999 1 7.09999 1 12.07C1 17.04 5.02 21.07 10 21.07C14.97 21.07 19 17.04 19 12.07C19 7.09999 14.97 3.06999 10 3.06999ZM10 19.07C6.13 19.07 3 15.94 3 12.07C3 8.19999 6.13 5.06999 10 5.06999C13.87 5.06999 17 8.19999 17 12.07C17 15.94 13.87 19.07 10 19.07Z" fill="black"/>
</svg>
