<svg width="40" height="40" viewBox="0 0 40 40" fill="none" xmlns="http://www.w3.org/2000/svg">
<path d="M38.8625 16.3951C39.0957 17.7375 39.212 19.0976 39.21 20.4601C39.21 26.5451 37.035 31.6901 33.25 35.1726H33.255C29.945 38.2301 25.395 40.0001 20 40.0001C14.6957 40.0001 9.60859 37.893 5.85786 34.1422C2.10714 30.3915 0 25.3044 0 20.0001C0 14.6958 2.10714 9.60869 5.85786 5.85796C9.60859 2.10724 14.6957 9.90134e-05 20 9.90134e-05C24.9648 -0.0580469 29.7596 1.80718 33.38 5.2051L27.67 10.9151C25.6059 8.94754 22.8512 7.87008 20 7.9151C14.7825 7.9151 10.35 11.4351 8.77 16.1751C7.93226 18.6589 7.93226 21.3488 8.77 23.8326H8.7775C10.365 28.5651 14.79 32.0851 20.0075 32.0851C22.7025 32.0851 25.0175 31.3951 26.8125 30.1751H26.805C27.8473 29.4846 28.7388 28.5901 29.4259 27.5456C30.1129 26.501 30.5812 25.3281 30.8025 24.0976H20V16.3976H38.8625V16.3951Z" fill="#2E3192"/>
</svg>
