<svg width="147" height="68" viewBox="0 0 147 68" fill="none" xmlns="http://www.w3.org/2000/svg">
<g clip-path="url(#clip0_1153_13438)">
<path d="M34.0091 21.7159H46.8207V66.9428H33.9861V61.5925C32.712 63.6109 30.861 65.1885 28.6795 66.1152C26.2123 67.2782 23.5218 67.8752 20.8003 67.8636C17.0636 67.8878 13.4033 66.7928 10.2794 64.7164C7.05555 62.5904 4.44915 59.6332 2.72821 56.1489C0.880063 52.4822 -0.0638641 48.4167 -0.0228908 44.3002C-0.0228908 37.7687 1.99727 32.2241 6.0376 27.6665C10.0779 23.1088 15.0065 20.8242 20.8234 20.8125C23.5377 20.798 26.2213 21.3952 28.6795 22.561C31.139 23.7266 32.9156 25.2264 34.0091 27.0604V21.7159ZM23.6493 55.5195C25.7692 55.5296 27.8562 54.9877 29.7098 53.9459C31.4689 53.0074 32.9476 51.6087 33.9918 49.8953V38.8217C32.9608 37.0813 31.4882 35.6524 29.727 34.6836C27.8822 33.6153 25.7917 33.0585 23.6666 33.0692C22.1877 33.0351 20.717 33.3006 19.3409 33.8502C17.9648 34.3997 16.711 35.2221 15.6532 36.2692C14.5953 37.3163 13.7548 38.5669 13.181 39.9475C12.6071 41.3281 12.3115 42.811 12.3115 44.3089C12.3115 45.8069 12.6071 47.2897 13.181 48.6703C13.7548 50.051 14.5953 51.3016 15.6532 52.3486C16.711 53.3957 17.9648 54.2182 19.3409 54.7677C20.717 55.3172 22.1877 55.5827 23.6666 55.5486L23.6493 55.5195Z" fill="#2E3192"/>
<path d="M67.189 19.0582V21.7159H78.1532V34.1008H67.189V66.9661H54.3544V34.1008H50.0205V21.7159H54.3544V18.4288C54.3544 12.6744 55.9908 8.16338 59.2638 4.8957C62.5367 1.62802 66.8303 -0.00387532 72.1445 1.01554e-05C74.4116 -0.04897 76.6597 0.427478 78.7172 1.39295L78.0496 12.8104C76.7461 12.3884 75.389 12.1607 74.0207 12.1343C73.1212 12.1137 72.2267 12.2741 71.3889 12.6063C70.551 12.9384 69.7867 13.4357 69.1401 14.0693C68.4873 14.7156 67.9762 15.4939 67.6401 16.3534C67.3039 17.213 67.1502 18.1346 67.189 19.0582Z" fill="#2E3192"/>
<path d="M128.75 20.8126C134.121 20.8126 138.501 22.4697 141.889 25.784C145.277 29.0983 146.981 33.452 147 38.845V66.9428H134.079V41.5435C134.079 38.847 133.383 36.71 131.99 35.1325C131.276 34.3494 130.4 33.7347 129.426 33.3319C128.451 32.929 127.401 32.7479 126.35 32.8012C124.729 32.8181 123.146 33.2946 121.78 34.1766C120.375 35.0163 119.2 36.1984 118.361 37.6153V66.972H105.526V41.5435C105.526 38.8742 104.824 36.7372 103.42 35.1325C102.754 34.3629 101.93 33.7506 101.005 33.3387C100.08 32.9268 99.0774 32.7254 98.0673 32.7487C96.3269 32.7228 94.6161 33.2065 93.1407 34.1417C91.7304 35.0275 90.6046 36.3092 89.9003 37.8309V66.9195H77.0657V21.7159H89.9003V26.8856C91.2234 25.059 92.9578 23.5784 94.9594 22.5669C97.341 21.3571 99.9791 20.7567 102.643 20.8184C108.398 20.8184 112.542 22.9321 115.075 27.1595C116.706 25.2745 118.7 23.7457 120.934 22.6659C123.359 21.4349 126.037 20.8 128.75 20.8126Z" fill="#2E3192"/>
<path d="M104.812 15.4506L104.507 14.6347H102.648L102.338 15.4506H101.25L103.172 10.5549H104.001L105.929 15.4506H104.812ZM102.976 13.7022H104.168L103.592 12.1402L102.976 13.7022Z" fill="#2E3192"/>
<path d="M108.174 10.5315C108.6 10.5222 109.013 10.681 109.325 10.9745C109.477 11.1177 109.597 11.292 109.678 11.486C109.758 11.68 109.797 11.889 109.791 12.0993C109.801 12.3162 109.765 12.5326 109.684 12.7338C109.604 12.9351 109.481 13.1162 109.325 13.2649C109.014 13.5621 108.601 13.7233 108.174 13.7137H107.351V15.4622H106.332V10.5665L108.174 10.5315ZM108.174 12.6938C108.336 12.698 108.493 12.6372 108.611 12.5248C108.667 12.4694 108.711 12.4032 108.741 12.33C108.77 12.2569 108.785 12.1784 108.784 12.0993C108.786 12.0227 108.772 11.9466 108.742 11.8761C108.712 11.8057 108.667 11.7427 108.611 11.6913C108.492 11.581 108.335 11.5224 108.174 11.5281H107.351V12.6938H108.174Z" fill="#2E3192"/>
<path d="M112.191 10.5315C112.617 10.5222 113.03 10.681 113.342 10.9745C113.494 11.1179 113.613 11.2925 113.692 11.4865C113.772 11.6805 113.809 11.8894 113.803 12.0993C113.814 12.3158 113.778 12.5321 113.699 12.7333C113.619 12.9346 113.498 13.116 113.342 13.2649C113.032 13.5621 112.618 13.7233 112.191 13.7137H111.368V15.4622H110.349V10.5665L112.191 10.5315ZM112.191 12.6938C112.27 12.6957 112.349 12.6818 112.424 12.6528C112.498 12.6238 112.565 12.5803 112.623 12.5248C112.68 12.4699 112.725 12.4039 112.755 12.3307C112.786 12.2575 112.802 12.1788 112.801 12.0993C112.804 12.0221 112.789 11.9453 112.758 11.8746C112.727 11.804 112.681 11.7413 112.623 11.6913C112.566 11.6355 112.498 11.5922 112.424 11.5641C112.349 11.536 112.27 11.5238 112.191 11.5281H111.368V12.6938H112.191Z" fill="#2E3192"/>
<path d="M114.367 10.5316H115.386V14.4365H117.613V15.4506H114.378L114.367 10.5316Z" fill="#2E3192"/>
<path d="M116.79 10.5316H118.044L119.115 12.2801L120.185 10.5316H121.377L119.615 13.3583V15.4506H118.591V13.3583L116.79 10.5316Z" fill="#2E3192"/>
<path d="M123.213 10.5316H126.177V11.5282H124.237V12.5365H125.964V13.5273H124.237V15.4506H123.213V10.5316Z" fill="#2E3192"/>
<path d="M127.725 10.788C128.108 10.5642 128.543 10.4495 128.985 10.4558C129.437 10.4456 129.883 10.5605 130.274 10.788C130.647 11 130.954 11.3128 131.161 11.6914C131.372 12.0848 131.483 12.5256 131.483 12.9736C131.483 13.4216 131.372 13.8624 131.161 14.2558C130.953 14.6365 130.646 14.9528 130.274 15.1708C129.889 15.3887 129.455 15.5012 129.014 15.4972C128.573 15.5028 128.138 15.3902 127.754 15.1708C127.366 14.9706 127.043 14.6635 126.821 14.285C126.61 13.8915 126.499 13.4507 126.499 13.0028C126.499 12.5548 126.61 12.114 126.821 11.7205C127.028 11.3288 127.342 11.0053 127.725 10.788ZM129.992 11.8954C129.861 11.7588 129.704 11.6503 129.531 11.5761C129.357 11.502 129.171 11.4638 128.982 11.4638C128.794 11.4638 128.608 11.502 128.434 11.5761C128.261 11.6503 128.104 11.7588 127.972 11.8954C127.71 12.1916 127.565 12.5756 127.565 12.9736C127.565 13.3716 127.71 13.7556 127.972 14.0518C128.103 14.1899 128.26 14.2997 128.433 14.3748C128.607 14.4498 128.794 14.4885 128.982 14.4885C129.171 14.4885 129.358 14.4498 129.532 14.3748C129.705 14.2997 129.862 14.1899 129.992 14.0518C130.255 13.7556 130.4 13.3716 130.4 12.9736C130.4 12.5756 130.255 12.1916 129.992 11.8954Z" fill="#2E3192"/>
<path d="M135.933 15.4506H134.684L133.596 13.5856H133.072V15.4506H132.048V10.5549H133.912C134.177 10.5573 134.437 10.6275 134.667 10.7589C134.897 10.8904 135.091 11.0789 135.23 11.3068C135.367 11.5371 135.439 11.8013 135.438 12.0703C135.444 12.3563 135.372 12.6386 135.23 12.8862C135.098 13.1212 134.897 13.3087 134.655 13.4224L135.933 15.4506ZM133.055 11.5574V12.6881H133.792C133.869 12.6908 133.946 12.6778 134.018 12.6498C134.09 12.6217 134.156 12.5793 134.212 12.5249C134.268 12.4733 134.312 12.4102 134.342 12.3398C134.371 12.2694 134.386 12.1934 134.384 12.1169C134.386 12.0421 134.371 11.9678 134.341 11.8994C134.312 11.8309 134.267 11.7699 134.212 11.7206C134.156 11.6662 134.09 11.6237 134.018 11.5957C133.946 11.5676 133.869 11.5546 133.792 11.5574H133.055Z" fill="#2E3192"/>
<path d="M137.82 15.4506V10.5549H139.058L140.496 13.9295L142.004 10.5549H143.046V15.4506H142.022V12.5365L140.784 15.4506H140.059L138.839 12.5365V15.4506H137.82Z" fill="#2E3192"/>
<path d="M143.777 10.5316H146.741V11.5282H144.802V12.4083H146.528V13.3991H144.802V14.4365H146.741V15.4506H143.777V10.5316Z" fill="#2E3192"/>
</g>
<defs>
<clipPath id="clip0_1153_13438">
<rect width="147" height="67.8462" fill="white"/>
</clipPath>
</defs>
</svg>
