<svg width="60" height="28" viewBox="0 0 60 28" fill="none" xmlns="http://www.w3.org/2000/svg">
<g clip-path="url(#clip0_3735_2481)">
<path d="M13.8811 8.6734H19.1104V26.7364H13.8717V24.5995C13.3517 25.4057 12.5962 26.0357 11.7058 26.4058C10.6987 26.8703 9.60059 27.1088 8.48979 27.1041C6.96461 27.1138 5.47058 26.6765 4.19551 25.8472C2.87967 24.9981 1.81584 23.817 1.11341 22.4255C0.359065 20.961 -0.0262115 19.3373 -0.00948767 17.6932C-0.00948767 15.0847 0.815069 12.8702 2.46418 11.05C4.11329 9.22972 6.12496 8.31726 8.49919 8.3126C9.6071 8.3068 10.7024 8.54534 11.7058 9.01091C12.7097 9.47645 13.4348 10.0754 13.8811 10.8079V8.6734ZM9.65263 22.1741C10.5179 22.1781 11.3697 21.9617 12.1263 21.5456C12.8443 21.1708 13.4478 20.6122 13.8741 19.9278V15.5052C13.4532 14.8101 12.8522 14.2394 12.1333 13.8525C11.3803 13.4259 10.5271 13.2035 9.65967 13.2078C9.05606 13.1941 8.45578 13.3002 7.8941 13.5197C7.33242 13.7391 6.82067 14.0676 6.38891 14.4858C5.95714 14.904 5.61407 15.4034 5.37985 15.9548C5.14562 16.5063 5.02496 17.0985 5.02496 17.6967C5.02496 18.295 5.14562 18.8872 5.37985 19.4386C5.61407 19.99 5.95714 20.4895 6.38891 20.9077C6.82067 21.3259 7.33242 21.6543 7.8941 21.8738C8.45578 22.0933 9.05606 22.1993 9.65967 22.1857L9.65263 22.1741Z" fill="#FBFBFB"/>
<path d="M27.4241 7.61198V8.67341H31.8992V13.6198H27.4241V26.7457H22.1854V13.6198H20.4165V8.67341H22.1854V7.36059C22.1854 5.06237 22.8534 3.26073 24.1893 1.95566C25.5252 0.650597 27.2776 -0.00115922 29.4467 0.000392581C30.372 -0.0191694 31.2897 0.171117 32.1294 0.556713L31.8569 5.11668C31.3249 4.94815 30.771 4.8572 30.2125 4.84667C29.8454 4.83843 29.4802 4.9025 29.1383 5.03515C28.7963 5.16781 28.4843 5.36642 28.2204 5.61946C27.954 5.87759 27.7454 6.18842 27.6082 6.53171C27.471 6.875 27.4082 7.24308 27.4241 7.61198Z" fill="#FBFBFB"/>
<path d="M52.5508 8.31257C54.7434 8.31257 56.5311 8.97442 57.914 10.2981C59.2968 11.6218 59.9922 13.3606 60 15.5145V26.7363H54.7261V16.5922C54.7261 15.5153 54.4419 14.6618 53.8734 14.0317C53.5819 13.719 53.2246 13.4735 52.8268 13.3126C52.429 13.1517 52.0003 13.0794 51.5712 13.1007C50.9099 13.1074 50.2637 13.2977 49.706 13.65C49.1326 13.9854 48.6529 14.4575 48.3106 15.0233V26.748H43.0719V16.5922C43.0719 15.5261 42.7853 14.6726 42.2121 14.0317C41.9404 13.7244 41.604 13.4798 41.2265 13.3153C40.849 13.1508 40.4397 13.0704 40.0274 13.0797C39.317 13.0694 38.6188 13.2625 38.0165 13.636C37.4409 13.9898 36.9814 14.5017 36.694 15.1095V26.727H31.4553V8.67337H36.694V10.738C37.234 10.0085 37.9419 9.41721 38.7589 9.01321C39.731 8.53004 40.8077 8.29027 41.895 8.3149C44.2442 8.3149 45.9356 9.15908 46.9692 10.8474C47.6352 10.0946 48.4489 9.48401 49.3607 9.05278C50.3506 8.56114 51.4435 8.30755 52.5508 8.31257Z" fill="#FBFBFB"/>
<path d="M42.7805 6.17109L42.656 5.84521H41.8973L41.7704 6.17109H41.3264L42.111 4.21582H42.4493L43.2363 6.17109H42.7805ZM42.0312 5.47278H42.5174L42.2825 4.84896L42.0312 5.47278Z" fill="#8F8F8F"/>
<path d="M44.1526 4.20621C44.3265 4.20248 44.495 4.26593 44.6224 4.38312C44.6846 4.4403 44.7336 4.50995 44.7665 4.58741C44.7993 4.66488 44.815 4.74838 44.8127 4.83236C44.8168 4.91897 44.8019 5.00543 44.7691 5.08579C44.7362 5.16615 44.6862 5.23851 44.6224 5.2979C44.4957 5.41658 44.3269 5.48098 44.1526 5.47713H43.8167V6.17545H43.4009V4.22018L44.1526 4.20621ZM44.1526 5.06979C44.2188 5.07145 44.2829 5.0472 44.3311 5.00229C44.3539 4.98018 44.3719 4.95372 44.384 4.9245C44.3961 4.89529 44.4021 4.86394 44.4016 4.83236C44.4025 4.80177 44.3966 4.77136 44.3844 4.74324C44.3723 4.71511 44.3541 4.68993 44.3311 4.66942C44.2826 4.62536 44.2184 4.60195 44.1526 4.60425H43.8167V5.06979H44.1526Z" fill="#8F8F8F"/>
<path d="M45.7923 4.20621C45.9661 4.20248 46.1346 4.26593 46.2621 4.38312C46.3239 4.44042 46.3726 4.51014 46.405 4.58762C46.4375 4.6651 46.4528 4.74854 46.45 4.83236C46.4546 4.91881 46.4401 5.00521 46.4077 5.08558C46.3752 5.16596 46.3255 5.2384 46.2621 5.2979C46.1354 5.41658 45.9666 5.48098 45.7923 5.47713H45.4563V6.17545H45.0405V4.22018L45.7923 4.20621ZM45.7923 5.06979C45.8247 5.07056 45.8569 5.06499 45.8871 5.05341C45.9174 5.04183 45.945 5.02446 45.9684 5.00229C45.9916 4.98038 46.0101 4.95401 46.0226 4.92478C46.0351 4.89556 46.0415 4.86411 46.0413 4.83236C46.0423 4.80152 46.0363 4.77085 46.0237 4.74264C46.0111 4.71442 45.9922 4.68939 45.9684 4.66942C45.9452 4.64712 45.9175 4.62982 45.8872 4.6186C45.8569 4.60739 45.8246 4.6025 45.7923 4.60425H45.4563V5.06979H45.7923Z" fill="#8F8F8F"/>
<path d="M46.6802 4.20605H47.096V5.76562H48.0051V6.17064H46.6849L46.6802 4.20605Z" fill="#8F8F8F"/>
<path d="M47.6692 4.20605H48.1813L48.6182 4.90437L49.0552 4.20605H49.5415L48.8226 5.33499V6.17064H48.4045V5.33499L47.6692 4.20605Z" fill="#8F8F8F"/>
<path d="M50.291 4.20605H51.5008V4.60409H50.7092V5.00678H51.4139V5.40249H50.7092V6.17064H50.291V4.20605Z" fill="#8F8F8F"/>
<path d="M52.1327 4.30871C52.289 4.21933 52.4668 4.17349 52.6472 4.17603C52.8315 4.17196 53.0135 4.21784 53.1734 4.30871C53.3255 4.39338 53.4507 4.5183 53.5352 4.6695C53.6216 4.82663 53.6668 5.00269 53.6668 5.1816C53.6668 5.36051 53.6216 5.53657 53.5352 5.69369C53.4503 5.84574 53.3252 5.97205 53.1734 6.05914C53.0163 6.14614 52.839 6.19107 52.659 6.18949C52.4789 6.19172 52.3014 6.14675 52.1445 6.05914C51.9865 5.97917 51.8545 5.85651 51.7639 5.70533C51.6776 5.54821 51.6323 5.37215 51.6323 5.19324C51.6323 5.01433 51.6776 4.83826 51.7639 4.68114C51.8485 4.5247 51.9765 4.39549 52.1327 4.30871ZM53.0583 4.75097C53.0047 4.69642 52.9406 4.65307 52.8698 4.62347C52.799 4.59386 52.7229 4.57861 52.646 4.57861C52.5692 4.57861 52.4931 4.59386 52.4223 4.62347C52.3515 4.65307 52.2874 4.69642 52.2338 4.75097C52.1266 4.86928 52.0674 5.02264 52.0674 5.1816C52.0674 5.34056 52.1266 5.49391 52.2338 5.61222C52.287 5.66735 52.351 5.71123 52.4219 5.7412C52.4928 5.77118 52.569 5.78663 52.646 5.78663C52.7231 5.78663 52.7993 5.77118 52.8702 5.7412C52.941 5.71123 53.005 5.66735 53.0583 5.61222C53.1655 5.49391 53.2247 5.34056 53.2247 5.1816C53.2247 5.02264 53.1655 4.86928 53.0583 4.75097Z" fill="#8F8F8F"/>
<path d="M55.4827 6.17109H54.9729L54.5289 5.42623H54.3151V6.17109H53.897V4.21582H54.6581C54.7661 4.21676 54.872 4.24479 54.9661 4.2973C55.0602 4.34981 55.1393 4.42508 55.1961 4.51609C55.252 4.6081 55.2813 4.71361 55.2806 4.82102C55.2831 4.93527 55.2538 5.048 55.1961 5.1469C55.1421 5.24076 55.06 5.31562 54.9611 5.36105L55.4827 6.17109ZM54.3081 4.61619V5.06776H54.6088C54.6403 5.06887 54.6718 5.06366 54.7012 5.05247C54.7307 5.04127 54.7576 5.0243 54.7803 5.00258C54.8031 4.98199 54.8212 4.95678 54.8333 4.92868C54.8455 4.90057 54.8514 4.87021 54.8507 4.83964C54.8514 4.80976 54.8454 4.78011 54.8332 4.75277C54.821 4.72543 54.8029 4.70105 54.7803 4.68136C54.7576 4.65964 54.7307 4.64268 54.7012 4.63148C54.6718 4.62028 54.6403 4.61508 54.6088 4.61619H54.3081Z" fill="#8F8F8F"/>
<path d="M56.2532 6.17109V4.21582H56.7582L57.3455 5.56356L57.961 4.21582H58.3862V6.17109H57.9681V5.00724L57.463 6.17109H57.167L56.669 5.00724V6.17109H56.2532Z" fill="#8F8F8F"/>
<path d="M58.6846 4.20605H59.8944V4.60409H59.1027V4.95557H59.8075V5.35129H59.1027V5.76562H59.8944V6.17064H58.6846V4.20605Z" fill="#8F8F8F"/>
</g>
<defs>
<clipPath id="clip0_3735_2481">
<rect width="60" height="27.0968" fill="white"/>
</clipPath>
</defs>
</svg>
