<svg width="24" height="24" viewBox="0 0 24 24" fill="none" xmlns="http://www.w3.org/2000/svg">
<path d="M6.22469 4.81096C5.83417 4.42044 5.201 4.42044 4.81048 4.81096C4.41995 5.20148 4.41995 5.83465 4.81048 6.22517L10.5852 11.9999L4.81054 17.7746C4.42001 18.1651 4.42001 18.7983 4.81054 19.1888C5.20106 19.5793 5.83423 19.5793 6.22475 19.1888L11.9994 13.4141L17.7741 19.1888C18.1646 19.5793 18.7978 19.5793 19.1883 19.1888C19.5788 18.7983 19.5788 18.1651 19.1883 17.7746L13.4136 11.9999L19.1883 6.22517C19.5789 5.83465 19.5789 5.20148 19.1883 4.81096C18.7978 4.42044 18.1647 4.42044 17.7741 4.81096L11.9994 10.5857L6.22469 4.81096Z" fill="#52515B"/>
</svg>
