<svg width="24" height="24" viewBox="0 0 24 24" fill="none" xmlns="http://www.w3.org/2000/svg">
<path fill-rule="evenodd" clip-rule="evenodd" d="M4.47995 1.59971L4.39942 1.59966C4.0339 1.59931 3.71882 1.59901 3.43968 1.66603C2.56213 1.8767 1.87694 2.56188 1.66627 3.43943C1.59925 3.71857 1.59955 4.03366 1.5999 4.39918L1.59995 4.47971V8.31971L1.5999 8.40023C1.59955 8.76575 1.59925 9.08086 1.66627 9.35998C1.87694 10.2375 2.56213 10.9227 3.43968 11.1334C3.71882 11.2004 4.0339 11.2001 4.39942 11.1998L4.47995 11.1997H8.31995L8.40048 11.1998C8.766 11.2001 9.0811 11.2004 9.36022 11.1334C10.2378 10.9227 10.923 10.2375 11.1336 9.35998C11.2007 9.08086 11.2004 8.76575 11.2 8.40023L11.2 8.31971V4.47971L11.2 4.39918C11.2004 4.03366 11.2007 3.71857 11.1336 3.43943C10.923 2.56188 10.2378 1.8767 9.36022 1.66603C9.0811 1.59901 8.766 1.59931 8.40048 1.59966L8.31995 1.59971H4.47995ZM3.8132 3.22182C3.88206 3.20527 3.9875 3.19971 4.47995 3.19971H8.31995C8.81241 3.19971 8.91786 3.20527 8.9867 3.22182C9.27923 3.29204 9.50761 3.52043 9.57785 3.81295C9.59438 3.88182 9.59995 3.98726 9.59995 4.47971V8.31971C9.59995 8.81217 9.59438 8.91761 9.57785 8.98646C9.50761 9.27899 9.27923 9.50737 8.9867 9.57761C8.91786 9.59414 8.81241 9.59971 8.31995 9.59971H4.47995C3.9875 9.59971 3.88206 9.59414 3.8132 9.57761C3.52067 9.50737 3.29229 9.27899 3.22206 8.98646C3.20552 8.91761 3.19995 8.81217 3.19995 8.31971V4.47971C3.19995 3.98726 3.20552 3.88182 3.22206 3.81295C3.29229 3.52043 3.52067 3.29204 3.8132 3.22182ZM15.68 1.59971L15.5994 1.59966C15.2339 1.59931 14.9188 1.59901 14.6397 1.66603C13.7621 1.8767 13.0769 2.56188 12.8663 3.43943C12.7992 3.71857 12.7996 4.03366 12.7999 4.39918L12.8 4.47971V8.31971L12.7999 8.40023C12.7996 8.76575 12.7992 9.08086 12.8663 9.35998C13.0769 10.2375 13.7621 10.9227 14.6397 11.1334C14.9188 11.2004 15.2339 11.2001 15.5994 11.1998L15.68 11.1997H19.5199L19.6004 11.1998C19.966 11.2001 20.2811 11.2004 20.5603 11.1334C21.4377 10.9227 22.123 10.2375 22.3337 9.35998C22.4006 9.08086 22.4004 8.76575 22.4 8.40023V8.31971V4.47971V4.39918C22.4004 4.03366 22.4006 3.71857 22.3337 3.43943C22.123 2.56188 21.4377 1.8767 20.5603 1.66603C20.2811 1.59901 19.966 1.59931 19.6004 1.59966L19.5199 1.59971H15.68ZM15.0132 3.22182C15.0821 3.20527 15.1875 3.19971 15.68 3.19971H19.5199C20.0124 3.19971 20.1179 3.20527 20.1867 3.22182C20.4792 3.29204 20.7076 3.52043 20.7779 3.81295C20.7943 3.88182 20.7999 3.98726 20.7999 4.47971V8.31971C20.7999 8.81217 20.7943 8.91761 20.7779 8.98646C20.7076 9.27899 20.4792 9.50737 20.1867 9.57761C20.1179 9.59414 20.0124 9.59971 19.5199 9.59971H15.68C15.1875 9.59971 15.0821 9.59414 15.0132 9.57761C14.7207 9.50737 14.4923 9.27899 14.4221 8.98646C14.4055 8.91761 14.4 8.81217 14.4 8.31971V4.47971C14.4 3.98726 14.4055 3.88182 14.4221 3.81295C14.4923 3.52043 14.7207 3.29204 15.0132 3.22182ZM4.39942 12.7997L4.47995 12.7997H8.31995L8.40048 12.7997C8.766 12.7993 9.0811 12.799 9.36022 12.866C10.2378 13.0767 10.923 13.7619 11.1336 14.6394C11.2007 14.9186 11.2004 15.2337 11.2 15.5992L11.2 15.6797V19.5197L11.2 19.6002C11.2004 19.9658 11.2007 20.2808 11.1336 20.56C10.923 21.4375 10.2378 22.1227 9.36022 22.3335C9.0811 22.4003 8.766 22.4002 8.40048 22.3997H8.31995H4.47995H4.39942C4.0339 22.4002 3.71882 22.4003 3.43968 22.3335C2.56213 22.1227 1.87694 21.4375 1.66627 20.56C1.59925 20.2808 1.59955 19.9658 1.5999 19.6002L1.59995 19.5197V15.6797L1.5999 15.5992C1.59955 15.2337 1.59925 14.9186 1.66627 14.6394C1.87694 13.7619 2.56213 13.0767 3.43968 12.866C3.71882 12.799 4.0339 12.7993 4.39942 12.7997ZM4.47995 14.3997C3.9875 14.3997 3.88206 14.4053 3.8132 14.4218C3.52067 14.492 3.29229 14.7204 3.22206 15.013C3.20552 15.0818 3.19995 15.1873 3.19995 15.6797V19.5197C3.19995 20.0122 3.20552 20.1176 3.22206 20.1864C3.29229 20.4789 3.52067 20.7074 3.8132 20.7776C3.88206 20.7941 3.9875 20.7997 4.47995 20.7997H8.31995C8.81241 20.7997 8.91786 20.7941 8.9867 20.7776C9.27923 20.7074 9.50761 20.4789 9.57785 20.1864C9.59438 20.1176 9.59995 20.0122 9.59995 19.5197V15.6797C9.59995 15.1873 9.59438 15.0818 9.57785 15.013C9.50761 14.7204 9.27923 14.492 8.9867 14.4218C8.91786 14.4053 8.81241 14.3997 8.31995 14.3997H4.47995ZM15.68 12.7997L15.5994 12.7997C15.2339 12.7993 14.9188 12.799 14.6397 12.866C13.7621 13.0767 13.0769 13.7619 12.8663 14.6394C12.7992 14.9186 12.7996 15.2337 12.7999 15.5992L12.8 15.6797V19.5197L12.7999 19.6002C12.7996 19.9658 12.7992 20.2808 12.8663 20.56C13.0769 21.4375 13.7621 22.1227 14.6397 22.3335C14.9188 22.4003 15.2339 22.4002 15.5994 22.3997H15.68H19.5199H19.6004C19.966 22.4002 20.2811 22.4003 20.5603 22.3335C21.4377 22.1227 22.123 21.4375 22.3337 20.56C22.4006 20.2808 22.4004 19.9658 22.4 19.6002V19.5197V15.6797V15.5992C22.4004 15.2337 22.4006 14.9186 22.3337 14.6394C22.123 13.7619 21.4377 13.0767 20.5603 12.866C20.2811 12.799 19.966 12.7993 19.6004 12.7997L19.5199 12.7997H15.68ZM15.0132 14.4218C15.0821 14.4053 15.1875 14.3997 15.68 14.3997H19.5199C20.0124 14.3997 20.1179 14.4053 20.1867 14.4218C20.4792 14.492 20.7076 14.7204 20.7779 15.013C20.7943 15.0818 20.7999 15.1873 20.7999 15.6797V19.5197C20.7999 20.0122 20.7943 20.1176 20.7779 20.1864C20.7076 20.4789 20.4792 20.7074 20.1867 20.7776C20.1179 20.7941 20.0124 20.7997 19.5199 20.7997H15.68C15.1875 20.7997 15.0821 20.7941 15.0132 20.7776C14.7207 20.7074 14.4923 20.4789 14.4221 20.1864C14.4055 20.1176 14.4 20.0122 14.4 19.5197V15.6797C14.4 15.1873 14.4055 15.0818 14.4221 15.013C14.4923 14.7204 14.7207 14.492 15.0132 14.4218Z" fill="white"/>
</svg>
