<svg width="24" height="24" viewBox="0 0 24 24" fill="none" xmlns="http://www.w3.org/2000/svg">
<path fill-rule="evenodd" clip-rule="evenodd" d="M4.48019 1.59995L4.39967 1.5999C4.03415 1.59955 3.71906 1.59925 3.43992 1.66627C2.56237 1.87694 1.87719 2.56213 1.66652 3.43968C1.5995 3.71882 1.5998 4.0339 1.60015 4.39942L1.6002 4.47995V8.31995L1.60015 8.40048C1.5998 8.766 1.5995 9.0811 1.66652 9.36022C1.87719 10.2378 2.56237 10.923 3.43992 11.1336C3.71906 11.2007 4.03415 11.2004 4.39967 11.2L4.48019 11.2H8.32019L8.40072 11.2C8.76624 11.2004 9.08135 11.2007 9.36047 11.1336C10.238 10.923 10.9232 10.2378 11.1339 9.36022C11.2009 9.0811 11.2006 8.766 11.2002 8.40048L11.2002 8.31995V4.47995L11.2002 4.39942C11.2006 4.0339 11.2009 3.71882 11.1339 3.43968C10.9232 2.56213 10.238 1.87694 9.36047 1.66627C9.08135 1.59925 8.76624 1.59955 8.40072 1.5999L8.32019 1.59995H4.48019ZM3.81344 3.22206C3.88231 3.20552 3.98775 3.19995 4.48019 3.19995H8.32019C8.81266 3.19995 8.9181 3.20552 8.98695 3.22206C9.27948 3.29229 9.50786 3.52067 9.5781 3.8132C9.59463 3.88206 9.60019 3.9875 9.60019 4.47995V8.31995C9.60019 8.81241 9.59463 8.91786 9.5781 8.9867C9.50786 9.27923 9.27948 9.50761 8.98695 9.57785C8.9181 9.59438 8.81266 9.59995 8.32019 9.59995H4.48019C3.98775 9.59995 3.88231 9.59438 3.81344 9.57785C3.52092 9.50761 3.29253 9.27923 3.22231 8.9867C3.20576 8.91786 3.2002 8.81241 3.2002 8.31995V4.47995C3.2002 3.9875 3.20576 3.88206 3.22231 3.8132C3.29253 3.52067 3.52092 3.29229 3.81344 3.22206ZM15.6802 1.59995L15.5997 1.5999C15.2341 1.59955 14.9191 1.59925 14.6399 1.66627C13.7624 1.87694 13.0772 2.56213 12.8665 3.43968C12.7995 3.71882 12.7998 4.0339 12.8001 4.39942L12.8002 4.47995V8.31995L12.8001 8.40048C12.7998 8.766 12.7995 9.0811 12.8665 9.36022C13.0772 10.2378 13.7624 10.923 14.6399 11.1336C14.9191 11.2007 15.2341 11.2004 15.5997 11.2L15.6802 11.2H19.5202L19.6007 11.2C19.9663 11.2004 20.2813 11.2007 20.5605 11.1336C21.438 10.923 22.1232 10.2378 22.334 9.36022C22.4008 9.0811 22.4007 8.766 22.4002 8.40048V8.31995V4.47995V4.39942C22.4007 4.0339 22.4008 3.71882 22.334 3.43968C22.1232 2.56213 21.438 1.87694 20.5605 1.66627C20.2813 1.59925 19.9663 1.59955 19.6007 1.5999L19.5202 1.59995H15.6802ZM15.0134 3.22206C15.0823 3.20552 15.1877 3.19995 15.6802 3.19995H19.5202C20.0127 3.19995 20.1181 3.20552 20.1869 3.22206C20.4794 3.29229 20.7079 3.52067 20.7781 3.8132C20.7946 3.88206 20.8002 3.9875 20.8002 4.47995V8.31995C20.8002 8.81241 20.7946 8.91786 20.7781 8.9867C20.7079 9.27923 20.4794 9.50761 20.1869 9.57785C20.1181 9.59438 20.0127 9.59995 19.5202 9.59995H15.6802C15.1877 9.59995 15.0823 9.59438 15.0134 9.57785C14.7209 9.50761 14.4925 9.27923 14.4223 8.9867C14.4058 8.91786 14.4002 8.81241 14.4002 8.31995V4.47995C14.4002 3.9875 14.4058 3.88206 14.4223 3.8132C14.4925 3.52067 14.7209 3.29229 15.0134 3.22206ZM4.39967 12.7999L4.48019 12.8H8.32019L8.40072 12.7999C8.76624 12.7996 9.08135 12.7992 9.36047 12.8663C10.238 13.0769 10.9232 13.7621 11.1339 14.6397C11.2009 14.9188 11.2006 15.2339 11.2002 15.5994L11.2002 15.68V19.5199L11.2002 19.6004C11.2006 19.966 11.2009 20.2811 11.1339 20.5603C10.9232 21.4377 10.238 22.123 9.36047 22.3337C9.08135 22.4006 8.76624 22.4004 8.40072 22.4H8.32019H4.48019H4.39967C4.03415 22.4004 3.71906 22.4006 3.43992 22.3337C2.56237 22.123 1.87719 21.4377 1.66652 20.5603C1.5995 20.2811 1.5998 19.966 1.60015 19.6004L1.6002 19.5199V15.68L1.60015 15.5994C1.5998 15.2339 1.5995 14.9188 1.66652 14.6397C1.87719 13.7621 2.56237 13.0769 3.43992 12.8663C3.71906 12.7992 4.03415 12.7996 4.39967 12.7999ZM4.48019 14.4C3.98775 14.4 3.88231 14.4055 3.81344 14.4221C3.52092 14.4923 3.29253 14.7207 3.22231 15.0132C3.20576 15.0821 3.2002 15.1875 3.2002 15.68V19.5199C3.2002 20.0124 3.20576 20.1179 3.22231 20.1867C3.29253 20.4792 3.52092 20.7076 3.81344 20.7779C3.88231 20.7943 3.98775 20.7999 4.48019 20.7999H8.32019C8.81266 20.7999 8.9181 20.7943 8.98695 20.7779C9.27948 20.7076 9.50786 20.4792 9.5781 20.1867C9.59463 20.1179 9.60019 20.0124 9.60019 19.5199V15.68C9.60019 15.1875 9.59463 15.0821 9.5781 15.0132C9.50786 14.7207 9.27948 14.4923 8.98695 14.4221C8.9181 14.4055 8.81266 14.4 8.32019 14.4H4.48019ZM15.6802 12.8L15.5997 12.7999C15.2341 12.7996 14.9191 12.7992 14.6399 12.8663C13.7624 13.0769 13.0772 13.7621 12.8665 14.6397C12.7995 14.9188 12.7998 15.2339 12.8001 15.5994L12.8002 15.68V19.5199L12.8001 19.6004C12.7998 19.966 12.7995 20.2811 12.8665 20.5603C13.0772 21.4377 13.7624 22.123 14.6399 22.3337C14.9191 22.4006 15.2341 22.4004 15.5997 22.4H15.6802H19.5202H19.6007C19.9663 22.4004 20.2813 22.4006 20.5605 22.3337C21.438 22.123 22.1232 21.4377 22.334 20.5603C22.4008 20.2811 22.4007 19.966 22.4002 19.6004V19.5199V15.68V15.5994C22.4007 15.2339 22.4008 14.9188 22.334 14.6397C22.1232 13.7621 21.438 13.0769 20.5605 12.8663C20.2813 12.7992 19.9663 12.7996 19.6007 12.7999L19.5202 12.8H15.6802ZM15.0134 14.4221C15.0823 14.4055 15.1877 14.4 15.6802 14.4H19.5202C20.0127 14.4 20.1181 14.4055 20.1869 14.4221C20.4794 14.4923 20.7079 14.7207 20.7781 15.0132C20.7946 15.0821 20.8002 15.1875 20.8002 15.68V19.5199C20.8002 20.0124 20.7946 20.1179 20.7781 20.1867C20.7079 20.4792 20.4794 20.7076 20.1869 20.7779C20.1181 20.7943 20.0127 20.7999 19.5202 20.7999H15.6802C15.1877 20.7999 15.0823 20.7943 15.0134 20.7779C14.7209 20.7076 14.4925 20.4792 14.4223 20.1867C14.4058 20.1179 14.4002 20.0124 14.4002 19.5199V15.68C14.4002 15.1875 14.4058 15.0821 14.4223 15.0132C14.4925 14.7207 14.7209 14.4923 15.0134 14.4221Z" fill="#2E3192"/>
</svg>
