<svg width="24" height="24" viewBox="0 0 24 24" fill="none" xmlns="http://www.w3.org/2000/svg">
<path fill-rule="evenodd" clip-rule="evenodd" d="M4.47971 1.59995L4.39918 1.5999C4.03366 1.59955 3.71857 1.59925 3.43943 1.66627C2.56188 1.87694 1.8767 2.56213 1.66603 3.43968C1.59901 3.71882 1.59931 4.0339 1.59966 4.39942L1.59971 4.47995V8.31995L1.59966 8.40048C1.59931 8.766 1.59901 9.0811 1.66603 9.36022C1.8767 10.2378 2.56188 10.923 3.43943 11.1336C3.71857 11.2007 4.03366 11.2004 4.39918 11.2L4.47971 11.2H8.31971L8.40023 11.2C8.76575 11.2004 9.08086 11.2007 9.35998 11.1336C10.2375 10.923 10.9227 10.2378 11.1334 9.36022C11.2004 9.0811 11.2001 8.766 11.1998 8.40048L11.1997 8.31995V4.47995L11.1998 4.39942C11.2001 4.0339 11.2004 3.71882 11.1334 3.43968C10.9227 2.56213 10.2375 1.87694 9.35998 1.66627C9.08086 1.59925 8.76575 1.59955 8.40023 1.5999L8.31971 1.59995H4.47971ZM3.81295 3.22206C3.88182 3.20552 3.98726 3.19995 4.47971 3.19995H8.31971C8.81217 3.19995 8.91761 3.20552 8.98646 3.22206C9.27899 3.29229 9.50737 3.52067 9.57761 3.8132C9.59414 3.88206 9.59971 3.9875 9.59971 4.47995V8.31995C9.59971 8.81241 9.59414 8.91786 9.57761 8.9867C9.50737 9.27923 9.27899 9.50761 8.98646 9.57785C8.91761 9.59438 8.81217 9.59995 8.31971 9.59995H4.47971C3.98726 9.59995 3.88182 9.59438 3.81295 9.57785C3.52043 9.50761 3.29204 9.27923 3.22182 8.9867C3.20527 8.91786 3.19971 8.81241 3.19971 8.31995V4.47995C3.19971 3.9875 3.20527 3.88206 3.22182 3.8132C3.29204 3.52067 3.52043 3.29229 3.81295 3.22206ZM15.6797 1.59995L15.5992 1.5999C15.2337 1.59955 14.9186 1.59925 14.6394 1.66627C13.7619 1.87694 13.0767 2.56213 12.866 3.43968C12.799 3.71882 12.7993 4.0339 12.7997 4.39942L12.7997 4.47995V8.31995L12.7997 8.40048C12.7993 8.766 12.799 9.0811 12.866 9.36022C13.0767 10.2378 13.7619 10.923 14.6394 11.1336C14.9186 11.2007 15.2337 11.2004 15.5992 11.2L15.6797 11.2H19.5197L19.6002 11.2C19.9658 11.2004 20.2808 11.2007 20.56 11.1336C21.4375 10.923 22.1227 10.2378 22.3335 9.36022C22.4003 9.0811 22.4002 8.766 22.3997 8.40048V8.31995V4.47995V4.39942C22.4002 4.0339 22.4003 3.71882 22.3335 3.43968C22.1227 2.56213 21.4375 1.87694 20.56 1.66627C20.2808 1.59925 19.9658 1.59955 19.6002 1.5999L19.5197 1.59995H15.6797ZM15.013 3.22206C15.0818 3.20552 15.1873 3.19995 15.6797 3.19995H19.5197C20.0122 3.19995 20.1176 3.20552 20.1864 3.22206C20.4789 3.29229 20.7074 3.52067 20.7776 3.8132C20.7941 3.88206 20.7997 3.9875 20.7997 4.47995V8.31995C20.7997 8.81241 20.7941 8.91786 20.7776 8.9867C20.7074 9.27923 20.4789 9.50761 20.1864 9.57785C20.1176 9.59438 20.0122 9.59995 19.5197 9.59995H15.6797C15.1873 9.59995 15.0818 9.59438 15.013 9.57785C14.7204 9.50761 14.492 9.27923 14.4218 8.9867C14.4053 8.91786 14.3997 8.81241 14.3997 8.31995V4.47995C14.3997 3.9875 14.4053 3.88206 14.4218 3.8132C14.492 3.52067 14.7204 3.29229 15.013 3.22206ZM4.39918 12.7999L4.47971 12.8H8.31971L8.40023 12.7999C8.76575 12.7996 9.08086 12.7992 9.35998 12.8663C10.2375 13.0769 10.9227 13.7621 11.1334 14.6397C11.2004 14.9188 11.2001 15.2339 11.1998 15.5994L11.1997 15.68V19.5199L11.1998 19.6004C11.2001 19.966 11.2004 20.2811 11.1334 20.5603C10.9227 21.4377 10.2375 22.123 9.35998 22.3337C9.08086 22.4006 8.76575 22.4004 8.40023 22.4H8.31971H4.47971H4.39918C4.03366 22.4004 3.71857 22.4006 3.43943 22.3337C2.56188 22.123 1.8767 21.4377 1.66603 20.5603C1.59901 20.2811 1.59931 19.966 1.59966 19.6004L1.59971 19.5199V15.68L1.59966 15.5994C1.59931 15.2339 1.59901 14.9188 1.66603 14.6397C1.8767 13.7621 2.56188 13.0769 3.43943 12.8663C3.71857 12.7992 4.03366 12.7996 4.39918 12.7999ZM4.47971 14.4C3.98726 14.4 3.88182 14.4055 3.81295 14.4221C3.52043 14.4923 3.29204 14.7207 3.22182 15.0132C3.20527 15.0821 3.19971 15.1875 3.19971 15.68V19.5199C3.19971 20.0124 3.20527 20.1179 3.22182 20.1867C3.29204 20.4792 3.52043 20.7076 3.81295 20.7779C3.88182 20.7943 3.98726 20.7999 4.47971 20.7999H8.31971C8.81217 20.7999 8.91761 20.7943 8.98646 20.7779C9.27899 20.7076 9.50737 20.4792 9.57761 20.1867C9.59414 20.1179 9.59971 20.0124 9.59971 19.5199V15.68C9.59971 15.1875 9.59414 15.0821 9.57761 15.0132C9.50737 14.7207 9.27899 14.4923 8.98646 14.4221C8.91761 14.4055 8.81217 14.4 8.31971 14.4H4.47971ZM15.6797 12.8L15.5992 12.7999C15.2337 12.7996 14.9186 12.7992 14.6394 12.8663C13.7619 13.0769 13.0767 13.7621 12.866 14.6397C12.799 14.9188 12.7993 15.2339 12.7997 15.5994L12.7997 15.68V19.5199L12.7997 19.6004C12.7993 19.966 12.799 20.2811 12.866 20.5603C13.0767 21.4377 13.7619 22.123 14.6394 22.3337C14.9186 22.4006 15.2337 22.4004 15.5992 22.4H15.6797H19.5197H19.6002C19.9658 22.4004 20.2808 22.4006 20.56 22.3337C21.4375 22.123 22.1227 21.4377 22.3335 20.5603C22.4003 20.2811 22.4002 19.966 22.3997 19.6004V19.5199V15.68V15.5994C22.4002 15.2339 22.4003 14.9188 22.3335 14.6397C22.1227 13.7621 21.4375 13.0769 20.56 12.8663C20.2808 12.7992 19.9658 12.7996 19.6002 12.7999L19.5197 12.8H15.6797ZM15.013 14.4221C15.0818 14.4055 15.1873 14.4 15.6797 14.4H19.5197C20.0122 14.4 20.1176 14.4055 20.1864 14.4221C20.4789 14.4923 20.7074 14.7207 20.7776 15.0132C20.7941 15.0821 20.7997 15.1875 20.7997 15.68V19.5199C20.7997 20.0124 20.7941 20.1179 20.7776 20.1867C20.7074 20.4792 20.4789 20.7076 20.1864 20.7779C20.1176 20.7943 20.0122 20.7999 19.5197 20.7999H15.6797C15.1873 20.7999 15.0818 20.7943 15.013 20.7779C14.7204 20.7076 14.492 20.4792 14.4218 20.1867C14.4053 20.1179 14.3997 20.0124 14.3997 19.5199V15.68C14.3997 15.1875 14.4053 15.0821 14.4218 15.0132C14.492 14.7207 14.7204 14.4923 15.013 14.4221Z" fill="#999999"/>
</svg>
