<svg width="25" height="18" viewBox="0 0 25 18" fill="none" xmlns="http://www.w3.org/2000/svg">
<path d="M12.6234 0.998535H12.7569C13.9899 1.00304 20.2374 1.04804 21.9219 1.50104C22.4311 1.63929 22.8951 1.90877 23.2676 2.28255C23.6401 2.65633 23.9079 3.12131 24.0444 3.63104C24.1959 4.20104 24.3024 4.95553 24.3744 5.73404L24.3894 5.89004L24.4224 6.28003L24.4344 6.43603C24.5319 7.80703 24.5439 9.09103 24.5454 9.37153V9.48403C24.5439 9.77503 24.5304 11.146 24.4224 12.574L24.4104 12.7315L24.3969 12.8875C24.3219 13.7455 24.2109 14.5975 24.0444 15.2245C23.9083 15.7345 23.6406 16.1997 23.2681 16.5735C22.8956 16.9474 22.4313 17.2167 21.9219 17.3545C20.1819 17.8225 13.5684 17.8555 12.6519 17.857H12.4389C11.9754 17.857 10.0584 17.848 8.04837 17.779L7.79337 17.77L7.66287 17.764L7.40637 17.7535L7.14987 17.743C5.48487 17.6695 3.89937 17.551 3.16887 17.353C2.65961 17.2153 2.19547 16.9462 1.82296 16.5726C1.45045 16.1991 1.18265 15.7342 1.04637 15.2245C0.879875 14.599 0.768875 13.7455 0.693875 12.8875L0.681875 12.73L0.669875 12.574C0.595846 11.5576 0.554825 10.5391 0.546875 9.52003L0.546875 9.33553C0.549875 9.01303 0.561875 7.89853 0.642875 6.66853L0.653375 6.51404L0.657875 6.43603L0.669875 6.28003L0.702875 5.89004L0.717875 5.73404C0.789875 4.95553 0.896375 4.19953 1.04787 3.63104C1.18392 3.12111 1.45162 2.6559 1.82414 2.28206C2.19667 1.90822 2.66093 1.63887 3.17037 1.50104C3.90087 1.30604 5.48637 1.18604 7.15137 1.11104L7.40637 1.10054L7.66437 1.09154L7.79337 1.08704L8.04987 1.07654C9.47744 1.0306 10.9056 1.00509 12.3339 1.00004H12.6234V0.998535ZM10.1469 5.81353V13.0405L16.3824 9.42853L10.1469 5.81353Z" fill="white"/>
</svg>
