<svg width="30" height="24" viewBox="0 0 30 24" fill="none" xmlns="http://www.w3.org/2000/svg">
<path d="M29.5452 2.84287C28.7225 4.06666 27.7131 5.10989 26.5171 5.97254C26.5289 6.2039 26.5348 6.4654 26.5348 6.75703C26.5348 8.3774 26.2986 9.99973 25.8261 11.624C25.3536 13.2483 24.6319 14.8031 23.6609 16.2882C22.69 17.7734 21.5334 19.0892 20.1912 20.2355C18.8489 21.3818 17.2355 22.2958 15.3509 22.9775C13.4663 23.6592 11.4465 24 9.29153 24C5.92833 24 2.83115 23.0921 0 21.2762C0.502496 21.3321 0.984432 21.3601 1.44581 21.3601C4.25549 21.3601 6.76498 20.4947 8.9743 18.7638C7.66426 18.7398 6.49103 18.3365 5.4546 17.554C4.41817 16.7715 3.70492 15.7716 3.31486 14.5543C3.70041 14.6277 4.08094 14.6645 4.45644 14.6645C4.99695 14.6645 5.52881 14.594 6.05201 14.453C4.65396 14.173 3.49416 13.4766 2.57261 12.364C1.65109 11.2514 1.19033 9.9672 1.19033 8.51146V8.43643C2.04846 8.91157 2.96378 9.1643 3.93631 9.19464C3.10812 8.64251 2.45149 7.92252 1.96642 7.03466C1.48131 6.14681 1.23876 5.18599 1.23876 4.15222C1.23876 3.06193 1.51197 2.04666 2.05838 1.10642C3.57874 2.97214 5.42096 4.46327 7.58506 5.57983C9.74918 6.69641 12.0709 7.31652 14.5501 7.44017C14.4444 6.99948 14.3914 6.5396 14.3912 6.06053C14.3912 4.38779 14.9832 2.95952 16.1671 1.77571C17.351 0.591904 18.7793 0 20.4521 0C22.2034 0 23.6785 0.637688 24.8775 1.91306C26.2474 1.64172 27.53 1.15093 28.7255 0.440688C28.2649 1.89013 27.3775 3.00827 26.0631 3.79512C27.2711 3.65157 28.4318 3.33415 29.5452 2.84287H29.5452Z" fill="white"/>
</svg>
