<svg width="16" height="16" viewBox="0 0 16 16" fill="none" xmlns="http://www.w3.org/2000/svg">
<path d="M7.33398 12H8.66732V10.6667H7.33398V12ZM8.00065 1.33337C4.32065 1.33337 1.33398 4.32004 1.33398 8.00004C1.33398 11.68 4.32065 14.6667 8.00065 14.6667C11.6807 14.6667 14.6673 11.68 14.6673 8.00004C14.6673 4.32004 11.6807 1.33337 8.00065 1.33337ZM8.00065 13.3334C5.06065 13.3334 2.66732 10.94 2.66732 8.00004C2.66732 5.06004 5.06065 2.66671 8.00065 2.66671C10.9407 2.66671 13.334 5.06004 13.334 8.00004C13.334 10.94 10.9407 13.3334 8.00065 13.3334ZM8.00065 4.00004C6.52732 4.00004 5.33398 5.19337 5.33398 6.66671H6.66732C6.66732 5.93337 7.26732 5.33337 8.00065 5.33337C8.73398 5.33337 9.33398 5.93337 9.33398 6.66671C9.33398 8.00004 7.33398 7.83337 7.33398 10H8.66732C8.66732 8.50004 10.6673 8.33337 10.6673 6.66671C10.6673 5.19337 9.47398 4.00004 8.00065 4.00004Z" fill="#2E3192"/>
</svg>
