<svg width="104" height="54" viewBox="0 0 104 54" fill="none" xmlns="http://www.w3.org/2000/svg">
<g clip-path="url(#clip0_2037_3851)">
<path d="M24.0604 17.284H33.1244V53.2809H24.0441V49.0225C23.1427 50.6291 21.8332 51.8847 20.2898 52.6222C18.5442 53.5479 16.6408 54.0231 14.7154 54.0139C12.0718 54.0331 9.48212 53.1616 7.272 51.5089C4.9912 49.8168 3.14722 47.4631 1.92969 44.6899C0.622151 41.7715 -0.0456611 38.5357 -0.0166732 35.2593C-0.0166732 30.0608 1.41256 25.6478 4.27102 22.0202C7.12948 18.3927 10.6164 16.5743 14.7317 16.565C16.6521 16.5535 18.5507 17.0288 20.2898 17.9567C22.0299 18.8844 23.2867 20.0781 24.0604 21.5378V17.284ZM16.731 44.1889C18.2308 44.197 19.7073 43.7657 21.0187 42.9365C22.2633 42.1895 23.3094 41.0763 24.0482 39.7125V30.8988C23.3187 29.5136 22.2769 28.3764 21.0309 27.6053C19.7257 26.755 18.2467 26.3118 16.7432 26.3204C15.6969 26.2932 14.6565 26.5046 13.6829 26.9419C12.7093 27.3793 11.8223 28.0339 11.0739 28.8673C10.3255 29.7007 9.73083 30.6961 9.32484 31.7949C8.91885 32.8938 8.70971 34.074 8.70971 35.2663C8.70971 36.4585 8.91885 37.6387 9.32484 38.7376C9.73083 39.8365 10.3255 40.8318 11.0739 41.6652C11.8223 42.4986 12.7093 43.1532 13.6829 43.5906C14.6565 44.028 15.6969 44.2393 16.7432 44.2121L16.731 44.1889Z" fill="#2E3192"/>
<path d="M47.5351 15.1688V17.2841H55.292V27.1415H47.5351V53.2996H38.4548V27.1415H35.3887V17.2841H38.4548V14.6679C38.4548 10.0878 39.6126 6.49742 41.9281 3.89661C44.2437 1.29581 47.2813 -0.00304956 51.041 4.29603e-05C52.6449 -0.0389412 54.2355 0.340273 55.6911 1.10871L55.2188 10.1961C54.2966 9.86022 53.3364 9.67896 52.3684 9.65797C51.7321 9.64156 51.0991 9.76923 50.5064 10.0336C49.9137 10.298 49.3729 10.6938 48.9155 11.198C48.4536 11.7125 48.092 12.3319 47.8542 13.016C47.6164 13.7002 47.5077 14.4337 47.5351 15.1688Z" fill="#2E3192"/>
<path d="M91.089 16.5651C94.8894 16.5651 97.9881 17.884 100.385 20.522C102.782 23.1599 103.987 26.625 104.001 30.9175V53.281H94.8595V33.0652C94.8595 30.919 94.3668 29.2181 93.3814 27.9626C92.8761 27.3393 92.2568 26.85 91.5673 26.5294C90.8778 26.2088 90.1348 26.0646 89.391 26.1071C88.2447 26.1205 87.1246 26.4998 86.1579 27.2018C85.164 27.8701 84.3326 28.8109 83.7392 29.9387V53.3042H74.6589V33.0652C74.6589 30.9407 74.1621 29.2398 73.1686 27.9626C72.6976 27.35 72.1144 26.8627 71.4601 26.5349C70.8058 26.207 70.0964 26.0468 69.3818 26.0653C68.1504 26.0447 66.9401 26.4297 65.8962 27.174C64.8985 27.879 64.102 28.8992 63.6037 30.1103V53.2624H54.5234V17.2841H63.6037V21.3987C64.5398 19.9449 65.7668 18.7665 67.1829 17.9614C68.8679 16.9985 70.7343 16.5206 72.6189 16.5697C76.6908 16.5697 79.6225 18.2521 81.4142 21.6167C82.5685 20.1165 83.9789 18.8996 85.5593 18.0402C87.2752 17.0604 89.1696 16.5551 91.089 16.5651Z" fill="#2E3192"/>
<path d="M74.1533 12.2975L73.9375 11.648H72.6223L72.4024 12.2975H71.6328L72.9928 8.40088H73.5792L74.9433 12.2975H74.1533ZM72.8544 10.9058H73.6973L73.2901 9.66263L72.8544 10.9058Z" fill="#140F31"/>
<path d="M76.5315 8.38215C76.8329 8.37472 77.1249 8.50115 77.3459 8.73469C77.4536 8.84866 77.5387 8.98746 77.5955 9.14183C77.6524 9.29621 77.6797 9.46262 77.6757 9.62998C77.6828 9.80258 77.657 9.97487 77.6 10.135C77.5431 10.2952 77.4564 10.4394 77.3459 10.5577C77.1263 10.7942 76.8337 10.9226 76.5315 10.9149H75.9492V12.3066H75.2285V8.40998L76.5315 8.38215ZM76.5315 10.1031C76.6462 10.1064 76.7574 10.0581 76.841 9.96861C76.8804 9.92456 76.9116 9.87182 76.9326 9.8136C76.9536 9.75539 76.964 9.69291 76.9631 9.62998C76.9646 9.56901 76.9544 9.50842 76.9333 9.45236C76.9122 9.39631 76.8807 9.34612 76.841 9.30526C76.7567 9.21745 76.6456 9.1708 76.5315 9.17538H75.9492V10.1031H76.5315Z" fill="#140F31"/>
<path d="M79.3733 8.38215C79.6747 8.37472 79.9667 8.50115 80.1877 8.73469C80.2948 8.84889 80.3793 8.98784 80.4355 9.14224C80.4917 9.29664 80.5182 9.46293 80.5134 9.62998C80.5213 9.80226 80.4962 9.97443 80.44 10.1346C80.3838 10.2948 80.2977 10.4392 80.1877 10.5577C79.9681 10.7942 79.6754 10.9226 79.3733 10.9149H78.791V12.3066H78.0703V8.40998L79.3733 8.38215ZM79.3733 10.1031C79.4295 10.1047 79.4854 10.0936 79.5378 10.0705C79.5902 10.0474 79.6381 10.0128 79.6787 9.96861C79.7189 9.92496 79.7508 9.87239 79.7725 9.81416C79.7943 9.75592 79.8053 9.69325 79.8049 9.62998C79.8067 9.56852 79.7963 9.50739 79.7744 9.45116C79.7526 9.39494 79.7198 9.34506 79.6787 9.30526C79.6384 9.26082 79.5905 9.22634 79.5379 9.20399C79.4854 9.18164 79.4293 9.17189 79.3733 9.17538H78.791V10.1031H79.3733Z" fill="#140F31"/>
<path d="M80.9121 8.38232H81.6328V11.4903H83.2087V12.2975H80.9203L80.9121 8.38232Z" fill="#140F31"/>
<path d="M82.627 8.38232H83.5146L84.272 9.77396L85.0294 8.38232H85.8722L84.6262 10.6321V12.2975H83.9015V10.6321L82.627 8.38232Z" fill="#140F31"/>
<path d="M87.1719 8.38232H89.2689V9.17555H87.8967V9.97806H89.1182V10.7667H87.8967V12.2975H87.1719V8.38232Z" fill="#140F31"/>
<path d="M90.3635 8.58644C90.6344 8.40833 90.9425 8.31697 91.2552 8.32203C91.5747 8.31392 91.8901 8.40534 92.1673 8.58644C92.4309 8.75517 92.648 9.00413 92.7944 9.30545C92.9441 9.61858 93.0225 9.96944 93.0225 10.326C93.0225 10.6825 92.9441 11.0334 92.7944 11.3465C92.6472 11.6495 92.4304 11.9012 92.1673 12.0748C91.8949 12.2482 91.5876 12.3377 91.2756 12.3346C90.9634 12.339 90.6558 12.2494 90.3838 12.0748C90.1099 11.9154 89.8812 11.671 89.7242 11.3697C89.5745 11.0566 89.4961 10.7057 89.4961 10.3492C89.4961 9.99263 89.5745 9.64177 89.7242 9.32864C89.8709 9.01689 90.0927 8.75937 90.3635 8.58644ZM91.9678 9.46781C91.8749 9.3591 91.7637 9.2727 91.641 9.2137C91.5183 9.15471 91.3864 9.12432 91.2532 9.12432C91.12 9.12432 90.9881 9.15471 90.8654 9.2137C90.7426 9.2727 90.6315 9.3591 90.5386 9.46781C90.3529 9.70358 90.2502 10.0092 90.2502 10.326C90.2502 10.6428 90.3529 10.9484 90.5386 11.1842C90.6309 11.294 90.7419 11.3815 90.8647 11.4412C90.9875 11.5009 91.1197 11.5317 91.2532 11.5317C91.3867 11.5317 91.5189 11.5009 91.6417 11.4412C91.7645 11.3815 91.8755 11.294 91.9678 11.1842C92.1535 10.9484 92.2562 10.6428 92.2562 10.326C92.2562 10.0092 92.1535 9.70358 91.9678 9.46781Z" fill="#140F31"/>
<path d="M96.1704 12.2975H95.2868L94.5172 10.813H94.1467V12.2975H93.4219V8.40088H94.7412C94.9283 8.40275 95.112 8.45861 95.2751 8.56326C95.4381 8.6679 95.5752 8.81791 95.6736 8.99928C95.7706 9.18264 95.8213 9.3929 95.8202 9.60696C95.8245 9.83465 95.7738 10.0593 95.6736 10.2564C95.5802 10.4434 95.4378 10.5926 95.2664 10.6832L96.1704 12.2975ZM94.1345 9.19875V10.0987H94.6557C94.7103 10.1009 94.7648 10.0905 94.8159 10.0682C94.867 10.0459 94.9136 10.0121 94.9529 9.96879C94.9924 9.92774 95.0238 9.87751 95.0449 9.8215C95.0659 9.76549 95.0762 9.70499 95.0751 9.64407C95.0761 9.58452 95.0658 9.52543 95.0447 9.47094C95.0235 9.41645 94.9922 9.36788 94.9529 9.32863C94.9136 9.28535 94.867 9.25154 94.8159 9.22922C94.7648 9.20691 94.7103 9.19654 94.6557 9.19875H94.1345Z" fill="#140F31"/>
<path d="M97.5059 12.2975V8.40088H98.3813L99.3993 11.0867L100.466 8.40088H101.203V12.2975H100.478V9.97806L99.6029 12.2975H99.0898L98.2266 9.97806V12.2975H97.5059Z" fill="#140F31"/>
<path d="M101.721 8.38232H103.818V9.17555H102.445V9.87601H103.667V10.6646H102.445V11.4903H103.818V12.2975H101.721V8.38232Z" fill="#140F31"/>
</g>
<defs>
<clipPath id="clip0_2037_3851">
<rect width="104" height="54" fill="white"/>
</clipPath>
</defs>
</svg>
