<svg width="36" height="36" viewBox="0 0 36 36" fill="none" xmlns="http://www.w3.org/2000/svg">
<path d="M18.0298 30.7949C14.5348 30.7949 11.0398 30.2399 7.7248 29.1299C6.4648 28.6949 5.5048 27.8099 5.0848 26.6549C4.6498 25.4999 4.7998 24.2249 5.4898 23.0849L7.2148 20.2199C7.5748 19.6199 7.9048 18.4199 7.9048 17.7149V13.3799C7.9048 7.79988 12.4498 3.25488 18.0298 3.25488C23.6098 3.25488 28.1548 7.79988 28.1548 13.3799V17.7149C28.1548 18.4049 28.4848 19.6199 28.8448 20.2349L30.5548 23.0849C31.1998 24.1649 31.3198 25.4699 30.8848 26.6549C30.4498 27.8399 29.5048 28.7399 28.3198 29.1299C25.0198 30.2399 21.5248 30.7949 18.0298 30.7949ZM18.0298 5.50488C13.6948 5.50488 10.1548 9.02988 10.1548 13.3799V17.7149C10.1548 18.8099 9.7048 20.4299 9.1498 21.3749L7.4248 24.2399C7.0948 24.7949 7.0048 25.3799 7.1998 25.8749C7.3798 26.3849 7.8298 26.7749 8.4448 26.9849C14.7148 29.0849 21.3598 29.0849 27.6298 26.9849C28.1698 26.8049 28.5898 26.3999 28.7848 25.8599C28.9798 25.3199 28.9348 24.7349 28.6348 24.2399L26.9098 21.3749C26.3398 20.3999 25.9048 18.7949 25.9048 17.6999V13.3799C25.9048 9.02988 22.3798 5.50488 18.0298 5.50488Z" fill="#2E3192"/>
<path d="M20.8209 5.9099C20.7159 5.9099 20.6109 5.8949 20.5059 5.8649C20.0709 5.7449 19.6509 5.6549 19.2459 5.5949C17.9709 5.4299 16.7409 5.5199 15.5859 5.8649C15.1659 5.9999 14.7159 5.8649 14.4309 5.5499C14.1459 5.2349 14.0559 4.7849 14.2209 4.3799C14.8359 2.8049 16.3359 1.7699 18.0459 1.7699C19.7559 1.7699 21.2559 2.7899 21.8709 4.3799C22.0209 4.7849 21.9459 5.2349 21.6609 5.5499C21.4359 5.7899 21.1209 5.9099 20.8209 5.9099Z" fill="#2E3192"/>
<path d="M18.0293 34.215C16.5443 34.215 15.1043 33.615 14.0543 32.565C13.0043 31.515 12.4043 30.075 12.4043 28.59H14.6543C14.6543 29.475 15.0143 30.345 15.6443 30.975C16.2743 31.605 17.1443 31.965 18.0293 31.965C19.8893 31.965 21.4043 30.45 21.4043 28.59H23.6543C23.6543 31.695 21.1343 34.215 18.0293 34.215Z" fill="#2E3192"/>
</svg>
