<svg width="16" height="16" viewBox="0 0 16 16" fill="none" xmlns="http://www.w3.org/2000/svg">
<path d="M7.21153 12.318C5.81353 12.318 4.41553 12.096 3.08953 11.652C2.58553 11.478 2.20153 11.124 2.03353 10.662C1.85953 10.2 1.91953 9.69 2.19553 9.234L2.88553 8.088C3.02953 7.848 3.16153 7.368 3.16153 7.086V5.352C3.16153 3.12 4.97953 1.302 7.21153 1.302C9.44353 1.302 11.2615 3.12 11.2615 5.352V7.086C11.2615 7.362 11.3935 7.848 11.5375 8.094L12.2215 9.234C12.4795 9.666 12.5275 10.188 12.3535 10.662C12.1795 11.136 11.8015 11.496 11.3275 11.652C10.0075 12.096 8.60953 12.318 7.21153 12.318ZM7.21153 2.202C5.47753 2.202 4.06153 3.612 4.06153 5.352V7.086C4.06153 7.524 3.88153 8.172 3.65953 8.55L2.96953 9.696C2.83753 9.918 2.80153 10.152 2.87953 10.35C2.95153 10.554 3.13153 10.71 3.37753 10.794C5.88553 11.634 8.54353 11.634 11.0515 10.794C11.2675 10.722 11.4355 10.56 11.5135 10.344C11.5915 10.128 11.5735 9.894 11.4535 9.696L10.7635 8.55C10.5355 8.16 10.3615 7.518 10.3615 7.08V5.352C10.3615 3.612 8.95153 2.202 7.21153 2.202Z" fill="#52515B"/>
<path d="M8.32914 2.36401C8.28714 2.36401 8.24514 2.35801 8.20314 2.34601C8.02914 2.29801 7.86114 2.26201 7.69914 2.23801C7.18914 2.17201 6.69714 2.20801 6.23514 2.34601C6.06714 2.40001 5.88714 2.34601 5.77314 2.22001C5.65914 2.09401 5.62314 1.91401 5.68914 1.75201C5.93514 1.12201 6.53514 0.708008 7.21914 0.708008C7.90314 0.708008 8.50314 1.11601 8.74914 1.75201C8.80914 1.91401 8.77914 2.09401 8.66514 2.22001C8.57514 2.31601 8.44914 2.36401 8.32914 2.36401Z" fill="#52515B"/>
<path d="M7.21094 13.686C6.61694 13.686 6.04094 13.446 5.62094 13.026C5.20094 12.606 4.96094 12.03 4.96094 11.436H5.86094C5.86094 11.79 6.00494 12.138 6.25694 12.39C6.50894 12.642 6.85694 12.786 7.21094 12.786C7.95494 12.786 8.56094 12.18 8.56094 11.436H9.46094C9.46094 12.678 8.45294 13.686 7.21094 13.686Z" fill="#52515B"/>
</svg>
