<svg width="24" height="24" viewBox="0 0 24 24" fill="none" xmlns="http://www.w3.org/2000/svg">
<path d="M22.1267 4.96071H17.0672V4.05538C17.0672 2.98775 16.1987 2.11914 15.131 2.11914H8.86899C7.80143 2.11914 6.93281 2.98769 6.93281 4.05538V4.96071H1.87341C0.840408 4.96071 0 5.80105 0 6.83399V20.0093C0 21.0423 0.840408 21.8827 1.87341 21.8827H22.1266C23.1596 21.8827 24 21.0423 24 20.0093V6.83399C24.0001 5.80111 23.1597 4.96071 22.1267 4.96071ZM8.56893 4.05538C8.56893 3.88988 8.70361 3.7552 8.86905 3.7552H15.1311C15.2965 3.7552 15.4312 3.88988 15.4312 4.05538V4.96071H8.56893V4.05538ZM1.87348 6.59676H22.1267C22.2575 6.59676 22.364 6.70317 22.364 6.83399V11.1269C19.8289 12.0673 16.0051 12.6227 11.9931 12.6227C7.99003 12.6227 4.17142 12.0692 1.63605 11.1319V6.83399C1.63612 6.70317 1.74259 6.59676 1.87348 6.59676ZM22.1267 20.2466H1.87348C1.74259 20.2466 1.63612 20.1402 1.63612 20.0093V12.8652C3.95657 13.6307 7.00742 14.1091 10.3322 14.229C10.332 14.2385 10.3308 14.2477 10.3308 14.2573V14.6181C10.3308 15.2944 10.8811 15.8447 11.5575 15.8447H12.4427C13.1191 15.8447 13.6694 15.2944 13.6694 14.6181V14.2573C13.6694 14.2477 13.6681 14.2382 13.668 14.2286C16.9949 14.1077 20.0453 13.6279 22.3641 12.8609V20.0094C22.364 20.1402 22.2575 20.2466 22.1267 20.2466Z" fill="white"/>
</svg>
