<svg width="18" height="18" viewBox="0 0 18 18" fill="none" xmlns="http://www.w3.org/2000/svg">
<path d="M12.755 11.2549H11.965L11.685 10.9849C12.665 9.84488 13.255 8.36488 13.255 6.75488C13.255 3.16488 10.345 0.254883 6.755 0.254883C3.165 0.254883 0.255005 3.16488 0.255005 6.75488C0.255005 10.3449 3.165 13.2549 6.755 13.2549C8.365 13.2549 9.845 12.6649 10.985 11.6849L11.255 11.9649V12.7549L16.255 17.7449L17.745 16.2549L12.755 11.2549ZM6.755 11.2549C4.26501 11.2549 2.255 9.24488 2.255 6.75488C2.255 4.26488 4.26501 2.25488 6.755 2.25488C9.245 2.25488 11.255 4.26488 11.255 6.75488C11.255 9.24488 9.245 11.2549 6.755 11.2549Z" fill="#BFBFBF"/>
</svg>
