<svg width="40" height="40" viewBox="0 0 40 40" fill="none" xmlns="http://www.w3.org/2000/svg">
<path d="M26.2591 23.7584H24.9424L24.4758 23.3084C26.1091 21.4084 27.0924 18.9417 27.0924 16.2584C27.0924 10.275 22.2424 5.42505 16.2591 5.42505C10.2758 5.42505 5.42578 10.275 5.42578 16.2584C5.42578 22.2417 10.2758 27.0917 16.2591 27.0917C18.9424 27.0917 21.4091 26.1084 23.3091 24.475L23.7591 24.9417V26.2584L32.0924 34.5751L34.5758 32.0917L26.2591 23.7584ZM16.2591 23.7584C12.1091 23.7584 8.75911 20.4084 8.75911 16.2584C8.75911 12.1084 12.1091 8.75838 16.2591 8.75838C20.4091 8.75838 23.7591 12.1084 23.7591 16.2584C23.7591 20.4084 20.4091 23.7584 16.2591 23.7584Z" fill="#FEFEFF"/>
</svg>
