<svg width="32" height="32" viewBox="0 0 32 32" fill="none" xmlns="http://www.w3.org/2000/svg">
<path d="M21.0065 19.0068H19.9532L19.5798 18.6468C20.8865 17.1268 21.6732 15.1534 21.6732 13.0068C21.6732 8.22009 17.7932 4.34009 13.0065 4.34009C8.21984 4.34009 4.33984 8.22009 4.33984 13.0068C4.33984 17.7934 8.21984 21.6734 13.0065 21.6734C15.1532 21.6734 17.1265 20.8868 18.6465 19.5801L19.0065 19.9534V21.0068L25.6732 27.6601L27.6598 25.6734L21.0065 19.0068ZM13.0065 19.0068C9.68651 19.0068 7.00651 16.3268 7.00651 13.0068C7.00651 9.68675 9.68651 7.00675 13.0065 7.00675C16.3265 7.00675 19.0065 9.68675 19.0065 13.0068C19.0065 16.3268 16.3265 19.0068 13.0065 19.0068Z" fill="#2E3192"/>
</svg>
