<svg width="16" height="16" viewBox="0 0 16 16" fill="none" xmlns="http://www.w3.org/2000/svg">
<path fill-rule="evenodd" clip-rule="evenodd" d="M14 2.16667C14 1.52267 13.4773 1 12.8333 1H9.16667C9.03406 1 8.90688 1.05268 8.81311 1.14645C8.71935 1.24021 8.66667 1.36739 8.66667 1.5C8.66667 1.63261 8.71935 1.75979 8.81311 1.85355C8.90688 1.94732 9.03406 2 9.16667 2H12.8333C12.8775 2 12.9199 2.01756 12.9512 2.04882C12.9824 2.08007 13 2.12246 13 2.16667V13.8333C13 13.9253 12.9253 14 12.8333 14H9.16667C9.03406 14 8.90688 14.0527 8.81311 14.1464C8.71935 14.2402 8.66667 14.3674 8.66667 14.5C8.66667 14.6326 8.71935 14.7598 8.81311 14.8536C8.90688 14.9473 9.03406 15 9.16667 15H12.8333C13.1428 15 13.4395 14.8771 13.6583 14.6583C13.8771 14.4395 14 14.1428 14 13.8333V2.16667ZM3.32933 8.5L5.52933 10.8227C5.61696 10.9195 5.66323 11.0467 5.65825 11.1772C5.65328 11.3077 5.59745 11.4311 5.50271 11.5209C5.40797 11.6108 5.28183 11.66 5.15126 11.6581C5.02069 11.6562 4.89606 11.6033 4.804 11.5107L1.804 8.344C1.71594 8.25111 1.66685 8.12799 1.66685 8C1.66685 7.87201 1.71594 7.74889 1.804 7.656L4.804 4.48933C4.89606 4.39672 5.02069 4.3438 5.15126 4.34188C5.28183 4.33996 5.40797 4.38919 5.50271 4.47906C5.59745 4.56892 5.65328 4.69228 5.65825 4.82277C5.66323 4.95326 5.61696 5.08051 5.52933 5.17733L3.32933 7.5H8.83333C8.96594 7.5 9.09312 7.55268 9.18689 7.64645C9.28065 7.74022 9.33333 7.86739 9.33333 8C9.33333 8.13261 9.28065 8.25979 9.18689 8.35355C9.09312 8.44732 8.96594 8.5 8.83333 8.5H3.32933Z" fill="#2E3192"/>
</svg>
