<svg width="28" height="28" viewBox="0 0 28 28" fill="none" xmlns="http://www.w3.org/2000/svg">
<path d="M27.3332 4.90663L12.1198 20.1333L6.4665 14.48L8.3465 12.6L12.1198 16.3733L25.4532 3.03996L27.3332 4.90663ZM24.3865 11.6266C24.5598 12.3866 24.6665 13.1866 24.6665 14C24.6665 19.8933 19.8932 24.6666 13.9998 24.6666C8.1065 24.6666 3.33317 19.8933 3.33317 14C3.33317 8.10663 8.1065 3.33329 13.9998 3.33329C16.1065 3.33329 18.0532 3.94663 19.7065 4.99996L21.6265 3.07996C19.4665 1.55996 16.8398 0.666626 13.9998 0.666626C6.63984 0.666626 0.666504 6.63996 0.666504 14C0.666504 21.36 6.63984 27.3333 13.9998 27.3333C21.3598 27.3333 27.3332 21.36 27.3332 14C27.3332 12.4133 27.0398 10.8933 26.5332 9.47996L24.3865 11.6266Z" fill="#2E3192"/>
</svg>
