<svg width="24" height="24" viewBox="0 0 24 24" fill="none" xmlns="http://www.w3.org/2000/svg">
<g clip-path="url(#clip0_2649_40481)">
<path d="M16.8 23.1854V23.9854H17.6V23.1854H16.8ZM0.8 23.1854H0V23.9854H0.8V23.1854ZM23.2 23.2V24H24V23.2H23.2ZM12.8 5.59686C12.8 7.80402 11.0099 9.59374 8.8 9.59374V11.1937C11.8925 11.1937 14.4 8.68866 14.4 5.59686H12.8ZM8.8 9.59374C6.59013 9.59374 4.8 7.80402 4.8 5.59686H3.2C3.2 8.68866 5.70747 11.1937 8.8 11.1937V9.59374ZM4.8 5.59686C4.8 3.38971 6.59013 1.6 8.8 1.6V0C5.70747 0 3.2 2.50507 3.2 5.59686H4.8ZM8.8 1.6C11.0099 1.6 12.8 3.38971 12.8 5.59686H14.4C14.4 2.50507 11.8925 0 8.8 0V1.6ZM16.8 22.3854H0.8V23.9854H16.8V22.3854ZM1.6 23.1854C1.6 23.1832 1.6 23.181 1.6 23.1787C1.6 23.1765 1.6 23.1742 1.6 23.1722C1.6 23.1699 1.6 23.1677 1.6 23.1654C1.6 23.1632 1.6 23.161 1.6 23.1587C1.6 23.1566 1.6 23.1544 1.6 23.1522C1.6 23.1499 1.6 23.1477 1.6 23.1454C1.6 23.1432 1.6 23.1411 1.6 23.1389C1.6 23.1366 1.6 23.1344 1.6 23.1322C1.6 23.1299 1.6 23.1278 1.6 23.1256C1.6 23.1234 1.6 23.1211 1.6 23.1189C1.6 23.1166 1.6 23.1144 1.6 23.1123C1.6 23.1101 1.6 23.1078 1.6 23.1056C1.6 23.1034 1.6 23.1011 1.6 23.099C1.6 23.0968 1.6 23.0946 1.6 23.0923C1.6 23.0901 1.6 23.0878 1.6 23.0858C1.6 23.0835 1.6 23.0813 1.6 23.079C1.6 23.0768 1.6 23.0747 1.6 23.0725C1.6 23.0702 1.6 23.068 1.6 23.0658C1.6 23.0635 1.6 23.0614 1.6 23.0592C1.6 23.057 1.6 23.0547 1.6 23.0525C1.6 23.0504 1.6 23.0482 1.6 23.0459C1.6 23.0437 1.6 23.0414 1.6 23.0392C1.6 23.0371 1.6 23.0349 1.6 23.0326C1.6 23.0304 1.6 23.0282 1.6 23.0261C1.6 23.0238 1.6 23.0216 1.6 23.0194C1.6 23.0171 1.6 23.015 1.6 23.0128C1.6 23.0106 1.6 23.0083 1.6 23.0061C1.6 23.004 1.6 23.0018 1.6 22.9995C1.6 22.9973 1.6 22.995 1.6 22.993C1.6 22.9907 1.6 22.9885 1.6 22.9862C1.6 22.9842 1.6 22.9819 1.6 22.9797C1.6 22.9774 1.6 22.9752 1.6 22.9731C1.6 22.9709 1.6 22.9686 1.6 22.9664C1.6 22.9642 1.6 22.9621 1.6 22.9598C1.6 22.9576 1.6 22.9554 1.6 22.9533C1.6 22.951 1.6 22.9488 1.6 22.9466C1.6 22.9445 1.6 22.9422 1.6 22.94C1.6 22.9378 1.6 22.9355 1.6 22.9334C1.6 22.9312 1.6 22.929 1.6 22.9267C1.6 22.9246 1.6 22.9224 1.6 22.9202C1.6 22.9179 1.6 22.9158 1.6 22.9136C1.6 22.9114 1.6 22.9091 1.6 22.907C1.6 22.9048 1.6 22.9026 1.6 22.9003C1.6 22.8982 1.6 22.896 1.6 22.8938C1.6 22.8915 1.6 22.8894 1.6 22.8872C1.6 22.885 1.6 22.8827 1.6 22.8806C1.6 22.8784 1.6 22.8762 1.6 22.8739C1.6 22.8718 1.6 22.8696 1.6 22.8674C1.6 22.8651 1.6 22.863 1.6 22.8608C1.6 22.8586 1.6 22.8563 1.6 22.8542C1.6 22.852 1.6 22.8498 1.6 22.8477C1.6 22.8454 1.6 22.8432 1.6 22.841C1.6 22.8389 1.6 22.8366 1.6 22.8344C1.6 22.8323 1.6 22.8301 1.6 22.8278C1.6 22.8256 1.6 22.8235 1.6 22.8213C1.6 22.819 1.6 22.8168 1.6 22.8147C1.6 22.8125 1.6 22.8102 1.6 22.8082C1.6 22.8059 1.6 22.8037 1.6 22.8014C1.6 22.7994 1.6 22.7971 1.6 22.7949C1.6 22.7928 1.6 22.7906 1.6 22.7883C1.6 22.7862 1.6 22.784 1.6 22.7818C1.6 22.7795 1.6 22.7774 1.6 22.7752C1.6 22.773 1.6 22.7709 1.6 22.7686C1.6 22.7664 1.6 22.7643 1.6 22.7621C1.6 22.7598 1.6 22.7578 1.6 22.7555C1.6 22.7533 1.6 22.751 1.6 22.749C1.6 22.7467 1.6 22.7445 1.6 22.7424C1.6 22.7402 1.6 22.7379 1.6 22.7358C1.6 22.7336 1.6 22.7314 1.6 22.7293C1.6 22.727 1.6 22.7248 1.6 22.7227C1.6 22.7205 1.6 22.7182 1.6 22.7162C1.6 22.7139 1.6 22.7117 1.6 22.7096C1.6 22.7074 1.6 22.7051 1.6 22.703C1.6 22.7008 1.6 22.6986 1.6 22.6965C1.6 22.6942 1.6 22.692 1.6 22.6899C1.6 22.6877 1.6 22.6854 1.6 22.6834C1.6 22.6811 1.6 22.6789 1.6 22.6768C1.6 22.6746 1.6 22.6723 1.6 22.6702C1.6 22.668 1.6 22.6658 1.6 22.6637C1.6 22.6614 1.6 22.6594 1.6 22.6571C1.6 22.6549 1.6 22.6528 1.6 22.6506C1.6 22.6483 1.6 22.6462 1.6 22.644C1.6 22.6418 1.6 22.6397 1.6 22.6374C1.6 22.6354 1.6 22.6331 1.6 22.6309C1.6 22.6288 1.6 22.6266 1.6 22.6243C1.6 22.6222 1.6 22.62 1.6 22.6178C1.6 22.6157 1.6 22.6134 1.6 22.6114C1.6 22.6091 1.6 22.6069 1.6 22.6048C1.6 22.6026 1.6 22.6005 1.6 22.5982C1.6 22.596 1.6 22.5939 1.6 22.5917C1.6 22.5894 1.6 22.5874 1.6 22.5851C1.6 22.583 1.6 22.5808 1.6 22.5786C1.6 22.5765 1.6 22.5742 1.6 22.5722C1.6 22.5699 1.6 22.5677 1.6 22.5656C1.6 22.5634 1.6 22.5613 1.6 22.559C1.6 22.5568 1.6 22.5547 1.6 22.5525C1.6 22.5504 1.6 22.5482 1.6 22.5459C1.6 22.5438 1.6 22.5416 1.6 22.5395C1.6 22.5373 1.6 22.535 1.6 22.533C1.6 22.5307 1.6 22.5286 1.6 22.5264C1.6 22.5243 1.6 22.5221 1.6 22.5198C1.6 22.5178 1.6 22.5155 1.6 22.5134C1.6 22.5112 1.6 22.509 1.6 22.5069C1.6 22.5046 1.6 22.5026 1.6 22.5003C1.6 22.4982 1.6 22.496 1.6 22.4938C1.6 22.4917 1.6 22.4894 1.6 22.4874C1.6 22.4851 1.6 22.483 1.6 22.4808C1.6 22.4787 1.6 22.4765 1.6 22.4742C1.6 22.4722 1.6 22.4699 1.6 22.4678C1.6 22.4656 1.6 22.4635 1.6 22.4613C1.6 22.4592 1.6 22.457 1.6 22.4547C1.6 22.4526 1.6 22.4504 1.6 22.4483C1.6 22.4461 1.6 22.444 1.6 22.4418C1.6 22.4397 1.6 22.4374 1.6 22.4354C1.6 22.4331 1.6 22.4309 1.6 22.4288C1.6 22.4266 1.6 22.4245 1.6 22.4222C1.6 22.4202 1.6 22.4179 1.6 22.4158C1.6 22.4136 1.6 22.4115 1.6 22.4093C1.6 22.4072 1.6 22.405 1.6 22.4029C1.6 22.4006 1.6 22.3986 1.6 22.3963C1.6 22.3941 1.6 22.392 1.6 22.3898C1.6 22.3877 1.6 22.3854 1.6 22.3834C1.6 22.3811 1.6 22.379 1.6 22.3768C1.6 22.3747 1.6 22.3725 1.6 22.3704C1.6 22.3682 1.6 22.3661 1.6 22.3638C1.6 22.3618 1.6 22.3595 1.6 22.3574C1.6 22.3552 1.6 22.3531 1.6 22.3509C1.6 22.3488 1.6 22.3466 1.6 22.3445C1.6 22.3422 1.6 22.3402 1.6 22.3379C1.6 22.3358 1.6 22.3336 1.6 22.3315C1.6 22.3293 1.6 22.3272 1.6 22.325C1.6 22.3229 1.6 22.3206 1.6 22.3186C1.6 22.3163 1.6 22.3142 1.6 22.3122C1.6 22.3099 1.6 22.3078 1.6 22.3056C1.6 22.3035 1.6 22.3013 1.6 22.2992C1.6 22.297 1.6 22.2949 1.6 22.2926C1.6 22.2906 1.6 22.2883 1.6 22.2862C1.6 22.284 1.6 22.2819 1.6 22.2797C1.6 22.2776 1.6 22.2755 1.6 22.2733C1.6 22.2712 1.6 22.269 1.6 22.2669C1.6 22.2646 1.6 22.2626 1.6 22.2603C1.6 22.2582 1.6 22.256 1.6 22.2539C1.6 22.2518 1.6 22.2496 1.6 22.2475C1.6 22.2453 1.6 22.2432 1.6 22.241C1.6 22.2389 1.6 22.2366 1.6 22.2346C1.6 22.2325 1.6 22.2302 1.6 22.2282C1.6 22.2259 1.6 22.2238 1.6 22.2216C1.6 22.2195 1.6 22.2173 1.6 22.2152C1.6 22.2131 1.6 22.2109 1.6 22.2088C1.6 22.2066 1.6 22.2045 1.6 22.2022C1.6 22.2002 1.6 22.1981 1.6 22.1958C1.6 22.1938 1.6 22.1915 1.6 22.1894C1.6 22.1874 1.6 22.1851 1.6 22.183C1.6 22.1808 1.6 22.1787 1.6 22.1765C1.6 22.1744 1.6 22.1723 1.6 22.1701C1.6 22.168 1.6 22.1658 1.6 22.1637C1.6 22.1616 1.6 22.1594 1.6 22.1573C1.6 22.155 1.6 22.153 1.6 22.1509C1.6 22.1486 1.6 22.1466 1.6 22.1443C1.6 22.1422 1.6 22.1402 1.6 22.1379C1.6 22.1358 1.6 22.1338 1.6 22.1315C1.6 22.1294 1.6 22.1272 1.6 22.1251C1.6 22.123 1.6 22.1208 1.6 22.1187C1.6 22.1165 1.6 22.1144 1.6 22.1123C1.6 22.1101 1.6 22.108 1.6 22.1059C1.6 22.1037 1.6 22.1016 1.6 22.0994C1.6 22.0973 1.6 22.0952 1.6 22.093C1.6 22.0909 1.6 22.0888 1.6 22.0866C1.6 22.0845 1.6 22.0824 1.6 22.0802C1.6 22.0781 1.6 22.0758 1.6 22.0738C1.6 22.0717 1.6 22.0694 1.6 22.0674C1.6 22.0653 1.6 22.063 1.6 22.061C1.6 22.0589 1.6 22.0566 1.6 22.0546C1.6 22.0525 1.6 22.0502 1.6 22.0482C1.6 22.0461 1.6 22.0438 1.6 22.0418C1.6 22.0395 1.6 22.0374 1.6 22.0354C1.6 22.0331 1.6 22.031 1.6 22.029C1.6 22.0267 1.6 22.0246 1.6 22.0226C1.6 22.0203 1.6 22.0182 1.6 22.0162C1.6 22.0141 1.6 22.0118 1.6 22.0098C1.6 22.0077 1.6 22.0054 1.6 22.0034C1.6 22.0013 1.6 21.999 1.6 21.997C1.6 21.9949 1.6 21.9926 1.6 21.9906C1.6 21.9885 1.6 21.9862 1.6 21.9842C1.6 21.9821 1.6 21.9798 1.6 21.9778C1.6 21.9757 1.6 21.9736 1.6 21.9714C1.6 21.9693 1.6 21.9672 1.6 21.965C1.6 21.9629 1.6 21.9608 1.6 21.9586C1.6 21.9565 1.6 21.9544 1.6 21.9523C1.6 21.9501 1.6 21.948 1.6 21.9459C1.6 21.9437 1.6 21.9416 1.6 21.9395C1.6 21.9374 1.6 21.9352 1.6 21.9331C1.6 21.931 1.6 21.9288 1.6 21.9267C1.6 21.9246 1.6 21.9226 1.6 21.9203C1.6 21.9182 1.6 21.9162 1.6 21.9139C1.6 21.9118 1.6 21.9098 1.6 21.9077C1.6 21.9054 1.6 21.9034 1.6 21.9013C1.6 21.8992 1.6 21.897 1.6 21.8949C1.6 21.8928 1.6 21.8907 1.6 21.8885C1.6 21.8864 1.6 21.8843 1.6 21.8822C1.6 21.88 1.6 21.8779 1.6 21.8758C1.6 21.8738 1.6 21.8715 1.6 21.8694C1.6 21.8674 1.6 21.8653 1.6 21.863C1.6 21.861 1.6 21.8589 1.6 21.8568C1.6 21.8546 1.6 21.8525 1.6 21.8504C1.6 21.8483 1.6 21.8461 1.6 21.844C1.6 21.8419 1.6 21.8398 1.6 21.8376C1.6 21.8355 1.6 21.8334 1.6 21.8314C1.6 21.8293 1.6 21.827 1.6 21.825C1.6 21.8229 1.6 21.8208 1.6 21.8186C1.6 21.8165 1.6 21.8144 1.6 21.8123C1.6 21.8102 1.6 21.808 1.6 21.8059C1.6 21.8038 1.6 21.8018 1.6 21.7997C1.6 21.7974 1.6 21.7954 1.6 21.7933C1.6 21.7912 1.6 21.7891 1.6 21.7869C1.6 21.7848 1.6 21.7827 1.6 21.7806C1.6 21.7786 1.6 21.7763 1.6 21.7742C1.6 21.7722 1.6 21.7701 1.6 21.768C1.6 21.7658 1.6 21.7637 1.6 21.7616C1.6 21.7595 1.6 21.7574 1.6 21.7552C1.6 21.7531 1.6 21.751 1.6 21.749C1.6 21.7469 1.6 21.7448 1.6 21.7426C1.6 21.7405 1.6 21.7384 1.6 21.7363C1.6 21.7342 1.6 21.7322 1.6 21.7299C1.6 21.7278 1.6 21.7258 1.6 21.7237C1.6 21.7216 1.6 21.7195 1.6 21.7173C1.6 21.7152 1.6 21.7131 1.6 21.711C1.6 21.709 1.6 21.7069 1.6 21.7046C1.6 21.7026 1.6 21.7005 1.6 21.6984C1.6 21.6963 1.6 21.6942 1.6 21.6922C1.6 21.6899 1.6 21.6878 1.6 21.6858C1.6 21.6837 1.6 21.6816 1.6 21.6795C1.6 21.6774 1.6 21.6752 1.6 21.6731C1.6 21.671 1.6 21.669 1.6 21.6669C1.6 21.6648 1.6 21.6627 1.6 21.6605C1.6 21.6584 1.6 21.6563 1.6 21.6542C1.6 21.6522 1.6 21.6501 1.6 21.648C1.6 21.6459 1.6 21.6437 1.6 21.6416C1.6 21.6395 1.6 21.6374 1.6 21.6354C1.6 21.6333 1.6 21.6312 1.6 21.6291C1.6 21.627 1.6 21.6248 1.6 21.6227C1.6 21.6206 1.6 21.6186 1.6 21.6165C1.6 21.6144 1.6 21.6123 1.6 21.6102C1.6 21.6082 1.6 21.6061 1.6 21.6038C1.6 21.6018 1.6 21.5997 1.6 21.5976C1.6 21.5955 1.6 21.5934 1.6 21.5914C1.6 21.5893 1.6 21.5872 1.6 21.5851C1.6 21.583 1.6 21.5808 1.6 21.5787C1.6 21.5766 1.6 21.5746 1.6 21.5725C1.6 21.5704 1.6 21.5683 1.6 21.5662C1.6 21.5642 1.6 21.5621 1.6 21.56C1.6 21.5579 1.6 21.5558 1.6 21.5538C1.6 21.5515 1.6 21.5494 1.6 21.5474C1.6 21.5453 1.6 21.5432 1.6 21.5411C1.6 21.539 1.6 21.537 1.6 21.5349C1.6 21.5328 1.6 21.5307 1.6 21.5286C1.6 21.5266 1.6 21.5245 1.6 21.5224C1.6 21.5203 1.6 21.5182 1.6 21.5162C1.6 21.5139 1.6 21.5118 1.6 21.5098C1.6 21.5077 1.6 21.5056 1.6 21.5035C1.6 21.5014 1.6 21.4994 1.6 21.4973C1.6 21.4952 1.6 21.4931 1.6 21.491C1.6 21.489 1.6 21.4869 1.6 21.4848C1.6 21.4827 1.6 21.4806 1.6 21.4786C1.6 21.4765 1.6 21.4744 1.6 21.4723C1.6 21.4702 1.6 21.4682 1.6 21.4661C1.6 21.464 1.6 21.4619 1.6 21.4598C1.6 21.4578 1.6 21.4557 1.6 21.4536C1.6 21.4515 1.6 21.4494 1.6 21.4474C1.6 21.4453 1.6 21.4432 1.6 21.4411C1.6 21.439 1.6 21.437 1.6 21.4349C1.6 21.4328 1.6 21.4307 1.6 21.4286C1.6 21.4266 1.6 21.4245 1.6 21.4224C1.6 21.4203 1.6 21.4182 1.6 21.4162C1.6 21.4141 1.6 21.412 1.6 21.4099C1.6 21.4078 1.6 21.4058 1.6 21.4037C1.6 21.4016 1.6 21.3995 1.6 21.3974C1.6 21.3954 1.6 21.3933 1.6 21.3912C1.6 21.3891 1.6 21.387 1.6 21.385C1.6 21.3829 1.6 21.3808 1.6 21.3787C1.6 21.3766 1.6 21.3747 1.6 21.3726C1.6 21.3706 1.6 21.3685 1.6 21.3664C1.6 21.3643 1.6 21.3622 1.6 21.3602C1.6 21.3581 1.6 21.356 1.6 21.3539C1.6 21.3518 1.6 21.3498 1.6 21.3477C1.6 21.3456 1.6 21.3435 1.6 21.3414C1.6 21.3394 1.6 21.3374 1.6 21.3354C1.6 21.3333 1.6 21.3312 1.6 21.3291C1.6 21.327 1.6 21.325 1.6 21.3229C1.6 21.3208 1.6 21.3187 1.6 21.3166C1.6 21.3146 1.6 21.3125 1.6 21.3104C1.6 21.3085 1.6 21.3064 1.6 21.3043C1.6 21.3022 1.6 21.3002 1.6 21.2981C1.6 21.296 1.6 21.2939 1.6 21.2918C1.6 21.2898 1.6 21.2877 1.6 21.2858C1.6 21.2837 1.6 21.2816 1.6 21.2795C1.6 21.2774 1.6 21.2754 1.6 21.2733C1.6 21.2712 1.6 21.2691 1.6 21.2672C1.6 21.2651 1.6 21.263 1.6 21.261C1.6 21.2589 1.6 21.2568 1.6 21.2547C1.6 21.2526 1.6 21.2506 1.6 21.2486C1.6 21.2466 1.6 21.2445 1.6 21.2424C1.6 21.2403 1.6 21.2382 1.6 21.2362C1.6 21.2341 1.6 21.2322 1.6 21.2301C1.6 21.228 1.6 21.2259 1.6 21.2238C1.6 21.2218 1.6 21.2197 1.6 21.2178C1.6 21.2157 1.6 21.2136 1.6 21.2115C1.6 21.2094 1.6 21.2074 1.6 21.2053C1.6 21.2034 1.6 21.2013 1.6 21.1992C1.6 21.1971 1.6 21.195 1.6 21.193C1.6 21.191 1.6 21.189 1.6 21.1869C1.6 21.1848 1.6 21.1827 1.6 21.1806C1.6 21.1787 1.6 21.1766 1.6 21.1746C1.6 21.1725 1.6 21.1704 1.6 21.1683C1.6 21.1664 1.6 21.1643 1.6 21.1622C1.6 21.1602 1.6 21.1581 1.6 21.156C1.6 21.1541 1.6 21.152 1.6 21.1499C1.6 21.1478 1.6 21.1458 1.6 21.1438C1.6 21.1418 1.6 21.1397 1.6 21.1376C1.6 21.1355 1.6 21.1336 1.6 21.1315C1.6 21.1294 1.6 21.1274 1.6 21.1253C1.6 21.1234 1.6 21.1213 1.6 21.1192C1.6 21.1171 1.6 21.115 1.6 21.1131C1.6 21.111 1.6 21.109 1.6 21.1069C1.6 21.1048 1.6 21.1029 1.6 21.1008C1.6 21.0987 1.6 21.0966 1.6 21.0947C1.6 21.0926 1.6 21.0906 1.6 21.0885C1.6 21.0864 1.6 21.0845 1.6 21.0824C1.6 21.0803 1.6 21.0782 1.6 21.0763C1.6 21.0742 1.6 21.0722 1.6 21.0701C1.6 21.0682 1.6 21.0661 1.6 21.064C1.6 21.0619 1.6 21.0598 1.6 21.0579C1.6 21.0558 1.6 21.0538 1.6 21.0517C1.6 21.0498 1.6 21.0477 1.6 21.0456C1.6 21.0437 1.6 21.0416 1.6 21.0395C1.6 21.0374 1.6 21.0355 1.6 21.0334C1.6 21.0314 1.6 21.0293 1.6 21.0274C1.6 21.0253 1.6 21.0232 1.6 21.0211C1.6 21.0192 1.6 21.0171 1.6 21.015C1.6 21.0131 1.6 21.011 1.6 21.009C1.6 21.0069 1.6 21.005 1.6 21.0029C1.6 21.0008 1.6 20.9987 1.6 20.9968C1.6 20.9947 1.6 20.9926 1.6 20.9907C1.6 20.9886 1.6 20.9866 1.6 20.9846C1.6 20.9826 1.6 20.9805 1.6 20.9784C1.6 20.9765 1.6 20.9744 1.6 20.9723C1.6 20.9704 1.6 20.9683 1.6 20.9662C1.6 20.9643 1.6 20.9622 1.6 20.9602C1.6 20.9581 1.6 20.9562 1.6 20.9541C1.6 20.952 1.6 20.9501 1.6 20.948C1.6 20.9459 1.6 20.944 1.6 20.9419C1.6 20.9398 1.6 20.9379 1.6 20.9358C1.6 20.9338 1.6 20.9318 1.6 20.9298C1.6 20.9277 1.6 20.9258 1.6 20.9237C1.6 20.9216 1.6 20.9197 1.6 20.9176C1.6 20.9155 1.6 20.9136 1.6 20.9115C1.6 20.9094 1.6 20.9075 1.6 20.9054C1.6 20.9034 1.6 20.9014 1.6 20.8994C1.6 20.8974 1.6 20.8954 1.6 20.8933C1.6 20.8914 1.6 20.8893 1.6 20.8872C1.6 20.8853 1.6 20.8832 1.6 20.8811C1.6 20.8792 1.6 20.8771 1.6 20.8752C1.6 20.8731 1.6 20.871 1.6 20.8691C1.6 20.867 1.6 20.865 1.6 20.863C1.6 20.861 1.6 20.859 1.6 20.857C1.6 20.8549 1.6 20.853 1.6 20.8509C1.6 20.849 1.6 20.8469 1.6 20.8448C1.6 20.8429 1.6 20.8408 1.6 20.8387C1.6 20.8368 1.6 20.8347 1.6 20.8328C1.6 20.8307 1.6 20.8286 1.6 20.8267C1.6 20.8246 1.6 20.8227 1.6 20.8206C1.6 20.8187 1.6 20.8166 1.6 20.8146C1.6 20.8126 1.6 20.8106 1.6 20.8086C1.6 20.8066 1.6 20.8045 1.6 20.8026C1.6 20.8005 1.6 20.7986 1.6 20.7965C1.6 20.7946 1.6 20.7925 1.6 20.7904C1.6 20.7885 1.6 20.7864 1.6 20.7845C1.6 20.7824 1.6 20.7805 1.6 20.7784C1.6 20.7763 1.6 20.7744 1.6 20.7723C1.6 20.7704 1.6 20.7683 1.6 20.7664C1.6 20.7643 1.6 20.7624 1.6 20.7603C1.6 20.7582 1.6 20.7563 1.6 20.7542C1.6 20.7523 1.6 20.7502 1.6 20.7483C1.6 20.7462 1.6 20.7443 1.6 20.7422C1.6 20.7403 1.6 20.7382 1.6 20.7363C1.6 20.7342 1.6 20.7322 1.6 20.7302C1.6 20.7282 1.6 20.7262 1.6 20.7242C1.6 20.7222 1.6 20.7202 1.6 20.7182C1.6 20.7162 1.6 20.7142 1.6 20.7122C1.6 20.7102 1.6 20.7082 1.6 20.7062C1.6 20.7042 1.6 20.7022 1.6 20.7002C1.6 20.6982 1.6 20.6962 1.6 20.6942C1.6 20.6922 1.6 20.6902 1.6 20.6882C1.6 20.6862 1.6 20.6842 1.6 20.6822C1.6 20.6802 1.6 20.6782 1.6 20.6762C1.6 20.6742 1.6 20.6722 1.6 20.6702C1.6 20.6682 1.6 20.6662 1.6 20.6642C1.6 20.6622 1.6 20.6602 1.6 20.6582C1.6 20.6562 1.6 20.6542 1.6 20.6523C1.6 20.6502 1.6 20.6483 1.6 20.6462C1.6 20.6443 1.6 20.6422 1.6 20.6403C1.6 20.6382 1.6 20.6363 1.6 20.6342C1.6 20.6323 1.6 20.6302 1.6 20.6283C1.6 20.6264 1.6 20.6243 1.6 20.6224C1.6 20.6203 1.6 20.6184 1.6 20.6163C1.6 20.6144 1.6 20.6123 1.6 20.6104C1.6 20.6085 1.6 20.6064 1.6 20.6045C1.6 20.6024 1.6 20.6005 1.6 20.5984C1.6 20.5965 1.6 20.5946 1.6 20.5925C1.6 20.5906 1.6 20.5885 1.6 20.5866C1.6 20.5845 1.6 20.5826 1.6 20.5806C1.6 20.5786 1.6 20.5766 1.6 20.5746C1.6 20.5726 1.6 20.5707 1.6 20.5686C1.6 20.5667 1.6 20.5646 1.6 20.5627C1.6 20.5606 1.6 20.5587 1.6 20.5568C1.6 20.5547 1.6 20.5528 1.6 20.5509C1.6 20.5488 1.6 20.5469 1.6 20.5448C1.6 20.5429 1.6 20.541 1.6 20.5389C1.6 20.537 1.6 20.5349 1.6 20.533C1.6 20.531 1.6 20.529 1.6 20.527C1.6 20.5251 1.6 20.523 1.6 20.5211C1.6 20.519 1.6 20.5171 1.6 20.5152C1.6 20.5131 1.6 20.5112 1.6 20.5093C1.6 20.5072 1.6 20.5053 1.6 20.5032C1.6 20.5013 1.6 20.4994 1.6 20.4973C1.6 20.4954 1.6 20.4934 1.6 20.4914C1.6 20.4894 1.6 20.4875 1.6 20.4854C1.6 20.4835 1.6 20.4816 1.6 20.4795C1.6 20.4776 1.6 20.4757 1.6 20.4736C1.6 20.4717 1.6 20.4698 1.6 20.4677C1.6 20.4658 1.6 20.4638 1.6 20.4618C1.6 20.4598 1.6 20.4579 1.6 20.4558C1.6 20.4539 1.6 20.452 1.6 20.4499C1.6 20.448 1.6 20.4461 1.6 20.444C1.6 20.4421 1.6 20.4402 1.6 20.4381C1.6 20.4362 1.6 20.4342 1.6 20.4323C1.6 20.4302 1.6 20.4283 1.6 20.4264C1.6 20.4243 1.6 20.4224 1.6 20.4205C1.6 20.4184 1.6 20.4165 1.6 20.4146C1.6 20.4126 1.6 20.4106 1.6 20.4086C1.6 20.4067 1.6 20.4046 1.6 20.4027C1.6 20.4008 1.6 20.3989 1.6 20.3968C1.6 20.3949 1.6 20.393 1.6 20.3909C1.6 20.389 1.6 20.387 1.6 20.3851C1.6 20.383 1.6 20.3811 1.6 20.3792C1.6 20.3773 1.6 20.3752 1.6 20.3733C1.6 20.3714 1.6 20.3694 1.6 20.3674C1.6 20.3654 1.6 20.3635 1.6 20.3616C1.6 20.3595 1.6 20.3576 1.6 20.3557C1.6 20.3538 1.6 20.3517 1.6 20.3498C1.6 20.3478 1.6 20.3459 1.6 20.3438C1.6 20.3419 1.6 20.34 1.6 20.3381C1.6 20.336 1.6 20.3341 1.6 20.3322C1.6 20.3302 1.6 20.3283 1.6 20.3262C1.6 20.3243 1.6 20.3224 1.6 20.3205C1.6 20.3184 1.6 20.3165 1.6 20.3146C1.6 20.3126 1.6 20.3107 1.6 20.3086C1.6 20.3067 1.6 20.3048 1.6 20.3029C1.6 20.301 1.6 20.2989 1.6 20.297C1.6 20.295 1.6 20.2931 1.6 20.2912C1.6 20.2891 1.6 20.2872 1.6 20.2853C1.6 20.2834 1.6 20.2814 1.6 20.2794C1.6 20.2774 1.6 20.2755 1.6 20.2736C1.6 20.2717 1.6 20.2696 1.6 20.2677C1.6 20.2658 1.6 20.2638 1.6 20.2619C1.6 20.26 1.6 20.2579 1.6 20.256C1.6 20.2541 1.6 20.2522 1.6 20.2502C1.6 20.2483 1.6 20.2462 1.6 20.2443C1.6 20.2424 1.6 20.2405 1.6 20.2386C1.6 20.2366 1.6 20.2347 1.6 20.2326C1.6 20.2307 1.6 20.2288 1.6 20.2269C1.6 20.225 1.6 20.223 1.6 20.2211C1.6 20.219 1.6 20.2171 1.6 20.2152C1.6 20.2133 1.6 20.2114 1.6 20.2094C1.6 20.2075 1.6 20.2054 1.6 20.2035C1.6 20.2016 1.6 20.1997 1.6 20.1978C1.6 20.1958 1.6 20.1939 1.6 20.192C1.6 20.1901 1.6 20.188 1.6 20.1861C1.6 20.1842 1.6 20.1822 1.6 20.1803C1.6 20.1784 1.6 20.1765 1.6 20.1746C1.6 20.1726 1.6 20.1706 1.6 20.1686C1.6 20.1667 1.6 20.1648 1.6 20.1629C1.6 20.161 1.6 20.159 1.6 20.1571C1.6 20.1552 1.6 20.1533 1.6 20.1514C1.6 20.1493 1.6 20.1474 1.6 20.1454C1.6 20.1435 1.6 20.1416 1.6 20.1397C1.6 20.1378 1.6 20.1358 1.6 20.1339C1.6 20.132 1.6 20.1301 1.6 20.1282C1.6 20.1262 1.6 20.1243 1.6 20.1222C1.6 20.1203 1.6 20.1184 1.6 20.1165C1.6 20.1146 1.6 20.1126 1.6 20.1107C1.6 20.1088 1.6 20.1069 1.6 20.105C1.6 20.103 1.6 20.1011 1.6 20.0992C1.6 20.0973 1.6 20.0954 1.6 20.0934C1.6 20.0915 1.6 20.0896 1.6 20.0877C1.6 20.0858 1.6 20.0838 1.6 20.0819C1.6 20.08 1.6 20.0781 1.6 20.0762C1.6 20.0742 1.6 20.0723 1.6 20.0704C1.6 20.0683 1.6 20.0664 1.6 20.0645C1.6 20.0626 1.6 20.0606 1.6 20.0587C1.6 20.0568 1.6 20.0549 1.6 20.053C1.6 20.051 1.6 20.0491 1.6 20.0472C1.6 20.0453 1.6 20.0434 1.6 20.0414C1.6 20.0395 1.6 20.0376 1.6 20.0357C1.6 20.0339 1.6 20.032 1.6 20.0301C1.6 20.0282 1.6 20.0262 1.6 20.0243C1.6 20.0224 1.6 20.0205 1.6 20.0186C1.6 20.0166 1.6 20.0147 1.6 20.0128C1.6 20.0109 1.6 20.009 1.6 20.007C1.6 20.0051 1.6 20.0032 1.6 20.0013C1.6 19.9994 1.6 19.9974 1.6 19.9955C1.6 19.9936 1.6 19.9917 1.6 19.9898H0C0 19.9917 0 19.9936 0 19.9955C0 19.9974 0 19.9994 0 20.0013C0 20.0032 0 20.0051 0 20.007C0 20.009 0 20.0109 0 20.0128C0 20.0147 0 20.0166 0 20.0186C0 20.0205 0 20.0224 0 20.0243C0 20.0262 0 20.0282 0 20.0301C0 20.032 0 20.0339 0 20.0357C0 20.0376 0 20.0395 0 20.0414C0 20.0434 0 20.0453 0 20.0472C0 20.0491 0 20.051 0 20.053C0 20.0549 0 20.0568 0 20.0587C0 20.0606 0 20.0626 0 20.0645C0 20.0664 0 20.0683 0 20.0704C0 20.0723 0 20.0742 0 20.0762C0 20.0781 0 20.08 0 20.0819C0 20.0838 0 20.0858 0 20.0877C0 20.0896 0 20.0915 0 20.0934C0 20.0954 0 20.0973 0 20.0992C0 20.1011 0 20.103 0 20.105C0 20.1069 0 20.1088 0 20.1107C0 20.1126 0 20.1146 0 20.1165C0 20.1184 0 20.1203 0 20.1222C0 20.1243 0 20.1262 0 20.1282C0 20.1301 0 20.132 0 20.1339C0 20.1358 0 20.1378 0 20.1397C0 20.1416 0 20.1435 0 20.1454C0 20.1474 0 20.1493 0 20.1514C0 20.1533 0 20.1552 0 20.1571C0 20.159 0 20.161 0 20.1629C0 20.1648 0 20.1667 0 20.1686C0 20.1706 0 20.1726 0 20.1746C0 20.1765 0 20.1784 0 20.1803C0 20.1822 0 20.1842 0 20.1861C0 20.188 0 20.1901 0 20.192C0 20.1939 0 20.1958 0 20.1978C0 20.1997 0 20.2016 0 20.2035C0 20.2054 0 20.2075 0 20.2094C0 20.2114 0 20.2133 0 20.2152C0 20.2171 0 20.219 0 20.2211C0 20.223 0 20.225 0 20.2269C0 20.2288 0 20.2307 0 20.2326C0 20.2347 0 20.2366 0 20.2386C0 20.2405 0 20.2424 0 20.2443C0 20.2462 0 20.2483 0 20.2502C0 20.2522 0 20.2541 0 20.256C0 20.2579 0 20.26 0 20.2619C0 20.2638 0 20.2658 0 20.2677C0 20.2696 0 20.2717 0 20.2736C0 20.2755 0 20.2774 0 20.2794C0 20.2814 0 20.2834 0 20.2853C0 20.2872 0 20.2891 0 20.2912C0 20.2931 0 20.295 0 20.297C0 20.2989 0 20.301 0 20.3029C0 20.3048 0 20.3067 0 20.3086C0 20.3107 0 20.3126 0 20.3146C0 20.3165 0 20.3184 0 20.3205C0 20.3224 0 20.3243 0 20.3262C0 20.3283 0 20.3302 0 20.3322C0 20.3341 0 20.336 0 20.3381C0 20.34 0 20.3419 0 20.3438C0 20.3459 0 20.3478 0 20.3498C0 20.3517 0 20.3538 0 20.3557C0 20.3576 0 20.3595 0 20.3616C0 20.3635 0 20.3654 0 20.3674C0 20.3694 0 20.3714 0 20.3733C0 20.3752 0 20.3773 0 20.3792C0 20.3811 0 20.383 0 20.3851C0 20.387 0 20.389 0 20.3909C0 20.393 0 20.3949 0 20.3968C0 20.3989 0 20.4008 0 20.4027C0 20.4046 0 20.4067 0 20.4086C0 20.4106 0 20.4126 0 20.4146C0 20.4165 0 20.4184 0 20.4205C0 20.4224 0 20.4243 0 20.4264C0 20.4283 0 20.4302 0 20.4323C0 20.4342 0 20.4362 0 20.4381C0 20.4402 0 20.4421 0 20.444C0 20.4461 0 20.448 0 20.4499C0 20.452 0 20.4539 0 20.4558C0 20.4579 0 20.4598 0 20.4618C0 20.4638 0 20.4658 0 20.4677C0 20.4698 0 20.4717 0 20.4736C0 20.4757 0 20.4776 0 20.4795C0 20.4816 0 20.4835 0 20.4854C0 20.4875 0 20.4894 0 20.4914C0 20.4934 0 20.4954 0 20.4973C0 20.4994 0 20.5013 0 20.5032C0 20.5053 0 20.5072 0 20.5093C0 20.5112 0 20.5131 0 20.5152C0 20.5171 0 20.519 0 20.5211C0 20.523 0 20.5251 0 20.527C0 20.529 0 20.531 0 20.533C0 20.5349 0 20.537 0 20.5389C0 20.541 0 20.5429 0 20.5448C0 20.5469 0 20.5488 0 20.5509C0 20.5528 0 20.5547 0 20.5568C0 20.5587 0 20.5606 0 20.5627C0 20.5646 0 20.5667 0 20.5686C0 20.5707 0 20.5726 0 20.5746C0 20.5766 0 20.5786 0 20.5806C0 20.5826 0 20.5845 0 20.5866C0 20.5885 0 20.5906 0 20.5925C0 20.5946 0 20.5965 0 20.5984C0 20.6005 0 20.6024 0 20.6045C0 20.6064 0 20.6085 0 20.6104C0 20.6123 0 20.6144 0 20.6163C0 20.6184 0 20.6203 0 20.6224C0 20.6243 0 20.6264 0 20.6283C0 20.6302 0 20.6323 0 20.6342C0 20.6363 0 20.6382 0 20.6403C0 20.6422 0 20.6443 0 20.6462C0 20.6483 0 20.6502 0 20.6523C0 20.6542 0 20.6562 0 20.6582C0 20.6602 0 20.6622 0 20.6642C0 20.6662 0 20.6682 0 20.6702C0 20.6722 0 20.6742 0 20.6762C0 20.6782 0 20.6802 0 20.6822C0 20.6842 0 20.6862 0 20.6882C0 20.6902 0 20.6922 0 20.6942C0 20.6962 0 20.6982 0 20.7002C0 20.7022 0 20.7042 0 20.7062C0 20.7082 0 20.7102 0 20.7122C0 20.7142 0 20.7162 0 20.7182C0 20.7202 0 20.7222 0 20.7242C0 20.7262 0 20.7282 0 20.7302C0 20.7322 0 20.7342 0 20.7363C0 20.7382 0 20.7403 0 20.7422C0 20.7443 0 20.7462 0 20.7483C0 20.7502 0 20.7523 0 20.7542C0 20.7563 0 20.7582 0 20.7603C0 20.7624 0 20.7643 0 20.7664C0 20.7683 0 20.7704 0 20.7723C0 20.7744 0 20.7763 0 20.7784C0 20.7805 0 20.7824 0 20.7845C0 20.7864 0 20.7885 0 20.7904C0 20.7925 0 20.7946 0 20.7965C0 20.7986 0 20.8005 0 20.8026C0 20.8045 0 20.8066 0 20.8086C0 20.8106 0 20.8126 0 20.8146C0 20.8166 0 20.8187 0 20.8206C0 20.8227 0 20.8246 0 20.8267C0 20.8286 0 20.8307 0 20.8328C0 20.8347 0 20.8368 0 20.8387C0 20.8408 0 20.8429 0 20.8448C0 20.8469 0 20.849 0 20.8509C0 20.853 0 20.8549 0 20.857C0 20.859 0 20.861 0 20.863C0 20.865 0 20.867 0 20.8691C0 20.871 0 20.8731 0 20.8752C0 20.8771 0 20.8792 0 20.8811C0 20.8832 0 20.8853 0 20.8872C0 20.8893 0 20.8914 0 20.8933C0 20.8954 0 20.8974 0 20.8994C0 20.9014 0 20.9034 0 20.9054C0 20.9075 0 20.9094 0 20.9115C0 20.9136 0 20.9155 0 20.9176C0 20.9197 0 20.9216 0 20.9237C0 20.9258 0 20.9277 0 20.9298C0 20.9318 0 20.9338 0 20.9358C0 20.9379 0 20.9398 0 20.9419C0 20.944 0 20.9459 0 20.948C0 20.9501 0 20.952 0 20.9541C0 20.9562 0 20.9581 0 20.9602C0 20.9622 0 20.9643 0 20.9662C0 20.9683 0 20.9704 0 20.9723C0 20.9744 0 20.9765 0 20.9784C0 20.9805 0 20.9826 0 20.9846C0 20.9866 0 20.9886 0 20.9907C0 20.9926 0 20.9947 0 20.9968C0 20.9987 0 21.0008 0 21.0029C0 21.005 0 21.0069 0 21.009C0 21.011 0 21.0131 0 21.015C0 21.0171 0 21.0192 0 21.0211C0 21.0232 0 21.0253 0 21.0274C0 21.0293 0 21.0314 0 21.0334C0 21.0355 0 21.0374 0 21.0395C0 21.0416 0 21.0437 0 21.0456C0 21.0477 0 21.0498 0 21.0517C0 21.0538 0 21.0558 0 21.0579C0 21.0598 0 21.0619 0 21.064C0 21.0661 0 21.0682 0 21.0701C0 21.0722 0 21.0742 0 21.0763C0 21.0782 0 21.0803 0 21.0824C0 21.0845 0 21.0864 0 21.0885C0 21.0906 0 21.0926 0 21.0947C0 21.0966 0 21.0987 0 21.1008C0 21.1029 0 21.1048 0 21.1069C0 21.109 0 21.111 0 21.1131C0 21.115 0 21.1171 0 21.1192C0 21.1213 0 21.1234 0 21.1253C0 21.1274 0 21.1294 0 21.1315C0 21.1336 0 21.1355 0 21.1376C0 21.1397 0 21.1418 0 21.1438C0 21.1458 0 21.1478 0 21.1499C0 21.152 0 21.1541 0 21.156C0 21.1581 0 21.1602 0 21.1622C0 21.1643 0 21.1664 0 21.1683C0 21.1704 0 21.1725 0 21.1746C0 21.1766 0 21.1787 0 21.1806C0 21.1827 0 21.1848 0 21.1869C0 21.189 0 21.191 0 21.193C0 21.195 0 21.1971 0 21.1992C0 21.2013 0 21.2034 0 21.2053C0 21.2074 0 21.2094 0 21.2115C0 21.2136 0 21.2157 0 21.2178C0 21.2197 0 21.2218 0 21.2238C0 21.2259 0 21.228 0 21.2301C0 21.2322 0 21.2341 0 21.2362C0 21.2382 0 21.2403 0 21.2424C0 21.2445 0 21.2466 0 21.2486C0 21.2506 0 21.2526 0 21.2547C0 21.2568 0 21.2589 0 21.261C0 21.263 0 21.2651 0 21.2672C0 21.2691 0 21.2712 0 21.2733C0 21.2754 0 21.2774 0 21.2795C0 21.2816 0 21.2837 0 21.2858C0 21.2877 0 21.2898 0 21.2918C0 21.2939 0 21.296 0 21.2981C0 21.3002 0 21.3022 0 21.3043C0 21.3064 0 21.3085 0 21.3104C0 21.3125 0 21.3146 0 21.3166C0 21.3187 0 21.3208 0 21.3229C0 21.325 0 21.327 0 21.3291C0 21.3312 0 21.3333 0 21.3354C0 21.3374 0 21.3394 0 21.3414C0 21.3435 0 21.3456 0 21.3477C0 21.3498 0 21.3518 0 21.3539C0 21.356 0 21.3581 0 21.3602C0 21.3622 0 21.3643 0 21.3664C0 21.3685 0 21.3706 0 21.3726C0 21.3747 0 21.3766 0 21.3787C0 21.3808 0 21.3829 0 21.385C0 21.387 0 21.3891 0 21.3912C0 21.3933 0 21.3954 0 21.3974C0 21.3995 0 21.4016 0 21.4037C0 21.4058 0 21.4078 0 21.4099C0 21.412 0 21.4141 0 21.4162C0 21.4182 0 21.4203 0 21.4224C0 21.4245 0 21.4266 0 21.4286C0 21.4307 0 21.4328 0 21.4349C0 21.437 0 21.439 0 21.4411C0 21.4432 0 21.4453 0 21.4474C0 21.4494 0 21.4515 0 21.4536C0 21.4557 0 21.4578 0 21.4598C0 21.4619 0 21.464 0 21.4661C0 21.4682 0 21.4702 0 21.4723C0 21.4744 0 21.4765 0 21.4786C0 21.4806 0 21.4827 0 21.4848C0 21.4869 0 21.489 0 21.491C0 21.4931 0 21.4952 0 21.4973C0 21.4994 0 21.5014 0 21.5035C0 21.5056 0 21.5077 0 21.5098C0 21.5118 0 21.5139 0 21.5162C0 21.5182 0 21.5203 0 21.5224C0 21.5245 0 21.5266 0 21.5286C0 21.5307 0 21.5328 0 21.5349C0 21.537 0 21.539 0 21.5411C0 21.5432 0 21.5453 0 21.5474C0 21.5494 0 21.5515 0 21.5538C0 21.5558 0 21.5579 0 21.56C0 21.5621 0 21.5642 0 21.5662C0 21.5683 0 21.5704 0 21.5725C0 21.5746 0 21.5766 0 21.5787C0 21.5808 0 21.583 0 21.5851C0 21.5872 0 21.5893 0 21.5914C0 21.5934 0 21.5955 0 21.5976C0 21.5997 0 21.6018 0 21.6038C0 21.6061 0 21.6082 0 21.6102C0 21.6123 0 21.6144 0 21.6165C0 21.6186 0 21.6206 0 21.6227C0 21.6248 0 21.627 0 21.6291C0 21.6312 0 21.6333 0 21.6354C0 21.6374 0 21.6395 0 21.6416C0 21.6437 0 21.6459 0 21.648C0 21.6501 0 21.6522 0 21.6542C0 21.6563 0 21.6584 0 21.6605C0 21.6627 0 21.6648 0 21.6669C0 21.669 0 21.671 0 21.6731C0 21.6752 0 21.6774 0 21.6795C0 21.6816 0 21.6837 0 21.6858C0 21.6878 0 21.6899 0 21.6922C0 21.6942 0 21.6963 0 21.6984C0 21.7005 0 21.7026 0 21.7046C0 21.7069 0 21.709 0 21.711C0 21.7131 0 21.7152 0 21.7173C0 21.7195 0 21.7216 0 21.7237C0 21.7258 0 21.7278 0 21.7299C0 21.7322 0 21.7342 0 21.7363C0 21.7384 0 21.7405 0 21.7426C0 21.7448 0 21.7469 0 21.749C0 21.751 0 21.7531 0 21.7552C0 21.7574 0 21.7595 0 21.7616C0 21.7637 0 21.7658 0 21.768C0 21.7701 0 21.7722 0 21.7742C0 21.7763 0 21.7786 0 21.7806C0 21.7827 0 21.7848 0 21.7869C0 21.7891 0 21.7912 0 21.7933C0 21.7954 0 21.7974 0 21.7997C0 21.8018 0 21.8038 0 21.8059C0 21.808 0 21.8102 0 21.8123C0 21.8144 0 21.8165 0 21.8186C0 21.8208 0 21.8229 0 21.825C0 21.827 0 21.8293 0 21.8314C0 21.8334 0 21.8355 0 21.8376C0 21.8398 0 21.8419 0 21.844C0 21.8461 0 21.8483 0 21.8504C0 21.8525 0 21.8546 0 21.8568C0 21.8589 0 21.861 0 21.863C0 21.8653 0 21.8674 0 21.8694C0 21.8715 0 21.8738 0 21.8758C0 21.8779 0 21.88 0 21.8822C0 21.8843 0 21.8864 0 21.8885C0 21.8907 0 21.8928 0 21.8949C0 21.897 0 21.8992 0 21.9013C0 21.9034 0 21.9054 0 21.9077C0 21.9098 0 21.9118 0 21.9139C0 21.9162 0 21.9182 0 21.9203C0 21.9226 0 21.9246 0 21.9267C0 21.9288 0 21.931 0 21.9331C0 21.9352 0 21.9374 0 21.9395C0 21.9416 0 21.9437 0 21.9459C0 21.948 0 21.9501 0 21.9523C0 21.9544 0 21.9565 0 21.9586C0 21.9608 0 21.9629 0 21.965C0 21.9672 0 21.9693 0 21.9714C0 21.9736 0 21.9757 0 21.9778C0 21.9798 0 21.9821 0 21.9842C0 21.9862 0 21.9885 0 21.9906C0 21.9926 0 21.9949 0 21.997C0 21.999 0 22.0013 0 22.0034C0 22.0054 0 22.0077 0 22.0098C0 22.0118 0 22.0141 0 22.0162C0 22.0182 0 22.0203 0 22.0226C0 22.0246 0 22.0267 0 22.029C0 22.031 0 22.0331 0 22.0354C0 22.0374 0 22.0395 0 22.0418C0 22.0438 0 22.0461 0 22.0482C0 22.0502 0 22.0525 0 22.0546C0 22.0566 0 22.0589 0 22.061C0 22.063 0 22.0653 0 22.0674C0 22.0694 0 22.0717 0 22.0738C0 22.0758 0 22.0781 0 22.0802C0 22.0824 0 22.0845 0 22.0866C0 22.0888 0 22.0909 0 22.093C0 22.0952 0 22.0973 0 22.0994C0 22.1016 0 22.1037 0 22.1059C0 22.108 0 22.1101 0 22.1123C0 22.1144 0 22.1165 0 22.1187C0 22.1208 0 22.123 0 22.1251C0 22.1272 0 22.1294 0 22.1315C0 22.1338 0 22.1358 0 22.1379C0 22.1402 0 22.1422 0 22.1443C0 22.1466 0 22.1486 0 22.1509C0 22.153 0 22.155 0 22.1573C0 22.1594 0 22.1616 0 22.1637C0 22.1658 0 22.168 0 22.1701C0 22.1723 0 22.1744 0 22.1765C0 22.1787 0 22.1808 0 22.183C0 22.1851 0 22.1874 0 22.1894C0 22.1915 0 22.1938 0 22.1958C0 22.1981 0 22.2002 0 22.2022C0 22.2045 0 22.2066 0 22.2088C0 22.2109 0 22.2131 0 22.2152C0 22.2173 0 22.2195 0 22.2216C0 22.2238 0 22.2259 0 22.2282C0 22.2302 0 22.2325 0 22.2346C0 22.2366 0 22.2389 0 22.241C0 22.2432 0 22.2453 0 22.2475C0 22.2496 0 22.2518 0 22.2539C0 22.256 0 22.2582 0 22.2603C0 22.2626 0 22.2646 0 22.2669C0 22.269 0 22.2712 0 22.2733C0 22.2755 0 22.2776 0 22.2797C0 22.2819 0 22.284 0 22.2862C0 22.2883 0 22.2906 0 22.2926C0 22.2949 0 22.297 0 22.2992C0 22.3013 0 22.3035 0 22.3056C0 22.3078 0 22.3099 0 22.3122C0 22.3142 0 22.3163 0 22.3186C0 22.3206 0 22.3229 0 22.325C0 22.3272 0 22.3293 0 22.3315C0 22.3336 0 22.3358 0 22.3379C0 22.3402 0 22.3422 0 22.3445C0 22.3466 0 22.3488 0 22.3509C0 22.3531 0 22.3552 0 22.3574C0 22.3595 0 22.3618 0 22.3638C0 22.3661 0 22.3682 0 22.3704C0 22.3725 0 22.3747 0 22.3768C0 22.379 0 22.3811 0 22.3834C0 22.3854 0 22.3877 0 22.3898C0 22.392 0 22.3941 0 22.3963C0 22.3986 0 22.4006 0 22.4029C0 22.405 0 22.4072 0 22.4093C0 22.4115 0 22.4136 0 22.4158C0 22.4179 0 22.4202 0 22.4222C0 22.4245 0 22.4266 0 22.4288C0 22.4309 0 22.4331 0 22.4354C0 22.4374 0 22.4397 0 22.4418C0 22.444 0 22.4461 0 22.4483C0 22.4504 0 22.4526 0 22.4547C0 22.457 0 22.4592 0 22.4613C0 22.4635 0 22.4656 0 22.4678C0 22.4699 0 22.4722 0 22.4742C0 22.4765 0 22.4787 0 22.4808C0 22.483 0 22.4851 0 22.4874C0 22.4894 0 22.4917 0 22.4938C0 22.496 0 22.4982 0 22.5003C0 22.5026 0 22.5046 0 22.5069C0 22.509 0 22.5112 0 22.5134C0 22.5155 0 22.5178 0 22.5198C0 22.5221 0 22.5243 0 22.5264C0 22.5286 0 22.5307 0 22.533C0 22.535 0 22.5373 0 22.5395C0 22.5416 0 22.5438 0 22.5459C0 22.5482 0 22.5504 0 22.5525C0 22.5547 0 22.5568 0 22.559C0 22.5613 0 22.5634 0 22.5656C0 22.5677 0 22.5699 0 22.5722C0 22.5742 0 22.5765 0 22.5786C0 22.5808 0 22.583 0 22.5851C0 22.5874 0 22.5894 0 22.5917C0 22.5939 0 22.596 0 22.5982C0 22.6005 0 22.6026 0 22.6048C0 22.6069 0 22.6091 0 22.6114C0 22.6134 0 22.6157 0 22.6178C0 22.62 0 22.6222 0 22.6243C0 22.6266 0 22.6288 0 22.6309C0 22.6331 0 22.6354 0 22.6374C0 22.6397 0 22.6418 0 22.644C0 22.6462 0 22.6483 0 22.6506C0 22.6528 0 22.6549 0 22.6571C0 22.6594 0 22.6614 0 22.6637C0 22.6658 0 22.668 0 22.6702C0 22.6723 0 22.6746 0 22.6768C0 22.6789 0 22.6811 0 22.6834C0 22.6854 0 22.6877 0 22.6899C0 22.692 0 22.6942 0 22.6965C0 22.6986 0 22.7008 0 22.703C0 22.7051 0 22.7074 0 22.7096C0 22.7117 0 22.7139 0 22.7162C0 22.7182 0 22.7205 0 22.7227C0 22.7248 0 22.727 0 22.7293C0 22.7314 0 22.7336 0 22.7358C0 22.7379 0 22.7402 0 22.7424C0 22.7445 0 22.7467 0 22.749C0 22.751 0 22.7533 0 22.7555C0 22.7578 0 22.7598 0 22.7621C0 22.7643 0 22.7664 0 22.7686C0 22.7709 0 22.773 0 22.7752C0 22.7774 0 22.7795 0 22.7818C0 22.784 0 22.7862 0 22.7883C0 22.7906 0 22.7928 0 22.7949C0 22.7971 0 22.7994 0 22.8014C0 22.8037 0 22.8059 0 22.8082C0 22.8102 0 22.8125 0 22.8147C0 22.8168 0 22.819 0 22.8213C0 22.8235 0 22.8256 0 22.8278C0 22.8301 0 22.8323 0 22.8344C0 22.8366 0 22.8389 0 22.841C0 22.8432 0 22.8454 0 22.8477C0 22.8498 0 22.852 0 22.8542C0 22.8563 0 22.8586 0 22.8608C0 22.863 0 22.8651 0 22.8674C0 22.8696 0 22.8718 0 22.8739C0 22.8762 0 22.8784 0 22.8806C0 22.8827 0 22.885 0 22.8872C0 22.8894 0 22.8915 0 22.8938C0 22.896 0 22.8982 0 22.9003C0 22.9026 0 22.9048 0 22.907C0 22.9091 0 22.9114 0 22.9136C0 22.9158 0 22.9179 0 22.9202C0 22.9224 0 22.9246 0 22.9267C0 22.929 0 22.9312 0 22.9334C0 22.9355 0 22.9378 0 22.94C0 22.9422 0 22.9445 0 22.9466C0 22.9488 0 22.951 0 22.9533C0 22.9554 0 22.9576 0 22.9598C0 22.9621 0 22.9642 0 22.9664C0 22.9686 0 22.9709 0 22.9731C0 22.9752 0 22.9774 0 22.9797C0 22.9819 0 22.9842 0 22.9862C0 22.9885 0 22.9907 0 22.993C0 22.995 0 22.9973 0 22.9995C0 23.0018 0 23.004 0 23.0061C0 23.0083 0 23.0106 0 23.0128C0 23.015 0 23.0171 0 23.0194C0 23.0216 0 23.0238 0 23.0261C0 23.0282 0 23.0304 0 23.0326C0 23.0349 0 23.0371 0 23.0392C0 23.0414 0 23.0437 0 23.0459C0 23.0482 0 23.0504 0 23.0525C0 23.0547 0 23.057 0 23.0592C0 23.0614 0 23.0635 0 23.0658C0 23.068 0 23.0702 0 23.0725C0 23.0747 0 23.0768 0 23.079C0 23.0813 0 23.0835 0 23.0858C0 23.0878 0 23.0901 0 23.0923C0 23.0946 0 23.0968 0 23.099C0 23.1011 0 23.1034 0 23.1056C0 23.1078 0 23.1101 0 23.1123C0 23.1144 0 23.1166 0 23.1189C0 23.1211 0 23.1234 0 23.1256C0 23.1278 0 23.1299 0 23.1322C0 23.1344 0 23.1366 0 23.1389C0 23.1411 0 23.1432 0 23.1454C0 23.1477 0 23.1499 0 23.1522C0 23.1544 0 23.1566 0 23.1587C0 23.161 0 23.1632 0 23.1654C0 23.1677 0 23.1699 0 23.1722C0 23.1742 0 23.1765 0 23.1787C0 23.181 0 23.1832 0 23.1854H1.6ZM5.6 15.9906H12V14.3906H5.6V15.9906ZM16 19.9898C16 19.9917 16 19.9936 16 19.9955C16 19.9974 16 19.9994 16 20.0013C16 20.0032 16 20.0051 16 20.007C16 20.009 16 20.0109 16 20.0128C16 20.0147 16 20.0166 16 20.0186C16 20.0205 16 20.0224 16 20.0243C16 20.0262 16 20.0282 16 20.0301C16 20.032 16 20.0339 16 20.0357C16 20.0376 16 20.0395 16 20.0414C16 20.0434 16 20.0453 16 20.0472C16 20.0491 16 20.051 16 20.053C16 20.0549 16 20.0568 16 20.0587C16 20.0606 16 20.0626 16 20.0645C16 20.0664 16 20.0683 16 20.0704C16 20.0723 16 20.0742 16 20.0762C16 20.0781 16 20.08 16 20.0819C16 20.0838 16 20.0858 16 20.0877C16 20.0896 16 20.0915 16 20.0934C16 20.0954 16 20.0973 16 20.0992C16 20.1011 16 20.103 16 20.105C16 20.1069 16 20.1088 16 20.1107C16 20.1126 16 20.1146 16 20.1165C16 20.1184 16 20.1203 16 20.1222C16 20.1243 16 20.1262 16 20.1282C16 20.1301 16 20.132 16 20.1339C16 20.1358 16 20.1378 16 20.1397C16 20.1416 16 20.1435 16 20.1454C16 20.1474 16 20.1493 16 20.1514C16 20.1533 16 20.1552 16 20.1571C16 20.159 16 20.161 16 20.1629C16 20.1648 16 20.1667 16 20.1686C16 20.1706 16 20.1726 16 20.1746C16 20.1765 16 20.1784 16 20.1803C16 20.1822 16 20.1842 16 20.1861C16 20.188 16 20.1901 16 20.192C16 20.1939 16 20.1958 16 20.1978C16 20.1997 16 20.2016 16 20.2035C16 20.2054 16 20.2075 16 20.2094C16 20.2114 16 20.2133 16 20.2152C16 20.2171 16 20.219 16 20.2211C16 20.223 16 20.225 16 20.2269C16 20.2288 16 20.2307 16 20.2326C16 20.2347 16 20.2366 16 20.2386C16 20.2405 16 20.2424 16 20.2443C16 20.2462 16 20.2483 16 20.2502C16 20.2522 16 20.2541 16 20.256C16 20.2579 16 20.26 16 20.2619C16 20.2638 16 20.2658 16 20.2677C16 20.2696 16 20.2717 16 20.2736C16 20.2755 16 20.2774 16 20.2794C16 20.2814 16 20.2834 16 20.2853C16 20.2872 16 20.2891 16 20.2912C16 20.2931 16 20.295 16 20.297C16 20.2989 16 20.301 16 20.3029C16 20.3048 16 20.3067 16 20.3086C16 20.3107 16 20.3126 16 20.3146C16 20.3165 16 20.3184 16 20.3205C16 20.3224 16 20.3243 16 20.3262C16 20.3283 16 20.3302 16 20.3322C16 20.3341 16 20.336 16 20.3381C16 20.34 16 20.3419 16 20.3438C16 20.3459 16 20.3478 16 20.3498C16 20.3517 16 20.3538 16 20.3557C16 20.3576 16 20.3595 16 20.3616C16 20.3635 16 20.3654 16 20.3674C16 20.3694 16 20.3714 16 20.3733C16 20.3752 16 20.3773 16 20.3792C16 20.3811 16 20.383 16 20.3851C16 20.387 16 20.389 16 20.3909C16 20.393 16 20.3949 16 20.3968C16 20.3989 16 20.4008 16 20.4027C16 20.4046 16 20.4067 16 20.4086C16 20.4106 16 20.4126 16 20.4146C16 20.4165 16 20.4184 16 20.4205C16 20.4224 16 20.4243 16 20.4264C16 20.4283 16 20.4302 16 20.4323C16 20.4342 16 20.4362 16 20.4381C16 20.4402 16 20.4421 16 20.444C16 20.4461 16 20.448 16 20.4499C16 20.452 16 20.4539 16 20.4558C16 20.4579 16 20.4598 16 20.4618C16 20.4638 16 20.4658 16 20.4677C16 20.4698 16 20.4717 16 20.4736C16 20.4757 16 20.4776 16 20.4795C16 20.4816 16 20.4835 16 20.4854C16 20.4875 16 20.4894 16 20.4914C16 20.4934 16 20.4954 16 20.4973C16 20.4994 16 20.5013 16 20.5032C16 20.5053 16 20.5072 16 20.5093C16 20.5112 16 20.5131 16 20.5152C16 20.5171 16 20.519 16 20.5211C16 20.523 16 20.5251 16 20.527C16 20.529 16 20.531 16 20.533C16 20.5349 16 20.537 16 20.5389C16 20.541 16 20.5429 16 20.5448C16 20.5469 16 20.5488 16 20.5509C16 20.5528 16 20.5547 16 20.5568C16 20.5587 16 20.5606 16 20.5627C16 20.5646 16 20.5667 16 20.5686C16 20.5707 16 20.5726 16 20.5746C16 20.5766 16 20.5786 16 20.5806C16 20.5826 16 20.5845 16 20.5866C16 20.5885 16 20.5906 16 20.5925C16 20.5946 16 20.5965 16 20.5984C16 20.6005 16 20.6024 16 20.6045C16 20.6064 16 20.6085 16 20.6104C16 20.6123 16 20.6144 16 20.6163C16 20.6184 16 20.6203 16 20.6224C16 20.6243 16 20.6264 16 20.6283C16 20.6302 16 20.6323 16 20.6342C16 20.6363 16 20.6382 16 20.6403C16 20.6422 16 20.6443 16 20.6462C16 20.6483 16 20.6502 16 20.6523C16 20.6542 16 20.6562 16 20.6582C16 20.6602 16 20.6622 16 20.6642C16 20.6662 16 20.6682 16 20.6702C16 20.6722 16 20.6742 16 20.6762C16 20.6782 16 20.6802 16 20.6822C16 20.6842 16 20.6862 16 20.6882C16 20.6902 16 20.6922 16 20.6942C16 20.6962 16 20.6982 16 20.7002C16 20.7022 16 20.7042 16 20.7062C16 20.7082 16 20.7102 16 20.7122C16 20.7142 16 20.7162 16 20.7182C16 20.7202 16 20.7222 16 20.7242C16 20.7262 16 20.7282 16 20.7302C16 20.7322 16 20.7342 16 20.7363C16 20.7382 16 20.7403 16 20.7422C16 20.7443 16 20.7462 16 20.7483C16 20.7502 16 20.7523 16 20.7542C16 20.7563 16 20.7582 16 20.7603C16 20.7624 16 20.7643 16 20.7664C16 20.7683 16 20.7704 16 20.7723C16 20.7744 16 20.7763 16 20.7784C16 20.7805 16 20.7824 16 20.7845C16 20.7864 16 20.7885 16 20.7904C16 20.7925 16 20.7946 16 20.7965C16 20.7986 16 20.8005 16 20.8026C16 20.8045 16 20.8066 16 20.8086C16 20.8106 16 20.8126 16 20.8146C16 20.8166 16 20.8187 16 20.8206C16 20.8227 16 20.8246 16 20.8267C16 20.8286 16 20.8307 16 20.8328C16 20.8347 16 20.8368 16 20.8387C16 20.8408 16 20.8429 16 20.8448C16 20.8469 16 20.8488 16 20.8509C16 20.853 16 20.8549 16 20.857C16 20.859 16 20.861 16 20.863C16 20.865 16 20.867 16 20.8691C16 20.871 16 20.8731 16 20.8752C16 20.8771 16 20.8792 16 20.8811C16 20.8832 16 20.8853 16 20.8872C16 20.8893 16 20.8914 16 20.8933C16 20.8954 16 20.8974 16 20.8994C16 20.9014 16 20.9034 16 20.9054C16 20.9075 16 20.9094 16 20.9115C16 20.9136 16 20.9155 16 20.9176C16 20.9197 16 20.9216 16 20.9237C16 20.9258 16 20.9277 16 20.9298C16 20.9318 16 20.9338 16 20.9358C16 20.9379 16 20.9398 16 20.9419C16 20.944 16 20.9459 16 20.948C16 20.9501 16 20.952 16 20.9541C16 20.9562 16 20.9581 16 20.9602C16 20.9622 16 20.9643 16 20.9662C16 20.9683 16 20.9704 16 20.9723C16 20.9744 16 20.9765 16 20.9784C16 20.9805 16 20.9826 16 20.9846C16 20.9866 16 20.9886 16 20.9907C16 20.9926 16 20.9947 16 20.9968C16 20.9987 16 21.0008 16 21.0029C16 21.005 16 21.0069 16 21.009C16 21.011 16 21.0131 16 21.015C16 21.0171 16 21.0192 16 21.0211C16 21.0232 16 21.0253 16 21.0274C16 21.0293 16 21.0314 16 21.0334C16 21.0355 16 21.0374 16 21.0395C16 21.0416 16 21.0437 16 21.0456C16 21.0477 16 21.0498 16 21.0517C16 21.0538 16 21.0558 16 21.0579C16 21.0598 16 21.0619 16 21.064C16 21.0661 16 21.0682 16 21.0701C16 21.0722 16 21.0742 16 21.0763C16 21.0782 16 21.0803 16 21.0824C16 21.0845 16 21.0864 16 21.0885C16 21.0906 16 21.0926 16 21.0947C16 21.0966 16 21.0987 16 21.1008C16 21.1029 16 21.1048 16 21.1069C16 21.109 16 21.111 16 21.1131C16 21.115 16 21.1171 16 21.1192C16 21.1213 16 21.1234 16 21.1253C16 21.1274 16 21.1294 16 21.1315C16 21.1336 16 21.1355 16 21.1376C16 21.1397 16 21.1418 16 21.1438C16 21.1458 16 21.1478 16 21.1499C16 21.152 16 21.1541 16 21.156C16 21.1581 16 21.1602 16 21.1622C16 21.1643 16 21.1664 16 21.1683C16 21.1704 16 21.1725 16 21.1746C16 21.1766 16 21.1787 16 21.1806C16 21.1827 16 21.1848 16 21.1869C16 21.189 16 21.191 16 21.193C16 21.195 16 21.1971 16 21.1992C16 21.2013 16 21.2034 16 21.2053C16 21.2074 16 21.2094 16 21.2115C16 21.2136 16 21.2157 16 21.2178C16 21.2197 16 21.2218 16 21.2238C16 21.2259 16 21.228 16 21.2301C16 21.2322 16 21.2341 16 21.2362C16 21.2382 16 21.2403 16 21.2424C16 21.2445 16 21.2466 16 21.2486C16 21.2506 16 21.2526 16 21.2547C16 21.2568 16 21.2589 16 21.261C16 21.263 16 21.2651 16 21.2672C16 21.2691 16 21.2712 16 21.2733C16 21.2754 16 21.2774 16 21.2795C16 21.2816 16 21.2837 16 21.2858C16 21.2877 16 21.2898 16 21.2918C16 21.2939 16 21.296 16 21.2981C16 21.3002 16 21.3022 16 21.3043C16 21.3064 16 21.3085 16 21.3104C16 21.3125 16 21.3146 16 21.3166C16 21.3187 16 21.3208 16 21.3229C16 21.325 16 21.327 16 21.3291C16 21.3312 16 21.3333 16 21.3354C16 21.3374 16 21.3394 16 21.3414C16 21.3435 16 21.3456 16 21.3477C16 21.3498 16 21.3518 16 21.3539C16 21.356 16 21.3581 16 21.3602C16 21.3622 16 21.3643 16 21.3664C16 21.3685 16 21.3706 16 21.3726C16 21.3747 16 21.3766 16 21.3787C16 21.3808 16 21.3829 16 21.385C16 21.387 16 21.3891 16 21.3912C16 21.3933 16 21.3954 16 21.3974C16 21.3995 16 21.4016 16 21.4037C16 21.4058 16 21.4078 16 21.4099C16 21.412 16 21.4141 16 21.4162C16 21.4182 16 21.4203 16 21.4224C16 21.4245 16 21.4266 16 21.4286C16 21.4307 16 21.4328 16 21.4349C16 21.437 16 21.439 16 21.4411C16 21.4432 16 21.4453 16 21.4474C16 21.4494 16 21.4515 16 21.4536C16 21.4557 16 21.4578 16 21.4598C16 21.4619 16 21.464 16 21.4661C16 21.4682 16 21.4702 16 21.4723C16 21.4744 16 21.4765 16 21.4786C16 21.4806 16 21.4827 16 21.4848C16 21.4869 16 21.489 16 21.491C16 21.4931 16 21.4952 16 21.4973C16 21.4994 16 21.5014 16 21.5035C16 21.5056 16 21.5077 16 21.5098C16 21.5118 16 21.5139 16 21.5162C16 21.5182 16 21.5203 16 21.5224C16 21.5245 16 21.5266 16 21.5286C16 21.5307 16 21.5328 16 21.5349C16 21.537 16 21.539 16 21.5411C16 21.5432 16 21.5453 16 21.5474C16 21.5494 16 21.5515 16 21.5538C16 21.5558 16 21.5579 16 21.56C16 21.5621 16 21.5642 16 21.5662C16 21.5683 16 21.5704 16 21.5725C16 21.5746 16 21.5766 16 21.5787C16 21.5808 16 21.583 16 21.5851C16 21.5872 16 21.5893 16 21.5914C16 21.5934 16 21.5955 16 21.5976C16 21.5997 16 21.6018 16 21.6038C16 21.6061 16 21.6082 16 21.6102C16 21.6123 16 21.6144 16 21.6165C16 21.6186 16 21.6206 16 21.6227C16 21.6248 16 21.627 16 21.6291C16 21.6312 16 21.6333 16 21.6354C16 21.6374 16 21.6395 16 21.6416C16 21.6437 16 21.6459 16 21.648C16 21.6501 16 21.6522 16 21.6542C16 21.6563 16 21.6584 16 21.6605C16 21.6627 16 21.6648 16 21.6669C16 21.669 16 21.671 16 21.6731C16 21.6752 16 21.6774 16 21.6795C16 21.6816 16 21.6837 16 21.6858C16 21.6878 16 21.6899 16 21.6922C16 21.6942 16 21.6963 16 21.6984C16 21.7005 16 21.7026 16 21.7046C16 21.7069 16 21.709 16 21.711C16 21.7131 16 21.7152 16 21.7173C16 21.7195 16 21.7216 16 21.7237C16 21.7258 16 21.7278 16 21.7299C16 21.7322 16 21.7342 16 21.7363C16 21.7384 16 21.7405 16 21.7426C16 21.7448 16 21.7469 16 21.749C16 21.751 16 21.7531 16 21.7552C16 21.7574 16 21.7595 16 21.7616C16 21.7637 16 21.7658 16 21.768C16 21.7701 16 21.7722 16 21.7742C16 21.7763 16 21.7786 16 21.7806C16 21.7827 16 21.7848 16 21.7869C16 21.7891 16 21.7912 16 21.7933C16 21.7954 16 21.7974 16 21.7997C16 21.8018 16 21.8038 16 21.8059C16 21.808 16 21.8102 16 21.8123C16 21.8144 16 21.8165 16 21.8186C16 21.8208 16 21.8229 16 21.825C16 21.827 16 21.8293 16 21.8314C16 21.8334 16 21.8355 16 21.8376C16 21.8398 16 21.8419 16 21.844C16 21.8461 16 21.8483 16 21.8504C16 21.8525 16 21.8546 16 21.8568C16 21.8589 16 21.861 16 21.863C16 21.8653 16 21.8674 16 21.8694C16 21.8715 16 21.8738 16 21.8758C16 21.8779 16 21.88 16 21.8822C16 21.8843 16 21.8864 16 21.8885C16 21.8907 16 21.8928 16 21.8949C16 21.897 16 21.8992 16 21.9013C16 21.9034 16 21.9054 16 21.9077C16 21.9098 16 21.9118 16 21.9139C16 21.9162 16 21.9182 16 21.9203C16 21.9226 16 21.9246 16 21.9267C16 21.9288 16 21.931 16 21.9331C16 21.9352 16 21.9374 16 21.9395C16 21.9416 16 21.9437 16 21.9459C16 21.948 16 21.9501 16 21.9523C16 21.9544 16 21.9565 16 21.9586C16 21.9608 16 21.9629 16 21.965C16 21.9672 16 21.9693 16 21.9714C16 21.9736 16 21.9757 16 21.9778C16 21.9798 16 21.9821 16 21.9842C16 21.9862 16 21.9885 16 21.9906C16 21.9926 16 21.9949 16 21.997C16 21.999 16 22.0013 16 22.0034C16 22.0054 16 22.0077 16 22.0098C16 22.0118 16 22.0141 16 22.0162C16 22.0182 16 22.0203 16 22.0226C16 22.0246 16 22.0267 16 22.029C16 22.031 16 22.0331 16 22.0354C16 22.0374 16 22.0395 16 22.0418C16 22.0438 16 22.0461 16 22.0482C16 22.0502 16 22.0525 16 22.0546C16 22.0566 16 22.0589 16 22.061C16 22.063 16 22.0653 16 22.0674C16 22.0694 16 22.0717 16 22.0738C16 22.0758 16 22.0781 16 22.0802C16 22.0824 16 22.0845 16 22.0866C16 22.0888 16 22.0909 16 22.093C16 22.0952 16 22.0973 16 22.0994C16 22.1016 16 22.1037 16 22.1059C16 22.108 16 22.1101 16 22.1123C16 22.1144 16 22.1165 16 22.1187C16 22.1208 16 22.123 16 22.1251C16 22.1272 16 22.1294 16 22.1315C16 22.1338 16 22.1358 16 22.1379C16 22.1402 16 22.1422 16 22.1443C16 22.1466 16 22.1486 16 22.1509C16 22.153 16 22.155 16 22.1573C16 22.1594 16 22.1616 16 22.1637C16 22.1658 16 22.168 16 22.1701C16 22.1723 16 22.1744 16 22.1765C16 22.1787 16 22.1808 16 22.183C16 22.1851 16 22.1874 16 22.1894C16 22.1915 16 22.1938 16 22.1958C16 22.1981 16 22.2002 16 22.2022C16 22.2045 16 22.2066 16 22.2088C16 22.2109 16 22.2131 16 22.2152C16 22.2173 16 22.2195 16 22.2216C16 22.2238 16 22.2259 16 22.2282C16 22.2302 16 22.2325 16 22.2346C16 22.2366 16 22.2389 16 22.241C16 22.2432 16 22.2453 16 22.2475C16 22.2496 16 22.2518 16 22.2539C16 22.256 16 22.2582 16 22.2603C16 22.2626 16 22.2646 16 22.2669C16 22.269 16 22.2712 16 22.2733C16 22.2755 16 22.2776 16 22.2797C16 22.2819 16 22.284 16 22.2862C16 22.2883 16 22.2906 16 22.2926C16 22.2949 16 22.297 16 22.2992C16 22.3013 16 22.3035 16 22.3056C16 22.3078 16 22.3099 16 22.3122C16 22.3142 16 22.3163 16 22.3186C16 22.3206 16 22.3229 16 22.325C16 22.3272 16 22.3293 16 22.3315C16 22.3336 16 22.3358 16 22.3379C16 22.3402 16 22.3422 16 22.3445C16 22.3466 16 22.3488 16 22.3509C16 22.3531 16 22.3552 16 22.3574C16 22.3595 16 22.3618 16 22.3638C16 22.3661 16 22.3682 16 22.3704C16 22.3725 16 22.3747 16 22.3768C16 22.379 16 22.3811 16 22.3834C16 22.3854 16 22.3877 16 22.3898C16 22.392 16 22.3941 16 22.3963C16 22.3986 16 22.4006 16 22.4029C16 22.405 16 22.4072 16 22.4093C16 22.4115 16 22.4136 16 22.4158C16 22.4179 16 22.4202 16 22.4222C16 22.4245 16 22.4266 16 22.4288C16 22.4309 16 22.4331 16 22.4354C16 22.4374 16 22.4397 16 22.4418C16 22.444 16 22.4461 16 22.4483C16 22.4504 16 22.4526 16 22.4547C16 22.457 16 22.4592 16 22.4613C16 22.4635 16 22.4656 16 22.4678C16 22.4699 16 22.4722 16 22.4742C16 22.4765 16 22.4787 16 22.4808C16 22.483 16 22.4851 16 22.4874C16 22.4894 16 22.4917 16 22.4938C16 22.496 16 22.4982 16 22.5003C16 22.5026 16 22.5046 16 22.5069C16 22.509 16 22.5112 16 22.5134C16 22.5155 16 22.5178 16 22.5198C16 22.5221 16 22.5243 16 22.5264C16 22.5286 16 22.5307 16 22.533C16 22.535 16 22.5373 16 22.5395C16 22.5416 16 22.5438 16 22.5459C16 22.5482 16 22.5504 16 22.5525C16 22.5547 16 22.5568 16 22.559C16 22.5613 16 22.5634 16 22.5656C16 22.5677 16 22.5699 16 22.5722C16 22.5742 16 22.5765 16 22.5786C16 22.5808 16 22.583 16 22.5851C16 22.5874 16 22.5894 16 22.5917C16 22.5939 16 22.596 16 22.5982C16 22.6005 16 22.6026 16 22.6048C16 22.6069 16 22.6091 16 22.6114C16 22.6134 16 22.6157 16 22.6178C16 22.62 16 22.6222 16 22.6243C16 22.6266 16 22.6288 16 22.6309C16 22.6331 16 22.6354 16 22.6374C16 22.6397 16 22.6418 16 22.644C16 22.6462 16 22.6483 16 22.6506C16 22.6528 16 22.6549 16 22.6571C16 22.6594 16 22.6614 16 22.6637C16 22.6658 16 22.668 16 22.6702C16 22.6723 16 22.6746 16 22.6768C16 22.6789 16 22.6811 16 22.6834C16 22.6854 16 22.6877 16 22.6899C16 22.692 16 22.6942 16 22.6965C16 22.6986 16 22.7008 16 22.703C16 22.7051 16 22.7074 16 22.7096C16 22.7117 16 22.7139 16 22.7162C16 22.7182 16 22.7205 16 22.7227C16 22.7248 16 22.727 16 22.7293C16 22.7314 16 22.7336 16 22.7358C16 22.7379 16 22.7402 16 22.7424C16 22.7445 16 22.7467 16 22.749C16 22.751 16 22.7533 16 22.7555C16 22.7578 16 22.7598 16 22.7621C16 22.7643 16 22.7664 16 22.7686C16 22.7709 16 22.773 16 22.7752C16 22.7774 16 22.7795 16 22.7818C16 22.784 16 22.7862 16 22.7883C16 22.7906 16 22.7928 16 22.7949C16 22.7971 16 22.7994 16 22.8014C16 22.8037 16 22.8059 16 22.8082C16 22.8102 16 22.8125 16 22.8147C16 22.8168 16 22.819 16 22.8213C16 22.8235 16 22.8256 16 22.8278C16 22.8301 16 22.8323 16 22.8344C16 22.8366 16 22.8389 16 22.841C16 22.8432 16 22.8454 16 22.8477C16 22.8498 16 22.852 16 22.8542C16 22.8563 16 22.8586 16 22.8608C16 22.863 16 22.8651 16 22.8674C16 22.8696 16 22.8718 16 22.8739C16 22.8762 16 22.8784 16 22.8806C16 22.8827 16 22.885 16 22.8872C16 22.8894 16 22.8915 16 22.8938C16 22.896 16 22.8982 16 22.9003C16 22.9026 16 22.9048 16 22.907C16 22.9091 16 22.9114 16 22.9136C16 22.9158 16 22.9179 16 22.9202C16 22.9224 16 22.9246 16 22.9267C16 22.929 16 22.9312 16 22.9334C16 22.9355 16 22.9378 16 22.94C16 22.9422 16 22.9445 16 22.9466C16 22.9488 16 22.951 16 22.9533C16 22.9554 16 22.9576 16 22.9598C16 22.9621 16 22.9642 16 22.9664C16 22.9686 16 22.9709 16 22.9731C16 22.9752 16 22.9774 16 22.9797C16 22.9819 16 22.9842 16 22.9862C16 22.9885 16 22.9907 16 22.993C16 22.995 16 22.9973 16 22.9995C16 23.0018 16 23.004 16 23.0061C16 23.0083 16 23.0106 16 23.0128C16 23.015 16 23.0171 16 23.0194C16 23.0216 16 23.0238 16 23.0261C16 23.0282 16 23.0304 16 23.0326C16 23.0349 16 23.0371 16 23.0392C16 23.0414 16 23.0437 16 23.0459C16 23.0482 16 23.0504 16 23.0525C16 23.0547 16 23.057 16 23.0592C16 23.0614 16 23.0635 16 23.0658C16 23.068 16 23.0702 16 23.0725C16 23.0747 16 23.0768 16 23.079C16 23.0813 16 23.0835 16 23.0858C16 23.0878 16 23.0901 16 23.0923C16 23.0946 16 23.0968 16 23.099C16 23.1011 16 23.1034 16 23.1056C16 23.1078 16 23.1101 16 23.1123C16 23.1144 16 23.1166 16 23.1189C16 23.1211 16 23.1234 16 23.1256C16 23.1278 16 23.1299 16 23.1322C16 23.1344 16 23.1366 16 23.1389C16 23.1411 16 23.1432 16 23.1454C16 23.1477 16 23.1499 16 23.1522C16 23.1544 16 23.1566 16 23.1587C16 23.161 16 23.1632 16 23.1654C16 23.1677 16 23.1699 16 23.1722C16 23.1742 16 23.1765 16 23.1787C16 23.181 16 23.1832 16 23.1854H17.6C17.6 23.1832 17.6 23.181 17.6 23.1787C17.6 23.1765 17.6 23.1742 17.6 23.1722C17.6 23.1699 17.6 23.1677 17.6 23.1654C17.6 23.1632 17.6 23.161 17.6 23.1587C17.6 23.1566 17.6 23.1544 17.6 23.1522C17.6 23.1499 17.6 23.1477 17.6 23.1454C17.6 23.1432 17.6 23.1411 17.6 23.1389C17.6 23.1366 17.6 23.1344 17.6 23.1322C17.6 23.1299 17.6 23.1278 17.6 23.1256C17.6 23.1234 17.6 23.1211 17.6 23.1189C17.6 23.1166 17.6 23.1144 17.6 23.1123C17.6 23.1101 17.6 23.1078 17.6 23.1056C17.6 23.1034 17.6 23.1011 17.6 23.099C17.6 23.0968 17.6 23.0946 17.6 23.0923C17.6 23.0901 17.6 23.0878 17.6 23.0858C17.6 23.0835 17.6 23.0813 17.6 23.079C17.6 23.0768 17.6 23.0747 17.6 23.0725C17.6 23.0702 17.6 23.068 17.6 23.0658C17.6 23.0635 17.6 23.0614 17.6 23.0592C17.6 23.057 17.6 23.0547 17.6 23.0525C17.6 23.0504 17.6 23.0482 17.6 23.0459C17.6 23.0437 17.6 23.0414 17.6 23.0392C17.6 23.0371 17.6 23.0349 17.6 23.0326C17.6 23.0304 17.6 23.0282 17.6 23.0261C17.6 23.0238 17.6 23.0216 17.6 23.0194C17.6 23.0171 17.6 23.015 17.6 23.0128C17.6 23.0106 17.6 23.0083 17.6 23.0061C17.6 23.004 17.6 23.0018 17.6 22.9995C17.6 22.9973 17.6 22.995 17.6 22.993C17.6 22.9907 17.6 22.9885 17.6 22.9862C17.6 22.9842 17.6 22.9819 17.6 22.9797C17.6 22.9774 17.6 22.9752 17.6 22.9731C17.6 22.9709 17.6 22.9686 17.6 22.9664C17.6 22.9642 17.6 22.9621 17.6 22.9598C17.6 22.9576 17.6 22.9554 17.6 22.9533C17.6 22.951 17.6 22.9488 17.6 22.9466C17.6 22.9445 17.6 22.9422 17.6 22.94C17.6 22.9378 17.6 22.9355 17.6 22.9334C17.6 22.9312 17.6 22.929 17.6 22.9267C17.6 22.9246 17.6 22.9224 17.6 22.9202C17.6 22.9179 17.6 22.9158 17.6 22.9136C17.6 22.9114 17.6 22.9091 17.6 22.907C17.6 22.9048 17.6 22.9026 17.6 22.9003C17.6 22.8982 17.6 22.896 17.6 22.8938C17.6 22.8915 17.6 22.8894 17.6 22.8872C17.6 22.885 17.6 22.8827 17.6 22.8806C17.6 22.8784 17.6 22.8762 17.6 22.8739C17.6 22.8718 17.6 22.8696 17.6 22.8674C17.6 22.8651 17.6 22.863 17.6 22.8608C17.6 22.8586 17.6 22.8563 17.6 22.8542C17.6 22.852 17.6 22.8498 17.6 22.8477C17.6 22.8454 17.6 22.8432 17.6 22.841C17.6 22.8389 17.6 22.8366 17.6 22.8344C17.6 22.8323 17.6 22.8301 17.6 22.8278C17.6 22.8256 17.6 22.8235 17.6 22.8213C17.6 22.819 17.6 22.8168 17.6 22.8147C17.6 22.8125 17.6 22.8102 17.6 22.8082C17.6 22.8059 17.6 22.8037 17.6 22.8014C17.6 22.7994 17.6 22.7971 17.6 22.7949C17.6 22.7928 17.6 22.7906 17.6 22.7883C17.6 22.7862 17.6 22.784 17.6 22.7818C17.6 22.7795 17.6 22.7774 17.6 22.7752C17.6 22.773 17.6 22.7709 17.6 22.7686C17.6 22.7664 17.6 22.7643 17.6 22.7621C17.6 22.7598 17.6 22.7578 17.6 22.7555C17.6 22.7533 17.6 22.751 17.6 22.749C17.6 22.7467 17.6 22.7445 17.6 22.7424C17.6 22.7402 17.6 22.7379 17.6 22.7358C17.6 22.7336 17.6 22.7314 17.6 22.7293C17.6 22.727 17.6 22.7248 17.6 22.7227C17.6 22.7205 17.6 22.7182 17.6 22.7162C17.6 22.7139 17.6 22.7117 17.6 22.7096C17.6 22.7074 17.6 22.7051 17.6 22.703C17.6 22.7008 17.6 22.6986 17.6 22.6965C17.6 22.6942 17.6 22.692 17.6 22.6899C17.6 22.6877 17.6 22.6854 17.6 22.6834C17.6 22.6811 17.6 22.6789 17.6 22.6768C17.6 22.6746 17.6 22.6723 17.6 22.6702C17.6 22.668 17.6 22.6658 17.6 22.6637C17.6 22.6614 17.6 22.6594 17.6 22.6571C17.6 22.6549 17.6 22.6528 17.6 22.6506C17.6 22.6483 17.6 22.6462 17.6 22.644C17.6 22.6418 17.6 22.6397 17.6 22.6374C17.6 22.6354 17.6 22.6331 17.6 22.6309C17.6 22.6288 17.6 22.6266 17.6 22.6243C17.6 22.6222 17.6 22.62 17.6 22.6178C17.6 22.6157 17.6 22.6134 17.6 22.6114C17.6 22.6091 17.6 22.6069 17.6 22.6048C17.6 22.6026 17.6 22.6005 17.6 22.5982C17.6 22.596 17.6 22.5939 17.6 22.5917C17.6 22.5894 17.6 22.5874 17.6 22.5851C17.6 22.583 17.6 22.5808 17.6 22.5786C17.6 22.5765 17.6 22.5742 17.6 22.5722C17.6 22.5699 17.6 22.5677 17.6 22.5656C17.6 22.5634 17.6 22.5613 17.6 22.559C17.6 22.5568 17.6 22.5547 17.6 22.5525C17.6 22.5504 17.6 22.5482 17.6 22.5459C17.6 22.5438 17.6 22.5416 17.6 22.5395C17.6 22.5373 17.6 22.535 17.6 22.533C17.6 22.5307 17.6 22.5286 17.6 22.5264C17.6 22.5243 17.6 22.5221 17.6 22.5198C17.6 22.5178 17.6 22.5155 17.6 22.5134C17.6 22.5112 17.6 22.509 17.6 22.5069C17.6 22.5046 17.6 22.5026 17.6 22.5003C17.6 22.4982 17.6 22.496 17.6 22.4938C17.6 22.4917 17.6 22.4894 17.6 22.4874C17.6 22.4851 17.6 22.483 17.6 22.4808C17.6 22.4787 17.6 22.4765 17.6 22.4742C17.6 22.4722 17.6 22.4699 17.6 22.4678C17.6 22.4656 17.6 22.4635 17.6 22.4613C17.6 22.4592 17.6 22.457 17.6 22.4547C17.6 22.4526 17.6 22.4504 17.6 22.4483C17.6 22.4461 17.6 22.444 17.6 22.4418C17.6 22.4397 17.6 22.4374 17.6 22.4354C17.6 22.4331 17.6 22.4309 17.6 22.4288C17.6 22.4266 17.6 22.4245 17.6 22.4222C17.6 22.4202 17.6 22.4179 17.6 22.4158C17.6 22.4136 17.6 22.4115 17.6 22.4093C17.6 22.4072 17.6 22.405 17.6 22.4029C17.6 22.4006 17.6 22.3986 17.6 22.3963C17.6 22.3941 17.6 22.392 17.6 22.3898C17.6 22.3877 17.6 22.3854 17.6 22.3834C17.6 22.3811 17.6 22.379 17.6 22.3768C17.6 22.3747 17.6 22.3725 17.6 22.3704C17.6 22.3682 17.6 22.3661 17.6 22.3638C17.6 22.3618 17.6 22.3595 17.6 22.3574C17.6 22.3552 17.6 22.3531 17.6 22.3509C17.6 22.3488 17.6 22.3466 17.6 22.3445C17.6 22.3422 17.6 22.3402 17.6 22.3379C17.6 22.3358 17.6 22.3336 17.6 22.3315C17.6 22.3293 17.6 22.3272 17.6 22.325C17.6 22.3229 17.6 22.3206 17.6 22.3186C17.6 22.3163 17.6 22.3142 17.6 22.3122C17.6 22.3099 17.6 22.3078 17.6 22.3056C17.6 22.3035 17.6 22.3013 17.6 22.2992C17.6 22.297 17.6 22.2949 17.6 22.2926C17.6 22.2906 17.6 22.2883 17.6 22.2862C17.6 22.284 17.6 22.2819 17.6 22.2797C17.6 22.2776 17.6 22.2755 17.6 22.2733C17.6 22.2712 17.6 22.269 17.6 22.2669C17.6 22.2646 17.6 22.2626 17.6 22.2603C17.6 22.2582 17.6 22.256 17.6 22.2539C17.6 22.2518 17.6 22.2496 17.6 22.2475C17.6 22.2453 17.6 22.2432 17.6 22.241C17.6 22.2389 17.6 22.2366 17.6 22.2346C17.6 22.2325 17.6 22.2302 17.6 22.2282C17.6 22.2259 17.6 22.2238 17.6 22.2216C17.6 22.2195 17.6 22.2173 17.6 22.2152C17.6 22.2131 17.6 22.2109 17.6 22.2088C17.6 22.2066 17.6 22.2045 17.6 22.2022C17.6 22.2002 17.6 22.1981 17.6 22.1958C17.6 22.1938 17.6 22.1915 17.6 22.1894C17.6 22.1874 17.6 22.1851 17.6 22.183C17.6 22.1808 17.6 22.1787 17.6 22.1765C17.6 22.1744 17.6 22.1723 17.6 22.1701C17.6 22.168 17.6 22.1658 17.6 22.1637C17.6 22.1616 17.6 22.1594 17.6 22.1573C17.6 22.155 17.6 22.153 17.6 22.1509C17.6 22.1486 17.6 22.1466 17.6 22.1443C17.6 22.1422 17.6 22.1402 17.6 22.1379C17.6 22.1358 17.6 22.1338 17.6 22.1315C17.6 22.1294 17.6 22.1272 17.6 22.1251C17.6 22.123 17.6 22.1208 17.6 22.1187C17.6 22.1165 17.6 22.1144 17.6 22.1123C17.6 22.1101 17.6 22.108 17.6 22.1059C17.6 22.1037 17.6 22.1016 17.6 22.0994C17.6 22.0973 17.6 22.0952 17.6 22.093C17.6 22.0909 17.6 22.0888 17.6 22.0866C17.6 22.0845 17.6 22.0824 17.6 22.0802C17.6 22.0781 17.6 22.0758 17.6 22.0738C17.6 22.0717 17.6 22.0694 17.6 22.0674C17.6 22.0653 17.6 22.063 17.6 22.061C17.6 22.0589 17.6 22.0566 17.6 22.0546C17.6 22.0525 17.6 22.0502 17.6 22.0482C17.6 22.0461 17.6 22.0438 17.6 22.0418C17.6 22.0395 17.6 22.0374 17.6 22.0354C17.6 22.0331 17.6 22.031 17.6 22.029C17.6 22.0267 17.6 22.0246 17.6 22.0226C17.6 22.0203 17.6 22.0182 17.6 22.0162C17.6 22.0141 17.6 22.0118 17.6 22.0098C17.6 22.0077 17.6 22.0054 17.6 22.0034C17.6 22.0013 17.6 21.999 17.6 21.997C17.6 21.9949 17.6 21.9926 17.6 21.9906C17.6 21.9885 17.6 21.9862 17.6 21.9842C17.6 21.9821 17.6 21.9798 17.6 21.9778C17.6 21.9757 17.6 21.9736 17.6 21.9714C17.6 21.9693 17.6 21.9672 17.6 21.965C17.6 21.9629 17.6 21.9608 17.6 21.9586C17.6 21.9565 17.6 21.9544 17.6 21.9523C17.6 21.9501 17.6 21.948 17.6 21.9459C17.6 21.9437 17.6 21.9416 17.6 21.9395C17.6 21.9374 17.6 21.9352 17.6 21.9331C17.6 21.931 17.6 21.9288 17.6 21.9267C17.6 21.9246 17.6 21.9226 17.6 21.9203C17.6 21.9182 17.6 21.9162 17.6 21.9139C17.6 21.9118 17.6 21.9098 17.6 21.9077C17.6 21.9054 17.6 21.9034 17.6 21.9013C17.6 21.8992 17.6 21.897 17.6 21.8949C17.6 21.8928 17.6 21.8907 17.6 21.8885C17.6 21.8864 17.6 21.8843 17.6 21.8822C17.6 21.88 17.6 21.8779 17.6 21.8758C17.6 21.8738 17.6 21.8715 17.6 21.8694C17.6 21.8674 17.6 21.8653 17.6 21.863C17.6 21.861 17.6 21.8589 17.6 21.8568C17.6 21.8546 17.6 21.8525 17.6 21.8504C17.6 21.8483 17.6 21.8461 17.6 21.844C17.6 21.8419 17.6 21.8398 17.6 21.8376C17.6 21.8355 17.6 21.8334 17.6 21.8314C17.6 21.8293 17.6 21.827 17.6 21.825C17.6 21.8229 17.6 21.8208 17.6 21.8186C17.6 21.8165 17.6 21.8144 17.6 21.8123C17.6 21.8102 17.6 21.808 17.6 21.8059C17.6 21.8038 17.6 21.8018 17.6 21.7997C17.6 21.7974 17.6 21.7954 17.6 21.7933C17.6 21.7912 17.6 21.7891 17.6 21.7869C17.6 21.7848 17.6 21.7827 17.6 21.7806C17.6 21.7786 17.6 21.7763 17.6 21.7742C17.6 21.7722 17.6 21.7701 17.6 21.768C17.6 21.7658 17.6 21.7637 17.6 21.7616C17.6 21.7595 17.6 21.7574 17.6 21.7552C17.6 21.7531 17.6 21.751 17.6 21.749C17.6 21.7469 17.6 21.7448 17.6 21.7426C17.6 21.7405 17.6 21.7384 17.6 21.7363C17.6 21.7342 17.6 21.7322 17.6 21.7299C17.6 21.7278 17.6 21.7258 17.6 21.7237C17.6 21.7216 17.6 21.7195 17.6 21.7173C17.6 21.7152 17.6 21.7131 17.6 21.711C17.6 21.709 17.6 21.7069 17.6 21.7046C17.6 21.7026 17.6 21.7005 17.6 21.6984C17.6 21.6963 17.6 21.6942 17.6 21.6922C17.6 21.6899 17.6 21.6878 17.6 21.6858C17.6 21.6837 17.6 21.6816 17.6 21.6795C17.6 21.6774 17.6 21.6752 17.6 21.6731C17.6 21.671 17.6 21.669 17.6 21.6669C17.6 21.6648 17.6 21.6627 17.6 21.6605C17.6 21.6584 17.6 21.6563 17.6 21.6542C17.6 21.6522 17.6 21.6501 17.6 21.648C17.6 21.6459 17.6 21.6437 17.6 21.6416C17.6 21.6395 17.6 21.6374 17.6 21.6354C17.6 21.6333 17.6 21.6312 17.6 21.6291C17.6 21.627 17.6 21.6248 17.6 21.6227C17.6 21.6206 17.6 21.6186 17.6 21.6165C17.6 21.6144 17.6 21.6123 17.6 21.6102C17.6 21.6082 17.6 21.6061 17.6 21.6038C17.6 21.6018 17.6 21.5997 17.6 21.5976C17.6 21.5955 17.6 21.5934 17.6 21.5914C17.6 21.5893 17.6 21.5872 17.6 21.5851C17.6 21.583 17.6 21.5808 17.6 21.5787C17.6 21.5766 17.6 21.5746 17.6 21.5725C17.6 21.5704 17.6 21.5683 17.6 21.5662C17.6 21.5642 17.6 21.5621 17.6 21.56C17.6 21.5579 17.6 21.5558 17.6 21.5538C17.6 21.5515 17.6 21.5494 17.6 21.5474C17.6 21.5453 17.6 21.5432 17.6 21.5411C17.6 21.539 17.6 21.537 17.6 21.5349C17.6 21.5328 17.6 21.5307 17.6 21.5286C17.6 21.5266 17.6 21.5245 17.6 21.5224C17.6 21.5203 17.6 21.5182 17.6 21.5162C17.6 21.5139 17.6 21.5118 17.6 21.5098C17.6 21.5077 17.6 21.5056 17.6 21.5035C17.6 21.5014 17.6 21.4994 17.6 21.4973C17.6 21.4952 17.6 21.4931 17.6 21.491C17.6 21.489 17.6 21.4869 17.6 21.4848C17.6 21.4827 17.6 21.4806 17.6 21.4786C17.6 21.4765 17.6 21.4744 17.6 21.4723C17.6 21.4702 17.6 21.4682 17.6 21.4661C17.6 21.464 17.6 21.4619 17.6 21.4598C17.6 21.4578 17.6 21.4557 17.6 21.4536C17.6 21.4515 17.6 21.4494 17.6 21.4474C17.6 21.4453 17.6 21.4432 17.6 21.4411C17.6 21.439 17.6 21.437 17.6 21.4349C17.6 21.4328 17.6 21.4307 17.6 21.4286C17.6 21.4266 17.6 21.4245 17.6 21.4224C17.6 21.4203 17.6 21.4182 17.6 21.4162C17.6 21.4141 17.6 21.412 17.6 21.4099C17.6 21.4078 17.6 21.4058 17.6 21.4037C17.6 21.4016 17.6 21.3995 17.6 21.3974C17.6 21.3954 17.6 21.3933 17.6 21.3912C17.6 21.3891 17.6 21.387 17.6 21.385C17.6 21.3829 17.6 21.3808 17.6 21.3787C17.6 21.3766 17.6 21.3747 17.6 21.3726C17.6 21.3706 17.6 21.3685 17.6 21.3664C17.6 21.3643 17.6 21.3622 17.6 21.3602C17.6 21.3581 17.6 21.356 17.6 21.3539C17.6 21.3518 17.6 21.3498 17.6 21.3477C17.6 21.3456 17.6 21.3435 17.6 21.3414C17.6 21.3394 17.6 21.3374 17.6 21.3354C17.6 21.3333 17.6 21.3312 17.6 21.3291C17.6 21.327 17.6 21.325 17.6 21.3229C17.6 21.3208 17.6 21.3187 17.6 21.3166C17.6 21.3146 17.6 21.3125 17.6 21.3104C17.6 21.3085 17.6 21.3064 17.6 21.3043C17.6 21.3022 17.6 21.3002 17.6 21.2981C17.6 21.296 17.6 21.2939 17.6 21.2918C17.6 21.2898 17.6 21.2877 17.6 21.2858C17.6 21.2837 17.6 21.2816 17.6 21.2795C17.6 21.2774 17.6 21.2754 17.6 21.2733C17.6 21.2712 17.6 21.2691 17.6 21.2672C17.6 21.2651 17.6 21.263 17.6 21.261C17.6 21.2589 17.6 21.2568 17.6 21.2547C17.6 21.2526 17.6 21.2506 17.6 21.2486C17.6 21.2466 17.6 21.2445 17.6 21.2424C17.6 21.2403 17.6 21.2382 17.6 21.2362C17.6 21.2341 17.6 21.2322 17.6 21.2301C17.6 21.228 17.6 21.2259 17.6 21.2238C17.6 21.2218 17.6 21.2197 17.6 21.2178C17.6 21.2157 17.6 21.2136 17.6 21.2115C17.6 21.2094 17.6 21.2074 17.6 21.2053C17.6 21.2034 17.6 21.2013 17.6 21.1992C17.6 21.1971 17.6 21.195 17.6 21.193C17.6 21.191 17.6 21.189 17.6 21.1869C17.6 21.1848 17.6 21.1827 17.6 21.1806C17.6 21.1787 17.6 21.1766 17.6 21.1746C17.6 21.1725 17.6 21.1704 17.6 21.1683C17.6 21.1664 17.6 21.1643 17.6 21.1622C17.6 21.1602 17.6 21.1581 17.6 21.156C17.6 21.1541 17.6 21.152 17.6 21.1499C17.6 21.1478 17.6 21.1458 17.6 21.1438C17.6 21.1418 17.6 21.1397 17.6 21.1376C17.6 21.1355 17.6 21.1336 17.6 21.1315C17.6 21.1294 17.6 21.1274 17.6 21.1253C17.6 21.1234 17.6 21.1213 17.6 21.1192C17.6 21.1171 17.6 21.115 17.6 21.1131C17.6 21.111 17.6 21.109 17.6 21.1069C17.6 21.1048 17.6 21.1029 17.6 21.1008C17.6 21.0987 17.6 21.0966 17.6 21.0947C17.6 21.0926 17.6 21.0906 17.6 21.0885C17.6 21.0864 17.6 21.0845 17.6 21.0824C17.6 21.0803 17.6 21.0782 17.6 21.0763C17.6 21.0742 17.6 21.0722 17.6 21.0701C17.6 21.0682 17.6 21.0661 17.6 21.064C17.6 21.0619 17.6 21.0598 17.6 21.0579C17.6 21.0558 17.6 21.0538 17.6 21.0517C17.6 21.0498 17.6 21.0477 17.6 21.0456C17.6 21.0437 17.6 21.0416 17.6 21.0395C17.6 21.0374 17.6 21.0355 17.6 21.0334C17.6 21.0314 17.6 21.0293 17.6 21.0274C17.6 21.0253 17.6 21.0232 17.6 21.0211C17.6 21.0192 17.6 21.0171 17.6 21.015C17.6 21.0131 17.6 21.011 17.6 21.009C17.6 21.0069 17.6 21.005 17.6 21.0029C17.6 21.0008 17.6 20.9987 17.6 20.9968C17.6 20.9947 17.6 20.9926 17.6 20.9907C17.6 20.9886 17.6 20.9866 17.6 20.9846C17.6 20.9826 17.6 20.9805 17.6 20.9784C17.6 20.9765 17.6 20.9744 17.6 20.9723C17.6 20.9704 17.6 20.9683 17.6 20.9662C17.6 20.9643 17.6 20.9622 17.6 20.9602C17.6 20.9581 17.6 20.9562 17.6 20.9541C17.6 20.952 17.6 20.9501 17.6 20.948C17.6 20.9459 17.6 20.944 17.6 20.9419C17.6 20.9398 17.6 20.9379 17.6 20.9358C17.6 20.9338 17.6 20.9318 17.6 20.9298C17.6 20.9277 17.6 20.9258 17.6 20.9237C17.6 20.9216 17.6 20.9197 17.6 20.9176C17.6 20.9155 17.6 20.9136 17.6 20.9115C17.6 20.9094 17.6 20.9075 17.6 20.9054C17.6 20.9034 17.6 20.9014 17.6 20.8994C17.6 20.8974 17.6 20.8954 17.6 20.8933C17.6 20.8914 17.6 20.8893 17.6 20.8872C17.6 20.8853 17.6 20.8832 17.6 20.8811C17.6 20.8792 17.6 20.8771 17.6 20.8752C17.6 20.8731 17.6 20.871 17.6 20.8691C17.6 20.867 17.6 20.865 17.6 20.863C17.6 20.861 17.6 20.859 17.6 20.857C17.6 20.8549 17.6 20.853 17.6 20.8509C17.6 20.8488 17.6 20.8469 17.6 20.8448C17.6 20.8429 17.6 20.8408 17.6 20.8387C17.6 20.8368 17.6 20.8347 17.6 20.8328C17.6 20.8307 17.6 20.8286 17.6 20.8267C17.6 20.8246 17.6 20.8227 17.6 20.8206C17.6 20.8187 17.6 20.8166 17.6 20.8146C17.6 20.8126 17.6 20.8106 17.6 20.8086C17.6 20.8066 17.6 20.8045 17.6 20.8026C17.6 20.8005 17.6 20.7986 17.6 20.7965C17.6 20.7946 17.6 20.7925 17.6 20.7904C17.6 20.7885 17.6 20.7864 17.6 20.7845C17.6 20.7824 17.6 20.7805 17.6 20.7784C17.6 20.7763 17.6 20.7744 17.6 20.7723C17.6 20.7704 17.6 20.7683 17.6 20.7664C17.6 20.7643 17.6 20.7624 17.6 20.7603C17.6 20.7582 17.6 20.7563 17.6 20.7542C17.6 20.7523 17.6 20.7502 17.6 20.7483C17.6 20.7462 17.6 20.7443 17.6 20.7422C17.6 20.7403 17.6 20.7382 17.6 20.7363C17.6 20.7342 17.6 20.7322 17.6 20.7302C17.6 20.7282 17.6 20.7262 17.6 20.7242C17.6 20.7222 17.6 20.7202 17.6 20.7182C17.6 20.7162 17.6 20.7142 17.6 20.7122C17.6 20.7102 17.6 20.7082 17.6 20.7062C17.6 20.7042 17.6 20.7022 17.6 20.7002C17.6 20.6982 17.6 20.6962 17.6 20.6942C17.6 20.6922 17.6 20.6902 17.6 20.6882C17.6 20.6862 17.6 20.6842 17.6 20.6822C17.6 20.6802 17.6 20.6782 17.6 20.6762C17.6 20.6742 17.6 20.6722 17.6 20.6702C17.6 20.6682 17.6 20.6662 17.6 20.6642C17.6 20.6622 17.6 20.6602 17.6 20.6582C17.6 20.6562 17.6 20.6542 17.6 20.6523C17.6 20.6502 17.6 20.6483 17.6 20.6462C17.6 20.6443 17.6 20.6422 17.6 20.6403C17.6 20.6382 17.6 20.6363 17.6 20.6342C17.6 20.6323 17.6 20.6302 17.6 20.6283C17.6 20.6264 17.6 20.6243 17.6 20.6224C17.6 20.6203 17.6 20.6184 17.6 20.6163C17.6 20.6144 17.6 20.6123 17.6 20.6104C17.6 20.6085 17.6 20.6064 17.6 20.6045C17.6 20.6024 17.6 20.6005 17.6 20.5984C17.6 20.5965 17.6 20.5946 17.6 20.5925C17.6 20.5906 17.6 20.5885 17.6 20.5866C17.6 20.5845 17.6 20.5826 17.6 20.5806C17.6 20.5786 17.6 20.5766 17.6 20.5746C17.6 20.5726 17.6 20.5707 17.6 20.5686C17.6 20.5667 17.6 20.5646 17.6 20.5627C17.6 20.5606 17.6 20.5587 17.6 20.5568C17.6 20.5547 17.6 20.5528 17.6 20.5509C17.6 20.5488 17.6 20.5469 17.6 20.5448C17.6 20.5429 17.6 20.541 17.6 20.5389C17.6 20.537 17.6 20.5349 17.6 20.533C17.6 20.531 17.6 20.529 17.6 20.527C17.6 20.5251 17.6 20.523 17.6 20.5211C17.6 20.519 17.6 20.5171 17.6 20.5152C17.6 20.5131 17.6 20.5112 17.6 20.5093C17.6 20.5072 17.6 20.5053 17.6 20.5032C17.6 20.5013 17.6 20.4994 17.6 20.4973C17.6 20.4954 17.6 20.4934 17.6 20.4914C17.6 20.4894 17.6 20.4875 17.6 20.4854C17.6 20.4835 17.6 20.4816 17.6 20.4795C17.6 20.4776 17.6 20.4757 17.6 20.4736C17.6 20.4717 17.6 20.4698 17.6 20.4677C17.6 20.4658 17.6 20.4638 17.6 20.4618C17.6 20.4598 17.6 20.4579 17.6 20.4558C17.6 20.4539 17.6 20.452 17.6 20.4499C17.6 20.448 17.6 20.4461 17.6 20.444C17.6 20.4421 17.6 20.4402 17.6 20.4381C17.6 20.4362 17.6 20.4342 17.6 20.4323C17.6 20.4302 17.6 20.4283 17.6 20.4264C17.6 20.4243 17.6 20.4224 17.6 20.4205C17.6 20.4184 17.6 20.4165 17.6 20.4146C17.6 20.4126 17.6 20.4106 17.6 20.4086C17.6 20.4067 17.6 20.4046 17.6 20.4027C17.6 20.4008 17.6 20.3989 17.6 20.3968C17.6 20.3949 17.6 20.393 17.6 20.3909C17.6 20.389 17.6 20.387 17.6 20.3851C17.6 20.383 17.6 20.3811 17.6 20.3792C17.6 20.3773 17.6 20.3752 17.6 20.3733C17.6 20.3714 17.6 20.3694 17.6 20.3674C17.6 20.3654 17.6 20.3635 17.6 20.3616C17.6 20.3595 17.6 20.3576 17.6 20.3557C17.6 20.3538 17.6 20.3517 17.6 20.3498C17.6 20.3478 17.6 20.3459 17.6 20.3438C17.6 20.3419 17.6 20.34 17.6 20.3381C17.6 20.336 17.6 20.3341 17.6 20.3322C17.6 20.3302 17.6 20.3283 17.6 20.3262C17.6 20.3243 17.6 20.3224 17.6 20.3205C17.6 20.3184 17.6 20.3165 17.6 20.3146C17.6 20.3126 17.6 20.3107 17.6 20.3086C17.6 20.3067 17.6 20.3048 17.6 20.3029C17.6 20.301 17.6 20.2989 17.6 20.297C17.6 20.295 17.6 20.2931 17.6 20.2912C17.6 20.2891 17.6 20.2872 17.6 20.2853C17.6 20.2834 17.6 20.2814 17.6 20.2794C17.6 20.2774 17.6 20.2755 17.6 20.2736C17.6 20.2717 17.6 20.2696 17.6 20.2677C17.6 20.2658 17.6 20.2638 17.6 20.2619C17.6 20.26 17.6 20.2579 17.6 20.256C17.6 20.2541 17.6 20.2522 17.6 20.2502C17.6 20.2483 17.6 20.2462 17.6 20.2443C17.6 20.2424 17.6 20.2405 17.6 20.2386C17.6 20.2366 17.6 20.2347 17.6 20.2326C17.6 20.2307 17.6 20.2288 17.6 20.2269C17.6 20.225 17.6 20.223 17.6 20.2211C17.6 20.219 17.6 20.2171 17.6 20.2152C17.6 20.2133 17.6 20.2114 17.6 20.2094C17.6 20.2075 17.6 20.2054 17.6 20.2035C17.6 20.2016 17.6 20.1997 17.6 20.1978C17.6 20.1958 17.6 20.1939 17.6 20.192C17.6 20.1901 17.6 20.188 17.6 20.1861C17.6 20.1842 17.6 20.1822 17.6 20.1803C17.6 20.1784 17.6 20.1765 17.6 20.1746C17.6 20.1726 17.6 20.1706 17.6 20.1686C17.6 20.1667 17.6 20.1648 17.6 20.1629C17.6 20.161 17.6 20.159 17.6 20.1571C17.6 20.1552 17.6 20.1533 17.6 20.1514C17.6 20.1493 17.6 20.1474 17.6 20.1454C17.6 20.1435 17.6 20.1416 17.6 20.1397C17.6 20.1378 17.6 20.1358 17.6 20.1339C17.6 20.132 17.6 20.1301 17.6 20.1282C17.6 20.1262 17.6 20.1243 17.6 20.1222C17.6 20.1203 17.6 20.1184 17.6 20.1165C17.6 20.1146 17.6 20.1126 17.6 20.1107C17.6 20.1088 17.6 20.1069 17.6 20.105C17.6 20.103 17.6 20.1011 17.6 20.0992C17.6 20.0973 17.6 20.0954 17.6 20.0934C17.6 20.0915 17.6 20.0896 17.6 20.0877C17.6 20.0858 17.6 20.0838 17.6 20.0819C17.6 20.08 17.6 20.0781 17.6 20.0762C17.6 20.0742 17.6 20.0723 17.6 20.0704C17.6 20.0683 17.6 20.0664 17.6 20.0645C17.6 20.0626 17.6 20.0606 17.6 20.0587C17.6 20.0568 17.6 20.0549 17.6 20.053C17.6 20.051 17.6 20.0491 17.6 20.0472C17.6 20.0453 17.6 20.0434 17.6 20.0414C17.6 20.0395 17.6 20.0376 17.6 20.0357C17.6 20.0339 17.6 20.032 17.6 20.0301C17.6 20.0282 17.6 20.0262 17.6 20.0243C17.6 20.0224 17.6 20.0205 17.6 20.0186C17.6 20.0166 17.6 20.0147 17.6 20.0128C17.6 20.0109 17.6 20.009 17.6 20.007C17.6 20.0051 17.6 20.0032 17.6 20.0013C17.6 19.9994 17.6 19.9974 17.6 19.9955C17.6 19.9936 17.6 19.9917 17.6 19.9898H16ZM12 15.9906C14.2093 15.9906 16 17.7808 16 19.9898H17.6C17.6 16.8968 15.0926 14.3906 12 14.3906V15.9906ZM1.6 19.9898C1.6 17.7808 3.39069 15.9906 5.6 15.9906V14.3906C2.50738 14.3906 0 16.8968 0 19.9898H1.6ZM22.4 20.8V23.2H24V20.8H22.4ZM23.2 22.4H19.2V24H23.2V22.4ZM19.2 17.6C20.9674 17.6 22.4 19.0326 22.4 20.8H24C24 18.149 21.851 16 19.2 16V17.6ZM18.4 12.8C17.0746 12.8 16 11.7255 16 10.4H14.4C14.4 12.6091 16.1909 14.4 18.4 14.4V12.8ZM20.8 10.4C20.8 11.7255 19.7254 12.8 18.4 12.8V14.4C20.6091 14.4 22.4 12.6091 22.4 10.4H20.8ZM18.4 8C19.7254 8 20.8 9.07451 20.8 10.4H22.4C22.4 8.19086 20.6091 6.4 18.4 6.4V8ZM18.4 6.4C16.1909 6.4 14.4 8.19086 14.4 10.4H16C16 9.07451 17.0746 8 18.4 8V6.4Z" fill="#2E3192"/>
</g>
<defs>
<clipPath id="clip0_2649_40481">
<rect width="24" height="24" fill="white"/>
</clipPath>
</defs>
</svg>
