<svg width="20" height="21" viewBox="0 0 20 21" fill="none" xmlns="http://www.w3.org/2000/svg">
<path d="M10 20.25C11.1 20.25 12 19.35 12 18.25H8.00003C8.00003 19.35 8.90003 20.25 10 20.25ZM16 14.25V9.25C16 6.18 14.37 3.61 11.5 2.93V2.25C11.5 1.42 10.83 0.75 10 0.75C9.17003 0.75 8.50003 1.42 8.50003 2.25V2.93C5.64003 3.61 4.00003 6.17 4.00003 9.25V14.25L2.00003 16.25V17.25H18V16.25L16 14.25ZM14 15.25H6.00003V9.25C6.00003 6.77 7.51003 4.75 10 4.75C12.49 4.75 14 6.77 14 9.25V15.25ZM5.58003 2.33L4.15003 0.9C1.75003 2.73 0.170029 5.55 0.0300293 8.75H2.03003C2.18003 6.1 3.54003 3.78 5.58003 2.33ZM17.97 8.75H19.97C19.82 5.55 18.24 2.73 15.85 0.9L14.43 2.33C16.45 3.78 17.82 6.1 17.97 8.75Z" fill="#2E3192"/>
</svg>
