<svg width="41" height="41" viewBox="0 0 41 41" fill="none" xmlns="http://www.w3.org/2000/svg">
<path d="M15.512 35.465C18.2655 35.465 20.5 33.2305 20.5 30.4769V25.4888H15.512C12.7584 25.4888 10.5239 27.7233 10.5239 30.4769C10.5239 33.2305 12.7584 35.465 15.512 35.465Z" fill="#0ACF83"/>
<path d="M10.5229 20.5C10.5229 17.7464 12.7574 15.5119 15.511 15.5119H20.4999V25.4888H15.5118C12.7583 25.488 10.5229 23.2535 10.5229 20.5Z" fill="#A259FF"/>
<path d="M10.5229 10.523C10.5229 7.76947 12.7574 5.53497 15.511 5.53497H20.4999V15.5119H15.5118C12.7583 15.5119 10.5229 13.2766 10.5229 10.523Z" fill="#F24E1E"/>
<path d="M20.5 5.53497H25.4881C28.2416 5.53497 30.4761 7.76947 30.4761 10.523C30.4761 13.2766 28.2416 15.5111 25.4881 15.5111H20.5V5.53497Z" fill="#FF7262"/>
<path d="M29.0148 24.0272C30.9627 22.0793 30.9627 18.9211 29.0148 16.9731C27.0668 15.0252 23.9086 15.0252 21.9607 16.9731C20.0127 18.9211 20.0127 22.0793 21.9607 24.0272C23.9086 25.9752 27.0668 25.9752 29.0148 24.0272Z" fill="#1ABCFE"/>
</svg>
