<svg width="27" height="27" viewBox="0 0 27 27" fill="none" xmlns="http://www.w3.org/2000/svg">
<g clip-path="url(#clip0_198_3218)">
<path d="M26.9999 13.7991C26.9999 12.6923 26.908 11.8846 26.7091 11.047H13.7754V16.0426H21.3672C21.2142 17.2841 20.3876 19.1538 18.5509 20.4101L18.5251 20.5773L22.6145 23.6731L22.8978 23.7007C25.4998 21.3524 26.9999 17.8973 26.9999 13.7991Z" fill="#4285F4"/>
<path d="M13.7754 26.9614C17.4947 26.9614 20.6171 25.7648 22.8978 23.7008L18.5509 20.4101C17.3876 21.2028 15.8264 21.7562 13.7754 21.7562C10.1326 21.7562 7.04075 19.408 5.9386 16.1624L5.77705 16.1758L1.52485 19.3915L1.46924 19.5426C3.73452 23.94 8.38759 26.9614 13.7754 26.9614Z" fill="#34A853"/>
<path d="M5.93872 16.1623C5.64791 15.3247 5.4796 14.4272 5.4796 13.4999C5.4796 12.5725 5.64791 11.6751 5.92342 10.8376L5.91571 10.6592L1.61022 7.39172L1.46935 7.4572C0.53572 9.282 0 11.3312 0 13.4999C0 15.6687 0.53572 17.7178 1.46935 19.5426L5.93872 16.1623Z" fill="#FBBC05"/>
<path d="M13.7754 5.24363C16.3621 5.24363 18.107 6.33549 19.1019 7.24794L22.9896 3.53855C20.6019 1.36977 17.4947 0.0385742 13.7754 0.0385742C8.38759 0.0385742 3.73452 3.05989 1.46924 7.45726L5.9233 10.8376C7.04075 7.59193 10.1326 5.24363 13.7754 5.24363Z" fill="#EB4335"/>
</g>
<defs>
<clipPath id="clip0_198_3218">
<rect width="27" height="27" fill="white"/>
</clipPath>
</defs>
</svg>
