<svg width="27" height="27" viewBox="0 0 27 27" fill="none" xmlns="http://www.w3.org/2000/svg">
<g clip-path="url(#clip0_199_3725)">
<path d="M6.84649 26.9045C5.24079 26.8315 4.36853 26.5643 3.78836 26.338C3.01962 26.0387 2.47154 25.6824 1.89458 25.1062C1.31762 24.5301 0.960531 23.982 0.662823 23.2132C0.436532 22.6331 0.169317 21.7608 0.0962939 20.1551C0.016049 18.4194 0 17.8986 0 13.5012C0 9.10378 0.0176539 8.5838 0.0954914 6.84649C0.168514 5.24079 0.437335 4.37014 0.66202 3.78836C0.961334 3.01962 1.31842 2.47154 1.89378 1.89378C2.46994 1.31762 3.01801 0.959729 3.78756 0.66202C4.36773 0.43573 5.23999 0.168514 6.84569 0.0954914C8.58219 0.016049 9.10378 0 13.4996 0C17.897 0 18.417 0.0176539 20.1543 0.0954914C21.76 0.168514 22.6307 0.437335 23.2124 0.66202C23.9812 0.959729 24.5293 1.31762 25.1062 1.89378C25.6832 2.46994 26.0387 3.01881 26.338 3.78756C26.5643 4.36773 26.8315 5.23999 26.9045 6.84569C26.984 8.58299 27 9.10298 27 13.5004C27 17.8962 26.984 18.4178 26.9045 20.1551C26.8315 21.7608 26.5627 22.6331 26.338 23.2132C26.0387 23.982 25.6824 24.5301 25.1062 25.1062C24.5301 25.6824 23.9812 26.0387 23.2124 26.338C22.6323 26.5643 21.76 26.8315 20.1543 26.9045C18.4186 26.984 17.897 27 13.4996 27C9.10378 27 8.58219 26.9848 6.84649 26.9045Z" fill="url(#paint0_radial_199_3725)"/>
<path d="M6.84649 26.9045C5.24079 26.8315 4.36853 26.5643 3.78836 26.338C3.01962 26.0387 2.47154 25.6824 1.89458 25.1062C1.31762 24.5301 0.960531 23.982 0.662823 23.2132C0.436532 22.6331 0.169317 21.7608 0.0962939 20.1551C0.016049 18.4194 0 17.8986 0 13.5012C0 9.10378 0.0176539 8.5838 0.0954914 6.84649C0.168514 5.24079 0.437335 4.37014 0.66202 3.78836C0.961334 3.01962 1.31842 2.47154 1.89378 1.89378C2.46994 1.31762 3.01801 0.959729 3.78756 0.66202C4.36773 0.43573 5.23999 0.168514 6.84569 0.0954914C8.58219 0.016049 9.10378 0 13.4996 0C17.897 0 18.417 0.0176539 20.1543 0.0954914C21.76 0.168514 22.6307 0.437335 23.2124 0.66202C23.9812 0.959729 24.5293 1.31762 25.1062 1.89378C25.6832 2.46994 26.0387 3.01881 26.338 3.78756C26.5643 4.36773 26.8315 5.23999 26.9045 6.84569C26.984 8.58299 27 9.10298 27 13.5004C27 17.8962 26.984 18.4178 26.9045 20.1551C26.8315 21.7608 26.5627 22.6331 26.338 23.2132C26.0387 23.982 25.6824 24.5301 25.1062 25.1062C24.5301 25.6824 23.9812 26.0387 23.2124 26.338C22.6323 26.5643 21.76 26.8315 20.1543 26.9045C18.4186 26.984 17.897 27 13.4996 27C9.10378 27 8.58219 26.9848 6.84649 26.9045Z" fill="url(#paint1_radial_199_3725)"/>
<path d="M10.1852 13.5575C10.1852 11.711 11.6817 10.2137 13.5282 10.2137C15.3747 10.2137 16.872 11.711 16.872 13.5575C16.872 15.404 15.3747 16.9013 13.5282 16.9013C11.6817 16.9013 10.1852 15.404 10.1852 13.5575ZM8.37757 13.5575C8.37757 16.4022 10.6835 18.7081 13.5282 18.7081C16.3729 18.7081 18.6788 16.4022 18.6788 13.5575C18.6788 10.7128 16.3729 8.40693 13.5282 8.40693C10.6835 8.40693 8.37757 10.7127 8.37757 13.5575ZM17.6791 8.20271C17.679 8.44077 17.7495 8.67352 17.8817 8.87151C18.0138 9.06951 18.2018 9.22386 18.4217 9.31505C18.6416 9.40624 18.8836 9.43018 19.1171 9.38383C19.3506 9.33748 19.5651 9.22292 19.7335 9.05465C19.9019 8.88638 20.0167 8.67196 20.0632 8.43849C20.1097 8.20501 20.086 7.96299 19.995 7.74301C19.904 7.52303 19.7498 7.33498 19.5519 7.20264C19.354 7.0703 19.1213 6.99961 18.8832 6.99951C18.5641 6.99966 18.2576 7.12646 18.032 7.35206C17.8063 7.57765 17.6794 7.8836 17.6791 8.20271ZM9.4758 21.7223C8.49786 21.6778 7.96632 21.5149 7.61308 21.3772C7.14477 21.1949 6.81063 20.9778 6.45932 20.6269C6.10801 20.2761 5.89054 19.9423 5.70903 19.474C5.57133 19.1209 5.40843 18.5892 5.36397 17.6113C5.31535 16.554 5.30564 16.2363 5.30564 13.5577C5.30564 10.879 5.31615 10.5623 5.36397 9.50412C5.40851 8.52617 5.57261 7.99551 5.70903 7.64139C5.89134 7.17308 6.10849 6.83894 6.45932 6.48763C6.81015 6.13632 7.14397 5.91886 7.61308 5.73734C7.96616 5.59964 8.49786 5.43674 9.4758 5.39229C10.5331 5.34366 10.8507 5.33395 13.5282 5.33395C16.2056 5.33395 16.5236 5.3443 17.5817 5.39245C18.5597 5.43699 19.0903 5.60109 19.4445 5.7375C19.9128 5.91902 20.2469 6.13696 20.5982 6.48779C20.9495 6.83862 21.1662 7.17324 21.3485 7.64155C21.4862 7.99463 21.6491 8.52633 21.6936 9.50428C21.7422 10.5625 21.7519 10.8792 21.7519 13.5578C21.7519 16.2365 21.7422 16.5532 21.6936 17.6114C21.649 18.5894 21.4853 19.1209 21.3485 19.4741C21.1662 19.9425 20.9491 20.2766 20.5982 20.6271C20.2474 20.9776 19.9128 21.1951 19.4445 21.3774C19.0914 21.5151 18.5597 21.678 17.5817 21.7224C16.5244 21.7711 16.2068 21.7808 13.5282 21.7808C10.8495 21.7808 10.5328 21.7709 9.4758 21.7223ZM9.39275 3.58766C8.32493 3.63629 7.59526 3.80561 6.95804 4.05356C6.29851 4.30963 5.73944 4.65315 5.18118 5.21053C4.62291 5.76792 4.28027 6.32706 4.02421 6.9874C3.77625 7.62502 3.60693 8.35429 3.5583 9.42211C3.50887 10.4916 3.49756 10.8335 3.49756 13.5575C3.49756 16.2815 3.50887 16.6234 3.5583 17.693C3.60693 18.7608 3.77625 19.49 4.02421 20.1277C4.28027 20.7872 4.62299 21.3474 5.18118 21.9045C5.73936 22.4617 6.2977 22.8047 6.95804 23.0615C7.59647 23.3094 8.32493 23.4788 9.39275 23.5274C10.4628 23.576 10.8042 23.5881 13.5282 23.5881C16.2522 23.5881 16.5941 23.5768 17.6636 23.5274C18.7315 23.4788 19.4607 23.3094 20.0983 23.0615C20.7578 22.8047 21.3169 22.4619 21.8752 21.9045C22.4334 21.3471 22.7754 20.7872 23.0321 20.1277C23.2801 19.49 23.4502 18.7608 23.498 17.693C23.5467 16.6226 23.558 16.2815 23.558 13.5575C23.558 10.8335 23.5467 10.4916 23.498 9.42211C23.4494 8.35421 23.2801 7.62462 23.0321 6.9874C22.7754 6.32786 22.4325 5.7688 21.8752 5.21053C21.3178 4.65227 20.7578 4.30963 20.0991 4.05356C19.4607 3.80561 18.7314 3.63549 17.6644 3.58766C16.5947 3.53879 16.253 3.52692 13.5294 3.52692C10.8058 3.52692 10.4628 3.53823 9.39275 3.58766Z" fill="white"/>
</g>
<defs>
<radialGradient id="paint0_radial_199_3725" cx="0" cy="0" r="1" gradientUnits="userSpaceOnUse" gradientTransform="translate(1.74741 26.4085) scale(34.28)">
<stop offset="0.09" stop-color="#FA8F21"/>
<stop offset="0.78" stop-color="#D82D7E"/>
</radialGradient>
<radialGradient id="paint1_radial_199_3725" cx="0" cy="0" r="1" gradientUnits="userSpaceOnUse" gradientTransform="translate(18.702 25.5415) scale(30.1667)">
<stop offset="0.64" stop-color="#8C3AAA" stop-opacity="0"/>
<stop offset="1" stop-color="#8C3AAA"/>
</radialGradient>
<clipPath id="clip0_199_3725">
<rect width="27" height="27" fill="white"/>
</clipPath>
</defs>
</svg>
