<svg width="61" height="28" viewBox="0 0 61 28" fill="none" xmlns="http://www.w3.org/2000/svg">
<g clip-path="url(#clip0_246_2955)">
<path d="M14.3814 8.67303H19.6106V26.736H14.372V24.5992C13.8519 25.4053 13.0964 26.0354 12.206 26.4055C11.199 26.87 10.1008 27.1084 8.99003 27.1038C7.46485 27.1134 5.97083 26.6761 4.69576 25.8468C3.37992 24.9977 2.31608 23.8167 1.61366 22.4251C0.859309 20.9606 0.474033 19.337 0.490756 17.6929C0.490756 15.0843 1.31531 12.8699 2.96443 11.0496C4.61354 9.22935 6.62521 8.31689 8.99943 8.31224C10.1073 8.30644 11.2027 8.54497 12.206 9.01055C13.2099 9.47609 13.935 10.0751 14.3814 10.8075V8.67303ZM10.1529 22.1737C11.0182 22.1777 11.87 21.9613 12.6265 21.5452C13.3446 21.1704 13.9481 20.6118 14.3743 19.9275V15.5048C13.9535 14.8098 13.3524 14.2391 12.6336 13.8522C11.8806 13.4255 11.0273 13.2031 10.1599 13.2074C9.5563 13.1938 8.95602 13.2998 8.39434 13.5193C7.83267 13.7388 7.32091 14.0672 6.88915 14.4854C6.45738 14.9036 6.11432 15.4031 5.88009 15.9545C5.64587 16.5059 5.52521 17.0981 5.52521 17.6964C5.52521 18.2946 5.64587 18.8868 5.88009 19.4383C6.11432 19.9897 6.45738 20.4891 6.88915 20.9073C7.32091 21.3255 7.83267 21.654 8.39434 21.8734C8.95602 22.0929 9.5563 22.199 10.1599 22.1853L10.1529 22.1737Z" fill="#FBFBFB"/>
<path d="M27.9241 7.61158V8.67301H32.3992V13.6194H27.9241V26.7453H22.6854V13.6194H20.9165V8.67301H22.6854V7.36019C22.6854 5.06197 23.3534 3.26033 24.6893 1.95526C26.0252 0.6502 27.7776 -0.00155595 29.9467 -4.14753e-06C30.872 -0.0195661 31.7897 0.17072 32.6294 0.556316L32.3569 5.11628C31.8249 4.94776 31.271 4.8568 30.7125 4.84627C30.3454 4.83803 29.9802 4.9021 29.6383 5.03476C29.2963 5.16742 28.9843 5.36602 28.7204 5.61907C28.454 5.8772 28.2454 6.18802 28.1082 6.53131C27.971 6.87461 27.9082 7.24268 27.9241 7.61158Z" fill="#FBFBFB"/>
<path d="M53.0506 8.31221C55.2431 8.31221 57.0308 8.97405 58.4137 10.2977C59.7966 11.6214 60.4919 13.3602 60.4998 15.5141V26.736H55.2259V16.5918C55.2259 15.5149 54.9417 14.6614 54.3732 14.0314C54.0816 13.7186 53.7243 13.4731 53.3265 13.3122C52.9287 13.1513 52.5001 13.079 52.071 13.1003C51.4096 13.107 50.7634 13.2974 50.2057 13.6496C49.6323 13.985 49.1526 14.4571 48.8103 15.023V26.7476H43.5717V16.5918C43.5717 15.5258 43.2851 14.6723 42.7119 14.0314C42.4402 13.724 42.1037 13.4795 41.7262 13.315C41.3488 13.1505 40.9395 13.07 40.5272 13.0793C39.8168 13.069 39.1185 13.2622 38.5163 13.6357C37.9407 13.9895 37.4812 14.5014 37.1937 15.1091V26.7267H31.9551V8.673H37.1937V10.7377C37.7337 10.0082 38.4417 9.41684 39.2586 9.01285C40.2307 8.52967 41.3075 8.28991 42.3948 8.31454C44.7439 8.31454 46.4353 9.15871 47.469 10.8471C48.1349 10.0943 48.9486 9.48364 49.8604 9.05242C50.8503 8.56077 51.9433 8.30718 53.0506 8.31221Z" fill="#FBFBFB"/>
<path d="M43.2808 6.17072L43.1563 5.84485H42.3975L42.2706 6.17072H41.8267L42.6113 4.21545H42.9496L43.7365 6.17072H43.2808ZM42.5314 5.47241H43.0177L42.7828 4.84859L42.5314 5.47241Z" fill="#8F8F8F"/>
<path d="M44.6526 4.20615C44.8265 4.20242 44.995 4.26587 45.1224 4.38305C45.1846 4.44024 45.2336 4.50989 45.2665 4.58735C45.2993 4.66482 45.315 4.74832 45.3127 4.8323C45.3168 4.91891 45.3019 5.00537 45.2691 5.08573C45.2362 5.16609 45.1862 5.23845 45.1224 5.29784C44.9957 5.41652 44.8269 5.48092 44.6526 5.47707H44.3167V6.17538H43.9009V4.22012L44.6526 4.20615ZM44.6526 5.06973C44.7188 5.07139 44.7829 5.04714 44.8311 5.00222C44.8539 4.98012 44.8719 4.95366 44.884 4.92444C44.8961 4.89523 44.9021 4.86388 44.9016 4.8323C44.9025 4.80171 44.8966 4.7713 44.8844 4.74317C44.8723 4.71505 44.8541 4.68987 44.8311 4.66936C44.7826 4.6253 44.7184 4.60189 44.6526 4.60419H44.3167V5.06973H44.6526Z" fill="#8F8F8F"/>
<path d="M46.2923 4.20615C46.4661 4.20242 46.6346 4.26587 46.7621 4.38305C46.8239 4.44036 46.8726 4.51008 46.905 4.58756C46.9375 4.66503 46.9528 4.74848 46.95 4.8323C46.9546 4.91875 46.9401 5.00515 46.9077 5.08552C46.8752 5.1659 46.8255 5.23834 46.7621 5.29784C46.6354 5.41652 46.4666 5.48092 46.2923 5.47707H45.9563V6.17538H45.5405V4.22012L46.2923 4.20615ZM46.2923 5.06973C46.3247 5.0705 46.3569 5.06493 46.3871 5.05335C46.4174 5.04177 46.445 5.02439 46.4684 5.00222C46.4916 4.98032 46.5101 4.95394 46.5226 4.92472C46.5351 4.8955 46.5415 4.86405 46.5413 4.8323C46.5423 4.80146 46.5363 4.77079 46.5237 4.74257C46.5111 4.71436 46.4922 4.68933 46.4684 4.66936C46.4452 4.64706 46.4175 4.62976 46.3872 4.61854C46.3569 4.60733 46.3246 4.60244 46.2923 4.60419H45.9563V5.06973H46.2923Z" fill="#8F8F8F"/>
<path d="M47.1802 4.20615H47.596V5.76571H48.5051V6.17073H47.1849L47.1802 4.20615Z" fill="#8F8F8F"/>
<path d="M48.1694 4.20615H48.6815L49.1185 4.90446L49.5554 4.20615H50.0417L49.3229 5.33508V6.17073H48.9047V5.33508L48.1694 4.20615Z" fill="#8F8F8F"/>
<path d="M50.791 4.20615H52.0008V4.60418H51.2092V5.00688H51.9139V5.40258H51.2092V6.17073H50.791V4.20615Z" fill="#8F8F8F"/>
<path d="M52.6327 4.30859C52.789 4.21921 52.9668 4.17337 53.1472 4.17591C53.3315 4.17184 53.5135 4.21771 53.6734 4.30859C53.8255 4.39325 53.9507 4.51818 54.0352 4.66938C54.1216 4.82651 54.1668 5.00256 54.1668 5.18148C54.1668 5.36039 54.1216 5.53645 54.0352 5.69357C53.9503 5.84562 53.8252 5.97193 53.6734 6.05902C53.5163 6.14602 53.339 6.19095 53.159 6.18937C52.9789 6.1916 52.8014 6.14663 52.6445 6.05902C52.4865 5.97905 52.3545 5.85638 52.2639 5.70521C52.1776 5.54808 52.1323 5.37203 52.1323 5.19311C52.1323 5.0142 52.1776 4.83814 52.2639 4.68102C52.3485 4.52458 52.4765 4.39536 52.6327 4.30859ZM53.5583 4.75085C53.5047 4.6963 53.4406 4.65295 53.3698 4.62334C53.299 4.59374 53.2229 4.57849 53.146 4.57849C53.0692 4.57849 52.9931 4.59374 52.9223 4.62334C52.8515 4.65295 52.7874 4.6963 52.7338 4.75085C52.6266 4.86916 52.5674 5.02252 52.5674 5.18148C52.5674 5.34043 52.6266 5.49379 52.7338 5.6121C52.787 5.66723 52.851 5.71111 52.9219 5.74108C52.9928 5.77105 53.069 5.78651 53.146 5.78651C53.2231 5.78651 53.2993 5.77105 53.3702 5.74108C53.441 5.71111 53.505 5.66723 53.5583 5.6121C53.6655 5.49379 53.7247 5.34043 53.7247 5.18148C53.7247 5.02252 53.6655 4.86916 53.5583 4.75085Z" fill="#8F8F8F"/>
<path d="M55.9827 6.17072H55.4729L55.0289 5.42586H54.8151V6.17072H54.397V4.21545H55.1581C55.2661 4.21639 55.372 4.24442 55.4661 4.29693C55.5602 4.34944 55.6393 4.42472 55.6961 4.51573C55.752 4.60774 55.7813 4.71324 55.7806 4.82066C55.7831 4.93491 55.7538 5.04763 55.6961 5.14653C55.6421 5.24039 55.56 5.31525 55.4611 5.36068L55.9827 6.17072ZM54.8081 4.61582V5.06739H55.1088C55.1403 5.0685 55.1718 5.0633 55.2012 5.0521C55.2307 5.0409 55.2576 5.02394 55.2803 5.00222C55.3031 4.98162 55.3212 4.95642 55.3333 4.92831C55.3455 4.90021 55.3514 4.86985 55.3507 4.83928C55.3514 4.8094 55.3454 4.77975 55.3332 4.7524C55.321 4.72506 55.3029 4.70069 55.2803 4.68099C55.2576 4.65927 55.2307 4.64231 55.2012 4.63111C55.1718 4.61991 55.1403 4.61471 55.1088 4.61582H54.8081Z" fill="#8F8F8F"/>
<path d="M56.7529 6.17072V4.21545H57.258L57.8453 5.56319L58.4608 4.21545H58.886V6.17072H58.4678V5.00687L57.9628 6.17072H57.6668L57.1687 5.00687V6.17072H56.7529Z" fill="#8F8F8F"/>
<path d="M59.1846 4.20615H60.3944V4.60418H59.6027V4.95567H60.3075V5.35138H59.6027V5.76571H60.3944V6.17073H59.1846V4.20615Z" fill="#8F8F8F"/>
</g>
<defs>
<clipPath id="clip0_246_2955">
<rect width="60" height="27.0968" fill="white" transform="translate(0.5)"/>
</clipPath>
</defs>
</svg>
