<svg width="36" height="36" viewBox="0 0 36 36" fill="none" xmlns="http://www.w3.org/2000/svg">
<path d="M18.0308 30.7959C14.5358 30.7959 11.0408 30.2409 7.72578 29.1309C6.46578 28.6959 5.50578 27.8109 5.08578 26.6559C4.65078 25.5009 4.80078 24.2259 5.49078 23.0859L7.21578 20.2209C7.57578 19.6209 7.90578 18.4209 7.90578 17.7159V13.3809C7.90578 7.80086 12.4508 3.25586 18.0308 3.25586C23.6108 3.25586 28.1558 7.80086 28.1558 13.3809V17.7159C28.1558 18.4059 28.4858 19.6209 28.8458 20.2359L30.5558 23.0859C31.2008 24.1659 31.3208 25.4709 30.8858 26.6559C30.4508 27.8409 29.5058 28.7409 28.3208 29.1309C25.0208 30.2409 21.5258 30.7959 18.0308 30.7959ZM18.0308 5.50586C13.6958 5.50586 10.1558 9.03086 10.1558 13.3809V17.7159C10.1558 18.8109 9.70578 20.4309 9.15078 21.3759L7.42578 24.2409C7.09578 24.7959 7.00578 25.3809 7.20078 25.8759C7.38078 26.3859 7.83078 26.7759 8.44578 26.9859C14.7158 29.0859 21.3608 29.0859 27.6308 26.9859C28.1708 26.8059 28.5908 26.4009 28.7858 25.8609C28.9808 25.3209 28.9358 24.7359 28.6358 24.2409L26.9108 21.3759C26.3408 20.4009 25.9058 18.7959 25.9058 17.7009V13.3809C25.9058 9.03086 22.3808 5.50586 18.0308 5.50586Z" fill="#2E3192"/>
<path d="M20.8214 5.90953C20.7164 5.90953 20.6114 5.89453 20.5064 5.86453C20.0714 5.74453 19.6514 5.65453 19.2464 5.59453C17.9714 5.42953 16.7414 5.51953 15.5864 5.86453C15.1664 5.99953 14.7164 5.86453 14.4314 5.54953C14.1464 5.23453 14.0564 4.78453 14.2214 4.37953C14.8364 2.80453 16.3364 1.76953 18.0464 1.76953C19.7564 1.76953 21.2564 2.78953 21.8714 4.37953C22.0214 4.78453 21.9464 5.23453 21.6614 5.54953C21.4364 5.78953 21.1214 5.90953 20.8214 5.90953Z" fill="#2E3192"/>
<path d="M18.0298 34.2148C16.5448 34.2148 15.1048 33.6148 14.0548 32.5648C13.0048 31.5148 12.4048 30.0748 12.4048 28.5898H14.6548C14.6548 29.4748 15.0148 30.3448 15.6448 30.9748C16.2748 31.6048 17.1448 31.9648 18.0298 31.9648C19.8898 31.9648 21.4048 30.4498 21.4048 28.5898H23.6548C23.6548 31.6948 21.1348 34.2148 18.0298 34.2148Z" fill="#2E3192"/>
</svg>
