<svg width="27" height="27" viewBox="0 0 27 27" fill="none" xmlns="http://www.w3.org/2000/svg">
<g clip-path="url(#clip0_198_3215)">
<path d="M26.6026 13.4624C26.6026 20.7224 20.7151 26.6099 13.4551 26.6099C6.19512 26.6099 0.307617 20.7224 0.307617 13.4624C0.307617 6.20244 6.19512 0.314941 13.4551 0.314941C20.7151 0.314941 26.6026 6.20244 26.6026 13.4624Z" fill="#CA2127"/>
<path d="M12.3525 4.7175C8.6475 5.115 4.9575 7.965 4.8075 12.045C4.71 14.535 5.7525 16.4025 8.2425 16.9275C8.5275 15.75 8.58 15.1125 8.58 15.1125C8.58 15.1125 7.485 14.0625 7.3725 13.395C6.4575 8.025 13.875 4.3575 17.7675 8.1075C20.4525 10.71 18.6825 18.7125 14.3475 17.88C10.1925 17.085 16.38 10.7175 13.065 9.465C10.3725 8.445 8.94 12.5775 10.215 14.625C9.465 18.15 7.8525 21.4725 8.505 25.89C10.6275 24.4275 11.34 21.6225 11.925 18.6975C12.99 19.3125 13.56 19.9575 14.9175 20.055C19.9275 20.4225 22.725 15.2925 22.0425 10.5525C21.4275 6.3525 17.0325 4.215 12.3525 4.7175V4.7175Z" fill="white"/>
</g>
<defs>
<clipPath id="clip0_198_3215">
<rect width="27" height="27" fill="white"/>
</clipPath>
</defs>
</svg>
