<svg width="24" height="23" viewBox="0 0 24 23" fill="none" xmlns="http://www.w3.org/2000/svg">
<path d="M5.46807 11.8041C4.79373 11.7618 4.11767 11.8528 3.47848 12.0718C2.83929 12.2908 2.2495 12.6335 1.74277 13.0804C0.71938 13.9831 0.096471 15.2552 0.0110713 16.6171C-0.0743284 17.979 0.384777 19.319 1.28739 20.3424C2.19 21.3658 3.46218 21.9887 4.82407 22.0741C6.18596 22.1595 7.52599 21.7004 8.54938 20.7978C9.57276 19.8952 10.1957 18.623 10.2811 17.2611C10.3665 15.8992 9.90737 14.5592 9.00475 13.5358C8.10214 12.5124 6.82996 11.8895 5.46807 11.8041V11.8041ZM23.3091 14.3661L16.4501 2.48412C15.7671 1.30232 14.6427 0.440209 13.3241 0.0874526C12.0056 -0.265303 10.6009 -0.079812 9.41907 0.60312C8.23727 1.28605 7.37516 2.41048 7.0224 3.72905C6.66965 5.04762 6.85514 6.45232 7.53807 7.63412L14.3981 19.5121C15.0806 20.6943 16.2047 21.557 17.5233 21.9105C18.8418 22.264 20.2467 22.0793 21.4291 21.3971C22.0143 21.059 22.5272 20.6089 22.9384 20.0726C23.3497 19.5363 23.6513 18.9241 23.8259 18.2712C24.0006 17.6183 24.045 16.9374 23.9564 16.2674C23.8679 15.5973 23.6483 14.9513 23.3101 14.3661H23.3091Z" fill="black"/>
</svg>
